<svg version="1.1" xmlns="http://www.w3.org/2000/svg" xmlns:xlink="http://www.w3.org/1999/xlink" width="524" height="276"><defs/><g><g transform="translate(-976,-1155) scale(1,1)"><rect fill="#C0C0C0" stroke="none" x="993" y="1172" width="201.5999999999999" height="15" opacity="0.2"/></g><g transform="translate(-976,-1155) scale(1,1)"><rect fill="#C0C0C0" stroke="none" x="993" y="1186" width="504" height="242" opacity="0.2"/></g><g transform="translate(-976,-1155) scale(1,1)"><rect fill="#ffffff" stroke="none" x="986" y="1180" width="504" height="241"/></g><g transform="translate(-976,-1155) scale(1,1)"><path fill="none" stroke="#000000" d="M 986 1180 L 1490 1180 L 1490 1421 L 986 1421 L 986 1180 Z Z" stroke-miterlimit="10"/></g><g transform="translate(-976,-1155) scale(1,1)"><rect fill="#ffffff" stroke="none" x="986" y="1165" width="201.5999999999999" height="15"/></g><g transform="translate(-976,-1155) scale(1,1)"><path fill="none" stroke="#000000" d="M 986 1165 L 1187.6 1165 L 1187.6 1180 L 986 1180 L 986 1165 Z Z" stroke-miterlimit="10"/></g><g transform="translate(-976,-1155) scale(1,1)"><rect fill="#ffffff" stroke="none" x="986" y="1179" width="504" height="242"/></g><g transform="translate(-976,-1155) scale(1,1)"><path fill="none" stroke="#000000" d="M 986 1179 L 1490 1179 L 1490 1421 L 986 1421 L 986 1179 Z Z" stroke-miterlimit="10"/></g><g transform="translate(-976,-1155) scale(1,1)"><g><path fill="none" stroke="none"/><text fill="#000000" stroke="none" font-family="Arial" font-size="13px" font-style="normal" font-weight="bold" text-decoration="none" x="1205.484130859375" y="1199.5">Generators</text></g></g><g transform="translate(-976,-1155) scale(1,1)"><rect fill="#C0C0C0" stroke="none" x="1017" y="1228" width="463.14306640625" height="80" opacity="0.2"/></g><g transform="translate(-976,-1155) scale(1,1)"><rect fill="#ffffff" stroke="none" x="1010" y="1221" width="463.14306640625" height="80"/></g><g transform="translate(-976,-1155) scale(1,1)"><path fill="none" stroke="#000000" d="M 1010 1221 L 1473.14306640625 1221 L 1473.14306640625 1301 L 1010 1301 L 1010 1221 Z Z" stroke-miterlimit="10"/></g><g transform="translate(-976,-1155) scale(1,1)"><path fill="none" stroke="#000000" d="M 1010 1259 L 1473.14306640625 1259" stroke-miterlimit="10"/></g><g transform="translate(-976,-1155) scale(1,1)"><path fill="none" stroke="#000000" d="M 1010 1269 L 1473.14306640625 1269" stroke-miterlimit="10"/></g><g transform="translate(-976,-1155) scale(1,1)"><g><path fill="none" stroke="none"/><text fill="#000000" stroke="none" font-family="Arial" font-size="13px" font-style="normal" font-weight="normal" text-decoration="none" x="1216.99658203125" y="1238.5">«object»</text></g></g><g transform="translate(-976,-1155) scale(1,1)"><g><path fill="none" stroke="none"/><text fill="#000000" stroke="none" font-family="Arial" font-size="13px" font-style="normal" font-weight="bold" text-decoration="none" x="1198.94384765625" y="1253.5">OTPGenerator</text></g></g><g transform="translate(-976,-1155) scale(1,1)"><g><path fill="none" stroke="none"/><text fill="#000000" stroke="none" font-family="Arial" font-size="13px" font-style="normal" font-weight="normal" text-decoration="none" x="1015" y="1286.5">+apply(hashFunction: HashFunction, secret: String, digits: Int, seed: Int): String</text></g></g><g transform="translate(-976,-1155) scale(1,1)"><rect fill="#C0C0C0" stroke="none" x="1153" y="1340" width="184.2080078125" height="70" opacity="0.2"/></g><g transform="translate(-976,-1155) scale(1,1)"><rect fill="#ffffff" stroke="none" x="1146" y="1333" width="184.2080078125" height="70"/></g><g transform="translate(-976,-1155) scale(1,1)"><path fill="none" stroke="#000000" d="M 1146 1333 L 1330.2080078125 1333 L 1330.2080078125 1403 L 1146 1403 L 1146 1333 Z Z" stroke-miterlimit="10"/></g><g transform="translate(-976,-1155) scale(1,1)"><path fill="none" stroke="#000000" d="M 1146 1371 L 1330.2080078125 1371" stroke-miterlimit="10"/></g><g transform="translate(-976,-1155) scale(1,1)"><path fill="none" stroke="#000000" d="M 1146 1381 L 1330.2080078125 1381" stroke-miterlimit="10"/></g><g transform="translate(-976,-1155) scale(1,1)"><g><path fill="none" stroke="none"/><text fill="#000000" stroke="none" font-family="Arial" font-size="13px" font-style="normal" font-weight="normal" text-decoration="none" x="1213.529052734375" y="1350.5">«object»</text></g></g><g transform="translate(-976,-1155) scale(1,1)"><g><path fill="none" stroke="none"/><text fill="#000000" stroke="none" font-family="Arial" font-size="13px" font-style="normal" font-weight="bold" text-decoration="none" x="1188.957275390625" y="1365.5">LengthGenerator</text></g></g><g transform="translate(-976,-1155) scale(1,1)"><g><path fill="none" stroke="none"/><text fill="#000000" stroke="none" font-family="Arial" font-size="13px" font-style="normal" font-weight="normal" text-decoration="none" x="1151" y="1398.5">+length(policy: OTPPolicy): Int</text></g></g></g></svg>