<svg version="1.1" xmlns="http://www.w3.org/2000/svg" xmlns:xlink="http://www.w3.org/1999/xlink" width="964" height="671"><defs/><g><g transform="translate(-402,-342) scale(1,1)"><rect fill="#C0C0C0" stroke="none" x="419" y="474" width="377.6" height="15" opacity="0.2"/></g><g transform="translate(-402,-342) scale(1,1)"><rect fill="#C0C0C0" stroke="none" x="419" y="488" width="944" height="522" opacity="0.2"/></g><g transform="translate(-402,-342) scale(1,1)"><rect fill="#ffffff" stroke="none" x="412" y="482" width="944" height="521"/></g><g transform="translate(-402,-342) scale(1,1)"><path fill="none" stroke="#000000" d="M 412 482 L 1356 482 L 1356 1003 L 412 1003 L 412 482 Z Z" stroke-miterlimit="10"/></g><g transform="translate(-402,-342) scale(1,1)"><rect fill="#ffffff" stroke="none" x="412" y="467" width="377.6" height="15"/></g><g transform="translate(-402,-342) scale(1,1)"><path fill="none" stroke="#000000" d="M 412 467 L 789.6 467 L 789.6 482 L 412 482 L 412 467 Z Z" stroke-miterlimit="10"/></g><g transform="translate(-402,-342) scale(1,1)"><rect fill="#ffffff" stroke="none" x="412" y="481" width="944" height="522"/></g><g transform="translate(-402,-342) scale(1,1)"><path fill="none" stroke="#000000" d="M 412 481 L 1356 481 L 1356 1003 L 412 1003 L 412 481 Z Z" stroke-miterlimit="10"/></g><g transform="translate(-402,-342) scale(1,1)"><g><path fill="none" stroke="none"/><text fill="#000000" stroke="none" font-family="Arial" font-size="13px" font-style="normal" font-weight="bold" text-decoration="none" x="860.516845703125" y="501.5">Builders</text></g></g><g transform="translate(-402,-342) scale(1,1)"><rect fill="#C0C0C0" stroke="none" x="435" y="530" width="494" height="72" opacity="0.2"/></g><g transform="translate(-402,-342) scale(1,1)"><rect fill="#ffffff" stroke="none" x="428" y="523" width="494" height="72"/></g><g transform="translate(-402,-342) scale(1,1)"><path fill="none" stroke="#000000" d="M 428 523 L 922 523 L 922 595 L 428 595 L 428 523 Z Z" stroke-miterlimit="10"/></g><g transform="translate(-402,-342) scale(1,1)"><path fill="none" stroke="#000000" d="M 428 561 L 922 561" stroke-miterlimit="10"/></g><g transform="translate(-402,-342) scale(1,1)"><path fill="none" stroke="#000000" d="M 428 571 L 922 571" stroke-miterlimit="10"/></g><g transform="translate(-402,-342) scale(1,1)"><g><path fill="none" stroke="none"/><text fill="#000000" stroke="none" font-family="Arial" font-size="13px" font-style="normal" font-weight="normal" text-decoration="none" x="656.9345703125" y="540.5">«trait»</text></g></g><g transform="translate(-402,-342) scale(1,1)"><g><path fill="none" stroke="none"/><text fill="#000000" stroke="none" font-family="Arial" font-size="13px" font-style="normal" font-weight="bold" text-decoration="none" x="633.82275390625" y="555.5">OTPBuilder[T]</text></g></g><g transform="translate(-402,-342) scale(1,1)"><g><path fill="none" stroke="none"/><text fill="#000000" stroke="none" font-family="Arial" font-size="13px" font-style="normal" font-weight="normal" text-decoration="none" x="433" y="588.5">+withPolicy(policy: OTPPolicy)(implicit generateLength: OTPPolicy =&gt; Int): this.type</text></g></g><g transform="translate(-402,-342) scale(1,1)"><rect fill="#C0C0C0" stroke="none" x="1107" y="538" width="214.21337890625" height="64" opacity="0.2"/></g><g transform="translate(-402,-342) scale(1,1)"><rect fill="#ffffff" stroke="none" x="1100" y="531" width="214.21337890625" height="64"/></g><g transform="translate(-402,-342) scale(1,1)"><path fill="none" stroke="#000000" d="M 1100 531 L 1314.21337890625 531 L 1314.21337890625 595 L 1100 595 L 1100 531 Z Z" stroke-miterlimit="10"/></g><g transform="translate(-402,-342) scale(1,1)"><path fill="none" stroke="#000000" d="M 1100 569 L 1314.21337890625 569" stroke-miterlimit="10"/></g><g transform="translate(-402,-342) scale(1,1)"><g><path fill="none" stroke="none"/><text fill="#000000" stroke="none" font-family="Arial" font-size="13px" font-style="normal" font-weight="normal" text-decoration="none" x="1182.53173828125" y="548.5">«object»</text></g></g><g transform="translate(-402,-342) scale(1,1)"><g><path fill="none" stroke="none"/><text fill="#000000" stroke="none" font-family="Arial" font-size="13px" font-style="normal" font-weight="bold" text-decoration="none" x="1173.51171875" y="563.5">OTPBuilder</text></g></g><g transform="translate(-402,-342) scale(1,1)"><g><path fill="none" stroke="none"/><text fill="#000000" stroke="none" font-family="Arial" font-size="13px" font-style="normal" font-weight="normal" text-decoration="none" x="1105" y="586.5">+type SecretValue = (String, String)</text></g></g><g transform="translate(-402,-342) scale(1,1)"><rect fill="#C0C0C0" stroke="none" x="739" y="946" width="88.447265625" height="40" opacity="0.2"/></g><g transform="translate(-402,-342) scale(1,1)"><rect fill="#ffffff" stroke="none" x="732" y="939" width="88.447265625" height="40"/></g><g transform="translate(-402,-342) scale(1,1)"><path fill="none" stroke="#000000" d="M 732 939 L 820.447265625 939 L 820.447265625 979 L 732 979 L 732 939 Z Z" stroke-miterlimit="10"/></g><g transform="translate(-402,-342) scale(1,1)"><g><path fill="none" stroke="none"/><text fill="#000000" stroke="none" font-family="Arial" font-size="13px" font-style="normal" font-weight="normal" text-decoration="none" x="738.648681640625" y="956.5">«case class»</text></g></g><g transform="translate(-402,-342) scale(1,1)"><g><path fill="none" stroke="none"/><text fill="#000000" stroke="none" font-family="Arial" font-size="13px" font-style="normal" font-weight="bold" text-decoration="none" x="738.658203125" y="971.5">TOTPBuilder</text></g></g><g transform="translate(-402,-342) scale(1,1)"><rect fill="#C0C0C0" stroke="none" x="1019" y="858" width="223" height="70" opacity="0.2"/></g><g transform="translate(-402,-342) scale(1,1)"><rect fill="#ffffff" stroke="none" x="1012" y="851" width="223" height="70"/></g><g transform="translate(-402,-342) scale(1,1)"><path fill="none" stroke="#000000" d="M 1012 851 L 1235 851 L 1235 921 L 1012 921 L 1012 851 Z Z" stroke-miterlimit="10"/></g><g transform="translate(-402,-342) scale(1,1)"><path fill="none" stroke="#000000" d="M 1012 889 L 1235 889" stroke-miterlimit="10"/></g><g transform="translate(-402,-342) scale(1,1)"><path fill="none" stroke="#000000" d="M 1012 899 L 1235 899" stroke-miterlimit="10"/></g><g transform="translate(-402,-342) scale(1,1)"><g><path fill="none" stroke="none"/><text fill="#000000" stroke="none" font-family="Arial" font-size="13px" font-style="normal" font-weight="normal" text-decoration="none" x="1105.4345703125" y="868.5">«trait»</text></g></g><g transform="translate(-402,-342) scale(1,1)"><g><path fill="none" stroke="none"/><text fill="#000000" stroke="none" font-family="Arial" font-size="13px" font-style="normal" font-weight="bold" text-decoration="none" x="1075.4609375" y="883.5">TimeOTPBuilder</text></g></g><g transform="translate(-402,-342) scale(1,1)"><g><path fill="none" stroke="none"/><text fill="#000000" stroke="none" font-family="Arial" font-size="13px" font-style="normal" font-weight="normal" text-decoration="none" x="1017" y="916.5">+timeout(timeout: Duration): this.type</text></g></g><g transform="translate(-402,-342) scale(1,1)"><rect fill="#C0C0C0" stroke="none" x="483" y="946" width="89.89453125" height="40" opacity="0.2"/></g><g transform="translate(-402,-342) scale(1,1)"><rect fill="#ffffff" stroke="none" x="476" y="939" width="89.89453125" height="40"/></g><g transform="translate(-402,-342) scale(1,1)"><path fill="none" stroke="#000000" d="M 476 939 L 565.89453125 939 L 565.89453125 979 L 476 979 L 476 939 Z Z" stroke-miterlimit="10"/></g><g transform="translate(-402,-342) scale(1,1)"><g><path fill="none" stroke="none"/><text fill="#000000" stroke="none" font-family="Arial" font-size="13px" font-style="normal" font-weight="normal" text-decoration="none" x="483.372314453125" y="956.5">«case class»</text></g></g><g transform="translate(-402,-342) scale(1,1)"><g><path fill="none" stroke="none"/><text fill="#000000" stroke="none" font-family="Arial" font-size="13px" font-style="normal" font-weight="bold" text-decoration="none" x="482.658203125" y="971.5">HOTPBuilder</text></g></g><g transform="translate(-402,-342) scale(1,1)"><rect fill="#C0C0C0" stroke="none" x="1019" y="762" width="324.42138671875" height="70" opacity="0.2"/></g><g transform="translate(-402,-342) scale(1,1)"><rect fill="#ffffff" stroke="none" x="1012" y="755" width="324.42138671875" height="70"/></g><g transform="translate(-402,-342) scale(1,1)"><path fill="none" stroke="#000000" d="M 1012 755 L 1336.42138671875 755 L 1336.42138671875 825 L 1012 825 L 1012 755 Z Z" stroke-miterlimit="10"/></g><g transform="translate(-402,-342) scale(1,1)"><path fill="none" stroke="#000000" d="M 1012 793 L 1336.42138671875 793" stroke-miterlimit="10"/></g><g transform="translate(-402,-342) scale(1,1)"><path fill="none" stroke="#000000" d="M 1012 803 L 1336.42138671875 803" stroke-miterlimit="10"/></g><g transform="translate(-402,-342) scale(1,1)"><g><path fill="none" stroke="none"/><text fill="#000000" stroke="none" font-family="Arial" font-size="13px" font-style="normal" font-weight="normal" text-decoration="none" x="1156.145263671875" y="772.5">«trait»</text></g></g><g transform="translate(-402,-342) scale(1,1)"><g><path fill="none" stroke="none"/><text fill="#000000" stroke="none" font-family="Arial" font-size="13px" font-style="normal" font-weight="bold" text-decoration="none" x="1123.64208984375" y="787.5">HmacOTPBuilder</text></g></g><g transform="translate(-402,-342) scale(1,1)"><g><path fill="none" stroke="none"/><text fill="#000000" stroke="none" font-family="Arial" font-size="13px" font-style="normal" font-weight="normal" text-decoration="none" x="1017" y="820.5">+hashFunction(hashFunction: HashFunction): this.type</text></g></g><g transform="translate(-402,-342) scale(1,1)"><rect fill="#C0C0C0" stroke="none" x="555" y="764" width="220.13427734375" height="70" opacity="0.2"/></g><g transform="translate(-402,-342) scale(1,1)"><rect fill="#C0C0C0" stroke="none" x="716.26611328125" y="746" width="67.8681640625" height="22" opacity="0.2"/></g><g transform="translate(-402,-342) scale(1,1)"><rect fill="#ffffff" stroke="none" x="548" y="757" width="220.13427734375" height="70"/></g><g transform="translate(-402,-342) scale(1,1)"><path fill="none" stroke="#000000" d="M 548 757 L 768.13427734375 757 L 768.13427734375 827 L 548 827 L 548 757 Z Z" stroke-miterlimit="10"/></g><g transform="translate(-402,-342) scale(1,1)"><path fill="none" stroke="#000000" d="M 548 795 L 768.13427734375 795" stroke-miterlimit="10"/></g><g transform="translate(-402,-342) scale(1,1)"><path fill="none" stroke="#000000" d="M 548 805 L 768.13427734375 805" stroke-miterlimit="10"/></g><g transform="translate(-402,-342) scale(1,1)"><g><path fill="none" stroke="none"/><text fill="#000000" stroke="none" font-family="Arial" font-size="13px" font-style="normal" font-weight="normal" text-decoration="none" x="611.100830078125" y="774.5">«abstract class»</text></g></g><g transform="translate(-402,-342) scale(1,1)"><g><path fill="none" stroke="none"/><text fill="#000000" stroke="none" font-family="Arial" font-size="13px" font-style="italic" font-weight="bold" text-decoration="none" x="595.936279296875" y="789.5">AbstractHOTPBuilder</text></g></g><g transform="translate(-402,-342) scale(1,1)"><g><path fill="none" stroke="none"/><text fill="#000000" stroke="none" font-family="Arial" font-size="13px" font-style="normal" font-weight="normal" text-decoration="none" x="553" y="822.5">#otpGenerator(length: Int): String</text></g></g><g transform="translate(-402,-342) scale(1,1)"><rect fill="#ffffff" stroke="none" x="709.26611328125" y="739" width="67.8681640625" height="22"/></g><g transform="translate(-402,-342) scale(1,1)"><path fill="none" stroke="#000000" d="M 709.26611328125 739 L 777.13427734375 739 L 777.13427734375 761 L 709.26611328125 761 L 709.26611328125 739 Z Z" stroke-miterlimit="10" stroke-dasharray="3"/></g><g transform="translate(-402,-342) scale(1,1)"><g><path fill="none" stroke="none"/><text fill="#000000" stroke="none" font-family="Arial" font-size="13px" font-style="normal" font-weight="normal" text-decoration="none" x="714.26611328125" y="756.5">T = HOTP</text></g></g><g transform="translate(-402,-342) scale(1,1)"><path fill="none" stroke="#000000" d="M 670 634 L 673 596" stroke-miterlimit="10"/></g><g transform="translate(-402,-342) scale(1,1)"><path fill="#FFFFFF" stroke="none" d="M 679.7932653757715 616.9249025215016 L 673 596 L 663.0074235449865 615.5997044822291"/></g><g transform="translate(-402,-342) scale(1,1)"><path fill="none" stroke="#000000" d="M 679.7932653757715 616.9249025215016 L 673 596 L 663.0074235449865 615.5997044822291 L 679.7932653757715 616.9249025215016" stroke-miterlimit="10"/></g><g transform="translate(-402,-342) scale(1,1)"><path fill="none" stroke="#000000" d="M 665 738 L 666 706" stroke-miterlimit="10"/></g><g transform="translate(-402,-342) scale(1,1)"><path fill="#FFFFFF" stroke="none" d="M 673.7800703979356 726.5783989805614 L 666 706 L 656.9502150713718 726.0524660016061"/></g><g transform="translate(-402,-342) scale(1,1)"><path fill="none" stroke="#000000" d="M 673.7800703979356 726.5783989805614 L 666 706 L 656.9502150713718 726.0524660016061 L 673.7800703979356 726.5783989805614" stroke-miterlimit="10"/></g><g transform="translate(-402,-342) scale(1,1)"><path fill="none" stroke="#000000" d="M 779 785 L 1011 788" stroke-miterlimit="10"/></g><g transform="translate(-402,-342) scale(1,1)"><path fill="#FFFFFF" stroke="none" d="M 990.5674916515749 796.1555258930089 L 1011 788 L 990.7852071270888 779.3188624532669"/></g><g transform="translate(-402,-342) scale(1,1)"><path fill="none" stroke="#000000" d="M 990.5674916515749 796.1555258930089 L 1011 788 L 990.7852071270888 779.3188624532669 L 990.5674916515749 796.1555258930089" stroke-miterlimit="10"/></g><g transform="translate(-402,-342) scale(1,1)"><g><path fill="none" stroke="none"/><text fill="#000000" stroke="none" font-family="Arial" font-size="13px" font-style="normal" font-weight="normal" text-decoration="none" x="875.536376953125" y="777.5">+mixin</text></g></g><g transform="translate(-402,-342) scale(1,1)"><rect fill="#C0C0C0" stroke="none" x="515" y="642" width="320.0732421875" height="70" opacity="0.2"/></g><g transform="translate(-402,-342) scale(1,1)"><rect fill="#ffffff" stroke="none" x="508" y="635" width="320.0732421875" height="70"/></g><g transform="translate(-402,-342) scale(1,1)"><path fill="none" stroke="#000000" d="M 508 635 L 828.0732421875 635 L 828.0732421875 705 L 508 705 L 508 635 Z Z" stroke-miterlimit="10"/></g><g transform="translate(-402,-342) scale(1,1)"><path fill="none" stroke="#000000" d="M 508 673 L 828.0732421875 673" stroke-miterlimit="10"/></g><g transform="translate(-402,-342) scale(1,1)"><path fill="none" stroke="#000000" d="M 508 683 L 828.0732421875 683" stroke-miterlimit="10"/></g><g transform="translate(-402,-342) scale(1,1)"><g><path fill="none" stroke="none"/><text fill="#000000" stroke="none" font-family="Arial" font-size="13px" font-style="normal" font-weight="normal" text-decoration="none" x="621.0703125" y="652.5">«abstract class»</text></g></g><g transform="translate(-402,-342) scale(1,1)"><g><path fill="none" stroke="none"/><text fill="#000000" stroke="none" font-family="Arial" font-size="13px" font-style="italic" font-weight="bold" text-decoration="none" x="603.017578125" y="667.5">AbstractOTPBuilder[T]</text></g></g><g transform="translate(-402,-342) scale(1,1)"><g><path fill="none" stroke="none"/><text fill="#000000" stroke="none" font-family="Arial" font-size="13px" font-style="normal" font-weight="normal" text-decoration="none" x="513" y="700.5">#generateSeed(implicit seedGenerator: () =&gt; Int): Unit</text></g></g><g transform="translate(-402,-342) scale(1,1)"><rect fill="#C0C0C0" stroke="none" x="659" y="874" width="170.94873046875" height="40" opacity="0.2"/></g><g transform="translate(-402,-342) scale(1,1)"><rect fill="#ffffff" stroke="none" x="652" y="867" width="170.94873046875" height="40"/></g><g transform="translate(-402,-342) scale(1,1)"><path fill="none" stroke="#000000" d="M 652 867 L 822.94873046875 867 L 822.94873046875 907 L 652 907 L 652 867 Z Z" stroke-miterlimit="10"/></g><g transform="translate(-402,-342) scale(1,1)"><g><path fill="none" stroke="none"/><text fill="#000000" stroke="none" font-family="Arial" font-size="13px" font-style="normal" font-weight="normal" text-decoration="none" x="690.508056640625" y="884.5">«abstract class»</text></g></g><g transform="translate(-402,-342) scale(1,1)"><g><path fill="none" stroke="none"/><text fill="#000000" stroke="none" font-family="Arial" font-size="13px" font-style="italic" font-weight="bold" text-decoration="none" x="676.067138671875" y="899.5">AbstractTOTPBuilder</text></g></g><g transform="translate(-402,-342) scale(1,1)"><path fill="none" stroke="#000000" d="M 824 887 L 1011 886" stroke-miterlimit="10"/></g><g transform="translate(-402,-342) scale(1,1)"><path fill="#FFFFFF" stroke="none" d="M 990.7199618346199 894.5276052916822 L 1011 886 L 990.629919961507 877.6897750195685"/></g><g transform="translate(-402,-342) scale(1,1)"><path fill="none" stroke="#000000" d="M 990.7199618346199 894.5276052916822 L 1011 886 L 990.629919961507 877.6897750195685 L 990.7199618346199 894.5276052916822" stroke-miterlimit="10"/></g><g transform="translate(-402,-342) scale(1,1)"><g><path fill="none" stroke="none"/><text fill="#000000" stroke="none" font-family="Arial" font-size="13px" font-style="normal" font-weight="normal" text-decoration="none" x="897.536376953125" y="877.5">+mixin</text></g></g><g transform="translate(-402,-342) scale(1,1)"><path fill="none" stroke="#000000" d="M 765 938 L 748 908" stroke-miterlimit="10"/></g><g transform="translate(-402,-342) scale(1,1)"><path fill="#FFFFFF" stroke="none" d="M 765.3454006184405 921.5328148360126 L 748 908 L 750.6959052606103 929.8341955387831"/></g><g transform="translate(-402,-342) scale(1,1)"><path fill="none" stroke="#000000" d="M 765.3454006184405 921.5328148360126 L 748 908 L 750.6959052606103 929.8341955387831 L 765.3454006184405 921.5328148360126" stroke-miterlimit="10"/></g><g transform="translate(-402,-342) scale(1,1)"><path fill="none" stroke="#000000" d="M 537 938 L 626 828" stroke-miterlimit="10"/></g><g transform="translate(-402,-342) scale(1,1)"><path fill="#FFFFFF" stroke="none" d="M 619.7604962656593 849.0966488606401 L 626 828 L 606.6704211285388 838.505588067879"/></g><g transform="translate(-402,-342) scale(1,1)"><path fill="none" stroke="#000000" d="M 619.7604962656593 849.0966488606401 L 626 828 L 606.6704211285388 838.505588067879 L 619.7604962656593 849.0966488606401" stroke-miterlimit="10"/></g><g transform="translate(-402,-342) scale(1,1)"><path fill="none" stroke="#000000" d="M 722 866 L 695 828" stroke-miterlimit="10"/></g><g transform="translate(-402,-342) scale(1,1)"><path fill="#FFFFFF" stroke="none" d="M 713.6356203252179 839.6924614643079 L 695 828 L 699.909554713405 849.445192293754"/></g><g transform="translate(-402,-342) scale(1,1)"><path fill="none" stroke="#000000" d="M 713.6356203252179 839.6924614643079 L 695 828 L 699.909554713405 849.445192293754 L 713.6356203252179 839.6924614643079" stroke-miterlimit="10"/></g><g transform="translate(-402,-342) scale(1,1)"><path fill="none" stroke="#000000" d="M 1099 562 L 923 561" stroke-miterlimit="10" stroke-dasharray="3"/></g><g transform="translate(-402,-342) scale(1,1)"><path fill="none" stroke="#000000" d="M 933.1864281489494 556.8482917291443 L 923 561 L 933.138593492022 565.2671913483613" stroke-miterlimit="10"/></g><g transform="translate(-402,-342) scale(1,1)"><g><path fill="none" stroke="none"/><text fill="#000000" stroke="none" font-family="Arial" font-size="13px" font-style="normal" font-weight="normal" text-decoration="none" x="995.5" y="582.5">+use</text></g></g><g transform="translate(-402,-342) scale(1,1)"><rect fill="#C0C0C0" stroke="none" x="1027" y="650" width="320" height="70" opacity="0.2"/></g><g transform="translate(-402,-342) scale(1,1)"><rect fill="#ffffff" stroke="none" x="1020" y="643" width="320" height="70"/></g><g transform="translate(-402,-342) scale(1,1)"><path fill="none" stroke="#000000" d="M 1020 643 L 1340 643 L 1340 713 L 1020 713 L 1020 643 Z Z" stroke-miterlimit="10"/></g><g transform="translate(-402,-342) scale(1,1)"><path fill="none" stroke="#000000" d="M 1020 681 L 1340 681" stroke-miterlimit="10"/></g><g transform="translate(-402,-342) scale(1,1)"><path fill="none" stroke="#000000" d="M 1020 691 L 1340 691" stroke-miterlimit="10"/></g><g transform="translate(-402,-342) scale(1,1)"><g><path fill="none" stroke="none"/><text fill="#000000" stroke="none" font-family="Arial" font-size="13px" font-style="normal" font-weight="normal" text-decoration="none" x="1161.9345703125" y="660.5">«trait»</text></g></g><g transform="translate(-402,-342) scale(1,1)"><g><path fill="none" stroke="none"/><text fill="#000000" stroke="none" font-family="Arial" font-size="13px" font-style="normal" font-weight="bold" text-decoration="none" x="1140.98095703125" y="675.5">SecretBuilder</text></g></g><g transform="translate(-402,-342) scale(1,1)"><g><path fill="none" stroke="none"/><text fill="#000000" stroke="none" font-family="Arial" font-size="13px" font-style="normal" font-weight="normal" text-decoration="none" x="1025" y="708.5">+secret(secret: OTPBuilder.SecretValue): this.type</text></g></g><g transform="translate(-402,-342) scale(1,1)"><path fill="none" stroke="#000000" d="M 829 673 L 1019 675" stroke-miterlimit="10"/></g><g transform="translate(-402,-342) scale(1,1)"><path fill="#FFFFFF" stroke="none" d="M 998.587159732262 683.2046299248542 L 1019 675 L 998.7643927664142 666.367491680395"/></g><g transform="translate(-402,-342) scale(1,1)"><path fill="none" stroke="#000000" d="M 998.587159732262 683.2046299248542 L 1019 675 L 998.7643927664142 666.367491680395 L 998.587159732262 683.2046299248542" stroke-miterlimit="10"/></g><g transform="translate(-402,-342) scale(1,1)"><g><path fill="none" stroke="none"/><text fill="#000000" stroke="none" font-family="Arial" font-size="13px" font-style="normal" font-weight="normal" text-decoration="none" x="904.536376953125" y="665.5">+mixin</text></g></g><g transform="translate(-402,-342) scale(1,1)"><rect fill="#C0C0C0" stroke="none" x="527" y="359" width="305" height="85" opacity="0.2"/></g><g transform="translate(-402,-342) scale(1,1)"><rect fill="#ffffff" stroke="none" x="520" y="352" width="305" height="85"/></g><g transform="translate(-402,-342) scale(1,1)"><path fill="none" stroke="#000000" d="M 520 352 L 825 352 L 825 437 L 520 437 L 520 352 Z Z" stroke-miterlimit="10"/></g><g transform="translate(-402,-342) scale(1,1)"><path fill="none" stroke="#000000" d="M 520 390 L 825 390" stroke-miterlimit="10"/></g><g transform="translate(-402,-342) scale(1,1)"><path fill="none" stroke="#000000" d="M 520 400 L 825 400" stroke-miterlimit="10"/></g><g transform="translate(-402,-342) scale(1,1)"><g><path fill="none" stroke="none"/><text fill="#000000" stroke="none" font-family="Arial" font-size="13px" font-style="normal" font-weight="normal" text-decoration="none" x="654.4345703125" y="369.5">«trait»</text></g></g><g transform="translate(-402,-342) scale(1,1)"><g><path fill="none" stroke="none"/><text fill="#000000" stroke="none" font-family="Arial" font-size="13px" font-style="normal" font-weight="bold" text-decoration="none" x="640.523681640625" y="384.5">Builder[+S]</text></g></g><g transform="translate(-402,-342) scale(1,1)"><g><path fill="none" stroke="none"/><text fill="#000000" stroke="none" font-family="Arial" font-size="13px" font-style="normal" font-weight="normal" text-decoration="none" x="525" y="417.5">+build(): S</text></g></g><g transform="translate(-402,-342) scale(1,1)"><g><path fill="none" stroke="none"/><text fill="#000000" stroke="none" font-family="Arial" font-size="13px" font-style="normal" font-weight="normal" text-decoration="none" x="525" y="432.5">#builderMethod[T](f: T =&gt; Unit)(value: T): this.type</text></g></g><g transform="translate(-402,-342) scale(1,1)"><path fill="none" stroke="#000000" d="M 674 522 L 673 438" stroke-miterlimit="10"/></g><g transform="translate(-402,-342) scale(1,1)"><path fill="#FFFFFF" stroke="none" d="M 681.6603902929767 458.22369006816797 L 673 438 L 664.8235123160694 458.4241290917026"/></g><g transform="translate(-402,-342) scale(1,1)"><path fill="none" stroke="#000000" d="M 681.6603902929767 458.22369006816797 L 673 438 L 664.8235123160694 458.4241290917026 L 681.6603902929767 458.22369006816797" stroke-miterlimit="10"/></g></g></svg>