<svg version="1.1" xmlns="http://www.w3.org/2000/svg" xmlns:xlink="http://www.w3.org/1999/xlink" width="540" height="204"><defs/><g><g transform="translate(-614,-605) scale(1,1)"><rect fill="#C0C0C0" stroke="none" x="631" y="622" width="208" height="15" opacity="0.2"/></g><g transform="translate(-614,-605) scale(1,1)"><rect fill="#C0C0C0" stroke="none" x="631" y="636" width="520" height="170" opacity="0.2"/></g><g transform="translate(-614,-605) scale(1,1)"><rect fill="#ffffff" stroke="none" x="624" y="630" width="520" height="169"/></g><g transform="translate(-614,-605) scale(1,1)"><path fill="none" stroke="#000000" d="M 624 630 L 1144 630 L 1144 799 L 624 799 L 624 630 Z Z" stroke-miterlimit="10"/></g><g transform="translate(-614,-605) scale(1,1)"><rect fill="#ffffff" stroke="none" x="624" y="615" width="208" height="15"/></g><g transform="translate(-614,-605) scale(1,1)"><path fill="none" stroke="#000000" d="M 624 615 L 832 615 L 832 630 L 624 630 L 624 615 Z Z" stroke-miterlimit="10"/></g><g transform="translate(-614,-605) scale(1,1)"><rect fill="#ffffff" stroke="none" x="624" y="629" width="520" height="170"/></g><g transform="translate(-614,-605) scale(1,1)"><path fill="none" stroke="#000000" d="M 624 629 L 1144 629 L 1144 799 L 624 799 L 624 629 Z Z" stroke-miterlimit="10"/></g><g transform="translate(-614,-605) scale(1,1)"><g><path fill="none" stroke="none"/><text fill="#000000" stroke="none" font-family="Arial" font-size="13px" font-style="normal" font-weight="bold" text-decoration="none" x="854.734130859375" y="649.5">Generator</text></g></g><g transform="translate(-614,-605) scale(1,1)"><rect fill="#C0C0C0" stroke="none" x="655" y="678" width="463.14306640625" height="80" opacity="0.2"/></g><g transform="translate(-614,-605) scale(1,1)"><rect fill="#ffffff" stroke="none" x="648" y="671" width="463.14306640625" height="80"/></g><g transform="translate(-614,-605) scale(1,1)"><path fill="none" stroke="#000000" d="M 648 671 L 1111.14306640625 671 L 1111.14306640625 751 L 648 751 L 648 671 Z Z" stroke-miterlimit="10"/></g><g transform="translate(-614,-605) scale(1,1)"><path fill="none" stroke="#000000" d="M 648 709 L 1111.14306640625 709" stroke-miterlimit="10"/></g><g transform="translate(-614,-605) scale(1,1)"><path fill="none" stroke="#000000" d="M 648 719 L 1111.14306640625 719" stroke-miterlimit="10"/></g><g transform="translate(-614,-605) scale(1,1)"><g><path fill="none" stroke="none"/><text fill="#000000" stroke="none" font-family="Arial" font-size="13px" font-style="normal" font-weight="normal" text-decoration="none" x="854.99658203125" y="688.5">«object»</text></g></g><g transform="translate(-614,-605) scale(1,1)"><g><path fill="none" stroke="none"/><text fill="#000000" stroke="none" font-family="Arial" font-size="13px" font-style="normal" font-weight="bold" text-decoration="none" x="836.94384765625" y="703.5">OTPGenerator</text></g></g><g transform="translate(-614,-605) scale(1,1)"><g><path fill="none" stroke="none"/><text fill="#000000" stroke="none" font-family="Arial" font-size="13px" font-style="normal" font-weight="normal" text-decoration="none" x="653" y="736.5">+apply(hashFunction: HashFunction, secret: String, digits: Int, seed: Int): String</text></g></g></g></svg>