<svg version="1.1" xmlns="http://www.w3.org/2000/svg" xmlns:xlink="http://www.w3.org/1999/xlink" width="320.18994140625" height="151"><defs/><g><g transform="translate(-542,-294) scale(1,1)"><rect fill="#C0C0C0" stroke="none" x="591" y="311" width="88.94472656250002" height="15" opacity="0.2"/></g><g transform="translate(-542,-294) scale(1,1)"><rect fill="#C0C0C0" stroke="none" x="591" y="325" width="222.36181640625" height="27" opacity="0.2"/></g><g transform="translate(-542,-294) scale(1,1)"><rect fill="#ffffff" stroke="none" x="584" y="319" width="222.36181640625" height="26"/></g><g transform="translate(-542,-294) scale(1,1)"><path fill="none" stroke="#000000" d="M 584 319 L 806.36181640625 319 L 806.36181640625 345 L 584 345 L 584 319 Z Z" stroke-miterlimit="10"/></g><g transform="translate(-542,-294) scale(1,1)"><rect fill="#ffffff" stroke="none" x="584" y="304" width="88.94472656250002" height="15"/></g><g transform="translate(-542,-294) scale(1,1)"><path fill="none" stroke="#000000" d="M 584 304 L 672.9447265625 304 L 672.9447265625 319 L 584 319 L 584 304 Z Z" stroke-miterlimit="10"/></g><g transform="translate(-542,-294) scale(1,1)"><rect fill="#ffffff" stroke="none" x="584" y="318" width="222.36181640625" height="27"/></g><g transform="translate(-542,-294) scale(1,1)"><path fill="none" stroke="#000000" d="M 584 318 L 806.36181640625 318 L 806.36181640625 345 L 584 345 L 584 318 Z Z" stroke-miterlimit="10"/></g><g transform="translate(-542,-294) scale(1,1)"><g><path fill="none" stroke="none"/><text fill="#000000" stroke="none" font-family="Arial" font-size="15px" font-style="normal" font-weight="bold" text-decoration="none" x="607.63818359375" y="340.5">it.unibo.authsim.library.otp</text></g></g><g transform="translate(-542,-294) scale(1,1)"><rect fill="#C0C0C0" stroke="none" x="671" y="403" width="27.5966796875" height="15" opacity="0.2"/></g><g transform="translate(-542,-294) scale(1,1)"><rect fill="#C0C0C0" stroke="none" x="671" y="417" width="68.99169921875" height="25" opacity="0.2"/></g><g transform="translate(-542,-294) scale(1,1)"><rect fill="#ffffff" stroke="none" x="664" y="411" width="68.99169921875" height="24"/></g><g transform="translate(-542,-294) scale(1,1)"><path fill="none" stroke="#000000" d="M 664 411 L 732.99169921875 411 L 732.99169921875 435 L 664 435 L 664 411 Z Z" stroke-miterlimit="10"/></g><g transform="translate(-542,-294) scale(1,1)"><rect fill="#ffffff" stroke="none" x="664" y="396" width="27.5966796875" height="15"/></g><g transform="translate(-542,-294) scale(1,1)"><path fill="none" stroke="#000000" d="M 664 396 L 691.5966796875 396 L 691.5966796875 411 L 664 411 L 664 396 Z Z" stroke-miterlimit="10"/></g><g transform="translate(-542,-294) scale(1,1)"><rect fill="#ffffff" stroke="none" x="664" y="410" width="68.99169921875" height="25"/></g><g transform="translate(-542,-294) scale(1,1)"><path fill="none" stroke="#000000" d="M 664 410 L 732.99169921875 410 L 732.99169921875 435 L 664 435 L 664 410 Z Z" stroke-miterlimit="10"/></g><g transform="translate(-542,-294) scale(1,1)"><g><path fill="none" stroke="none"/><text fill="#000000" stroke="none" font-family="Arial" font-size="13px" font-style="normal" font-weight="bold" text-decoration="none" x="675.733154296875" y="430.5">builders</text></g></g><g transform="translate(-542,-294) scale(1,1)"><rect fill="#C0C0C0" stroke="none" x="783" y="403" width="30.475976562500023" height="15" opacity="0.2"/></g><g transform="translate(-542,-294) scale(1,1)"><rect fill="#C0C0C0" stroke="none" x="783" y="417" width="76.18994140625" height="25" opacity="0.2"/></g><g transform="translate(-542,-294) scale(1,1)"><rect fill="#ffffff" stroke="none" x="776" y="411" width="76.18994140625" height="24"/></g><g transform="translate(-542,-294) scale(1,1)"><path fill="none" stroke="#000000" d="M 776 411 L 852.18994140625 411 L 852.18994140625 435 L 776 435 L 776 411 Z Z" stroke-miterlimit="10"/></g><g transform="translate(-542,-294) scale(1,1)"><rect fill="#ffffff" stroke="none" x="776" y="396" width="30.475976562500023" height="15"/></g><g transform="translate(-542,-294) scale(1,1)"><path fill="none" stroke="#000000" d="M 776 396 L 806.4759765625 396 L 806.4759765625 411 L 776 411 L 776 396 Z Z" stroke-miterlimit="10"/></g><g transform="translate(-542,-294) scale(1,1)"><rect fill="#ffffff" stroke="none" x="776" y="410" width="76.18994140625" height="25"/></g><g transform="translate(-542,-294) scale(1,1)"><path fill="none" stroke="#000000" d="M 776 410 L 852.18994140625 410 L 852.18994140625 435 L 776 435 L 776 410 Z Z" stroke-miterlimit="10"/></g><g transform="translate(-542,-294) scale(1,1)"><g><path fill="none" stroke="none"/><text fill="#000000" stroke="none" font-family="Arial" font-size="13px" font-style="normal" font-weight="bold" text-decoration="none" x="786.27001953125" y="430.5">generator</text></g></g><g transform="translate(-542,-294) scale(1,1)"><rect fill="#C0C0C0" stroke="none" x="559" y="403" width="27.5966796875" height="15" opacity="0.2"/></g><g transform="translate(-542,-294) scale(1,1)"><rect fill="#C0C0C0" stroke="none" x="559" y="417" width="68.99169921875" height="25" opacity="0.2"/></g><g transform="translate(-542,-294) scale(1,1)"><rect fill="#ffffff" stroke="none" x="552" y="411" width="68.99169921875" height="24"/></g><g transform="translate(-542,-294) scale(1,1)"><path fill="none" stroke="#000000" d="M 552 411 L 620.99169921875 411 L 620.99169921875 435 L 552 435 L 552 411 Z Z" stroke-miterlimit="10"/></g><g transform="translate(-542,-294) scale(1,1)"><rect fill="#ffffff" stroke="none" x="552" y="396" width="27.5966796875" height="15"/></g><g transform="translate(-542,-294) scale(1,1)"><path fill="none" stroke="#000000" d="M 552 396 L 579.5966796875 396 L 579.5966796875 411 L 552 411 L 552 396 Z Z" stroke-miterlimit="10"/></g><g transform="translate(-542,-294) scale(1,1)"><rect fill="#ffffff" stroke="none" x="552" y="410" width="68.99169921875" height="25"/></g><g transform="translate(-542,-294) scale(1,1)"><path fill="none" stroke="#000000" d="M 552 410 L 620.99169921875 410 L 620.99169921875 435 L 552 435 L 552 410 Z Z" stroke-miterlimit="10"/></g><g transform="translate(-542,-294) scale(1,1)"><g><path fill="none" stroke="none"/><text fill="#000000" stroke="none" font-family="Arial" font-size="13px" font-style="normal" font-weight="bold" text-decoration="none" x="568.792236328125" y="430.5">model</text></g></g><g transform="translate(-542,-294) scale(1,1)"><path fill="none" stroke="#000000" d="M 697 395 L 696 346" stroke-miterlimit="10"/></g><g transform="translate(-542,-294) scale(1,1)"><path fill="#FFFFFF" stroke="none" d="M 689.1428274026376 352.99854272924415 C 689.1428274026376 349.1325491292441 692.2768338026376 345.99854272924415 696.1428274026376 345.99854272924415 C 700.0088210026377 345.99854272924415 703.1428274026376 349.1325491292441 703.1428274026376 352.99854272924415 C 703.1428274026376 356.8645363292442 700.0088210026377 359.99854272924415 696.1428274026376 359.99854272924415 C 692.2768338026376 359.99854272924415 689.1428274026376 356.8645363292442 689.1428274026376 352.99854272924415 Z"/></g><g transform="translate(-542,-294) scale(1,1)"><path fill="none" stroke="#000000" d="M 689.1428274026376 352.99854272924415 C 689.1428274026376 349.1325491292441 692.2768338026376 345.99854272924415 696.1428274026376 345.99854272924415 C 700.0088210026377 345.99854272924415 703.1428274026376 349.1325491292441 703.1428274026376 352.99854272924415 C 703.1428274026376 356.8645363292442 700.0088210026377 359.99854272924415 696.1428274026376 359.99854272924415 C 692.2768338026376 359.99854272924415 689.1428274026376 356.8645363292442 689.1428274026376 352.99854272924415 Z" stroke-miterlimit="10"/></g><g transform="translate(-542,-294) scale(1,1)"><path fill="none" stroke="#000000" d="M 696.2856548052753 359.99708545848824 L 696 346" stroke-miterlimit="10"/></g><g transform="translate(-542,-294) scale(1,1)"><path fill="none" stroke="#000000" d="M 703.1413701318818 352.8557153266065 L 689.1442846733935 353.1413701318818" stroke-miterlimit="10"/></g><g transform="translate(-542,-294) scale(1,1)"><path fill="none" stroke="#000000" d="M 610 395 L 669 346" stroke-miterlimit="10"/></g><g transform="translate(-542,-294) scale(1,1)"><path fill="#FFFFFF" stroke="none" d="M 656.6149772601971 350.47230702119225 C 656.6149772601971 346.6063134211922 659.748983660197 343.47230702119225 663.6149772601971 343.47230702119225 C 667.4809708601971 343.47230702119225 670.6149772601971 346.6063134211922 670.6149772601971 350.47230702119225 C 670.6149772601971 354.3383006211923 667.4809708601971 357.47230702119225 663.6149772601971 357.47230702119225 C 659.748983660197 357.47230702119225 656.6149772601971 354.3383006211923 656.6149772601971 350.47230702119225 Z"/></g><g transform="translate(-542,-294) scale(1,1)"><path fill="none" stroke="#000000" d="M 656.6149772601971 350.47230702119225 C 656.6149772601971 346.6063134211922 659.748983660197 343.47230702119225 663.6149772601971 343.47230702119225 C 667.4809708601971 343.47230702119225 670.6149772601971 346.6063134211922 670.6149772601971 350.47230702119225 C 670.6149772601971 354.3383006211923 667.4809708601971 357.47230702119225 663.6149772601971 357.47230702119225 C 659.748983660197 357.47230702119225 656.6149772601971 354.3383006211923 656.6149772601971 350.47230702119225 Z" stroke-miterlimit="10"/></g><g transform="translate(-542,-294) scale(1,1)"><path fill="none" stroke="#000000" d="M 658.2299545203941 354.9446140423845 L 669 346" stroke-miterlimit="10"/></g><g transform="translate(-542,-294) scale(1,1)"><path fill="none" stroke="#000000" d="M 668.0872842813893 355.8573297609952 L 659.1426702390048 345.0872842813893" stroke-miterlimit="10"/></g><g transform="translate(-542,-294) scale(1,1)"><path fill="none" stroke="#000000" d="M 788 395 L 724 346" stroke-miterlimit="10"/></g><g transform="translate(-542,-294) scale(1,1)"><path fill="#FFFFFF" stroke="none" d="M 722.5580388819832 350.2553735190184 C 722.5580388819832 346.3893799190184 725.6920452819832 343.2553735190184 729.5580388819832 343.2553735190184 C 733.4240324819832 343.2553735190184 736.5580388819832 346.3893799190184 736.5580388819832 350.2553735190184 C 736.5580388819832 354.12136711901843 733.4240324819832 357.2553735190184 729.5580388819832 357.2553735190184 C 725.6920452819832 357.2553735190184 722.5580388819832 354.12136711901843 722.5580388819832 350.2553735190184 Z"/></g><g transform="translate(-542,-294) scale(1,1)"><path fill="none" stroke="#000000" d="M 722.5580388819832 350.2553735190184 C 722.5580388819832 346.3893799190184 725.6920452819832 343.2553735190184 729.5580388819832 343.2553735190184 C 733.4240324819832 343.2553735190184 736.5580388819832 346.3893799190184 736.5580388819832 350.2553735190184 C 736.5580388819832 354.12136711901843 733.4240324819832 357.2553735190184 729.5580388819832 357.2553735190184 C 725.6920452819832 357.2553735190184 722.5580388819832 354.12136711901843 722.5580388819832 350.2553735190184 Z" stroke-miterlimit="10"/></g><g transform="translate(-542,-294) scale(1,1)"><path fill="none" stroke="#000000" d="M 735.1160777639664 354.51074703803675 L 724 346" stroke-miterlimit="10"/></g><g transform="translate(-542,-294) scale(1,1)"><path fill="none" stroke="#000000" d="M 733.8134124010015 344.6973346370352 L 725.3026653629648 355.8134124010016" stroke-miterlimit="10"/></g></g></svg>