<svg version="1.1" xmlns="http://www.w3.org/2000/svg" xmlns:xlink="http://www.w3.org/1999/xlink" width="1268" height="721"><defs/><g><g transform="translate(-228,-198) scale(1,1)"><rect fill="#C0C0C0" stroke="none" x="245" y="316" width="499.20000000000005" height="15" opacity="0.2"/></g><g transform="translate(-228,-198) scale(1,1)"><rect fill="#C0C0C0" stroke="none" x="245" y="330" width="1248" height="586" opacity="0.2"/></g><g transform="translate(-228,-198) scale(1,1)"><rect fill="#ffffff" stroke="none" x="238" y="324" width="1248" height="585"/></g><g transform="translate(-228,-198) scale(1,1)"><path fill="none" stroke="#000000" d="M 238 324 L 1486 324 L 1486 909 L 238 909 L 238 324 Z Z" stroke-miterlimit="10"/></g><g transform="translate(-228,-198) scale(1,1)"><rect fill="#ffffff" stroke="none" x="238" y="309" width="499.20000000000005" height="15"/></g><g transform="translate(-228,-198) scale(1,1)"><path fill="none" stroke="#000000" d="M 238 309 L 737.2 309 L 737.2 324 L 238 324 L 238 309 Z Z" stroke-miterlimit="10"/></g><g transform="translate(-228,-198) scale(1,1)"><rect fill="#ffffff" stroke="none" x="238" y="323" width="1248" height="586"/></g><g transform="translate(-228,-198) scale(1,1)"><path fill="none" stroke="#000000" d="M 238 323 L 1486 323 L 1486 909 L 238 909 L 238 323 Z Z" stroke-miterlimit="10"/></g><g transform="translate(-228,-198) scale(1,1)"><g><path fill="none" stroke="none"/><text fill="#000000" stroke="none" font-family="Arial" font-size="13px" font-style="normal" font-weight="bold" text-decoration="none" x="838.516845703125" y="343.5">Builders</text></g></g><g transform="translate(-228,-198) scale(1,1)"><rect fill="#C0C0C0" stroke="none" x="579" y="436" width="494" height="72" opacity="0.2"/></g><g transform="translate(-228,-198) scale(1,1)"><rect fill="#ffffff" stroke="none" x="572" y="429" width="494" height="72"/></g><g transform="translate(-228,-198) scale(1,1)"><path fill="none" stroke="#000000" d="M 572 429 L 1066 429 L 1066 501 L 572 501 L 572 429 Z Z" stroke-miterlimit="10"/></g><g transform="translate(-228,-198) scale(1,1)"><path fill="none" stroke="#000000" d="M 572 467 L 1066 467" stroke-miterlimit="10"/></g><g transform="translate(-228,-198) scale(1,1)"><path fill="none" stroke="#000000" d="M 572 477 L 1066 477" stroke-miterlimit="10"/></g><g transform="translate(-228,-198) scale(1,1)"><g><path fill="none" stroke="none"/><text fill="#000000" stroke="none" font-family="Arial" font-size="13px" font-style="normal" font-weight="normal" text-decoration="none" x="800.9345703125" y="446.5">«trait»</text></g></g><g transform="translate(-228,-198) scale(1,1)"><g><path fill="none" stroke="none"/><text fill="#000000" stroke="none" font-family="Arial" font-size="13px" font-style="normal" font-weight="bold" text-decoration="none" x="777.82275390625" y="461.5">OTPBuilder[T]</text></g></g><g transform="translate(-228,-198) scale(1,1)"><g><path fill="none" stroke="none"/><text fill="#000000" stroke="none" font-family="Arial" font-size="13px" font-style="normal" font-weight="normal" text-decoration="none" x="577" y="494.5">+withPolicy(policy: OTPPolicy)(implicit generateLength: LengthGenerator): this.type</text></g></g><g transform="translate(-228,-198) scale(1,1)"><rect fill="#C0C0C0" stroke="none" x="277" y="356" width="214.21337890625" height="64" opacity="0.2"/></g><g transform="translate(-228,-198) scale(1,1)"><rect fill="#ffffff" stroke="none" x="270" y="349" width="214.21337890625" height="64"/></g><g transform="translate(-228,-198) scale(1,1)"><path fill="none" stroke="#000000" d="M 270 349 L 484.21337890625 349 L 484.21337890625 413 L 270 413 L 270 349 Z Z" stroke-miterlimit="10"/></g><g transform="translate(-228,-198) scale(1,1)"><path fill="none" stroke="#000000" d="M 270 387 L 484.21337890625 387" stroke-miterlimit="10"/></g><g transform="translate(-228,-198) scale(1,1)"><g><path fill="none" stroke="none"/><text fill="#000000" stroke="none" font-family="Arial" font-size="13px" font-style="normal" font-weight="normal" text-decoration="none" x="352.53173828125" y="366.5">«object»</text></g></g><g transform="translate(-228,-198) scale(1,1)"><g><path fill="none" stroke="none"/><text fill="#000000" stroke="none" font-family="Arial" font-size="13px" font-style="normal" font-weight="bold" text-decoration="none" x="343.51171875" y="381.5">OTPBuilder</text></g></g><g transform="translate(-228,-198) scale(1,1)"><g><path fill="none" stroke="none"/><text fill="#000000" stroke="none" font-family="Arial" font-size="13px" font-style="normal" font-weight="normal" text-decoration="none" x="275" y="404.5">+type SecretValue = (String, String)</text></g></g><g transform="translate(-228,-198) scale(1,1)"><rect fill="#C0C0C0" stroke="none" x="893" y="851" width="88.447265625" height="40" opacity="0.2"/></g><g transform="translate(-228,-198) scale(1,1)"><rect fill="#ffffff" stroke="none" x="886" y="844" width="88.447265625" height="40"/></g><g transform="translate(-228,-198) scale(1,1)"><path fill="none" stroke="#000000" d="M 886 844 L 974.447265625 844 L 974.447265625 884 L 886 884 L 886 844 Z Z" stroke-miterlimit="10"/></g><g transform="translate(-228,-198) scale(1,1)"><g><path fill="none" stroke="none"/><text fill="#000000" stroke="none" font-family="Arial" font-size="13px" font-style="normal" font-weight="normal" text-decoration="none" x="892.648681640625" y="861.5">«case class»</text></g></g><g transform="translate(-228,-198) scale(1,1)"><g><path fill="none" stroke="none"/><text fill="#000000" stroke="none" font-family="Arial" font-size="13px" font-style="normal" font-weight="bold" text-decoration="none" x="892.658203125" y="876.5">TOTPBuilder</text></g></g><g transform="translate(-228,-198) scale(1,1)"><rect fill="#C0C0C0" stroke="none" x="1149" y="739" width="223" height="70" opacity="0.2"/></g><g transform="translate(-228,-198) scale(1,1)"><rect fill="#ffffff" stroke="none" x="1142" y="732" width="223" height="70"/></g><g transform="translate(-228,-198) scale(1,1)"><path fill="none" stroke="#000000" d="M 1142 732 L 1365 732 L 1365 802 L 1142 802 L 1142 732 Z Z" stroke-miterlimit="10"/></g><g transform="translate(-228,-198) scale(1,1)"><path fill="none" stroke="#000000" d="M 1142 770 L 1365 770" stroke-miterlimit="10"/></g><g transform="translate(-228,-198) scale(1,1)"><path fill="none" stroke="#000000" d="M 1142 780 L 1365 780" stroke-miterlimit="10"/></g><g transform="translate(-228,-198) scale(1,1)"><g><path fill="none" stroke="none"/><text fill="#000000" stroke="none" font-family="Arial" font-size="13px" font-style="normal" font-weight="normal" text-decoration="none" x="1235.4345703125" y="749.5">«trait»</text></g></g><g transform="translate(-228,-198) scale(1,1)"><g><path fill="none" stroke="none"/><text fill="#000000" stroke="none" font-family="Arial" font-size="13px" font-style="normal" font-weight="bold" text-decoration="none" x="1205.4609375" y="764.5">TimeOTPBuilder</text></g></g><g transform="translate(-228,-198) scale(1,1)"><g><path fill="none" stroke="none"/><text fill="#000000" stroke="none" font-family="Arial" font-size="13px" font-style="normal" font-weight="normal" text-decoration="none" x="1147" y="797.5">+timeout(timeout: Duration): this.type</text></g></g><g transform="translate(-228,-198) scale(1,1)"><rect fill="#C0C0C0" stroke="none" x="685" y="851" width="89.89453125" height="40" opacity="0.2"/></g><g transform="translate(-228,-198) scale(1,1)"><rect fill="#ffffff" stroke="none" x="678" y="844" width="89.89453125" height="40"/></g><g transform="translate(-228,-198) scale(1,1)"><path fill="none" stroke="#000000" d="M 678 844 L 767.89453125 844 L 767.89453125 884 L 678 884 L 678 844 Z Z" stroke-miterlimit="10"/></g><g transform="translate(-228,-198) scale(1,1)"><g><path fill="none" stroke="none"/><text fill="#000000" stroke="none" font-family="Arial" font-size="13px" font-style="normal" font-weight="normal" text-decoration="none" x="685.372314453125" y="861.5">«case class»</text></g></g><g transform="translate(-228,-198) scale(1,1)"><g><path fill="none" stroke="none"/><text fill="#000000" stroke="none" font-family="Arial" font-size="13px" font-style="normal" font-weight="bold" text-decoration="none" x="684.658203125" y="876.5">HOTPBuilder</text></g></g><g transform="translate(-228,-198) scale(1,1)"><rect fill="#C0C0C0" stroke="none" x="285" y="638" width="324.42138671875" height="70" opacity="0.2"/></g><g transform="translate(-228,-198) scale(1,1)"><rect fill="#ffffff" stroke="none" x="278" y="631" width="324.42138671875" height="70"/></g><g transform="translate(-228,-198) scale(1,1)"><path fill="none" stroke="#000000" d="M 278 631 L 602.42138671875 631 L 602.42138671875 701 L 278 701 L 278 631 Z Z" stroke-miterlimit="10"/></g><g transform="translate(-228,-198) scale(1,1)"><path fill="none" stroke="#000000" d="M 278 669 L 602.42138671875 669" stroke-miterlimit="10"/></g><g transform="translate(-228,-198) scale(1,1)"><path fill="none" stroke="#000000" d="M 278 679 L 602.42138671875 679" stroke-miterlimit="10"/></g><g transform="translate(-228,-198) scale(1,1)"><g><path fill="none" stroke="none"/><text fill="#000000" stroke="none" font-family="Arial" font-size="13px" font-style="normal" font-weight="normal" text-decoration="none" x="422.145263671875" y="648.5">«trait»</text></g></g><g transform="translate(-228,-198) scale(1,1)"><g><path fill="none" stroke="none"/><text fill="#000000" stroke="none" font-family="Arial" font-size="13px" font-style="normal" font-weight="bold" text-decoration="none" x="389.64208984375" y="663.5">HmacOTPBuilder</text></g></g><g transform="translate(-228,-198) scale(1,1)"><g><path fill="none" stroke="none"/><text fill="#000000" stroke="none" font-family="Arial" font-size="13px" font-style="normal" font-weight="normal" text-decoration="none" x="283" y="696.5">+hashFunction(hashFunction: HashFunction): this.type</text></g></g><g transform="translate(-228,-198) scale(1,1)"><rect fill="#C0C0C0" stroke="none" x="711" y="660" width="220.13427734375" height="44" opacity="0.2"/></g><g transform="translate(-228,-198) scale(1,1)"><rect fill="#C0C0C0" stroke="none" x="872.26611328125" y="642" width="67.8681640625" height="22" opacity="0.2"/></g><g transform="translate(-228,-198) scale(1,1)"><rect fill="#ffffff" stroke="none" x="704" y="653" width="220.13427734375" height="44"/></g><g transform="translate(-228,-198) scale(1,1)"><path fill="none" stroke="#000000" d="M 704 653 L 924.13427734375 653 L 924.13427734375 697 L 704 697 L 704 653 Z Z" stroke-miterlimit="10"/></g><g transform="translate(-228,-198) scale(1,1)"><g><path fill="none" stroke="none"/><text fill="#000000" stroke="none" font-family="Arial" font-size="13px" font-style="normal" font-weight="normal" text-decoration="none" x="767.100830078125" y="670.5">«abstract class»</text></g></g><g transform="translate(-228,-198) scale(1,1)"><g><path fill="none" stroke="none"/><text fill="#000000" stroke="none" font-family="Arial" font-size="13px" font-style="italic" font-weight="bold" text-decoration="none" x="751.936279296875" y="685.5">AbstractHOTPBuilder</text></g></g><g transform="translate(-228,-198) scale(1,1)"><rect fill="#ffffff" stroke="none" x="865.26611328125" y="635" width="67.8681640625" height="22"/></g><g transform="translate(-228,-198) scale(1,1)"><path fill="none" stroke="#000000" d="M 865.26611328125 635 L 933.13427734375 635 L 933.13427734375 657 L 865.26611328125 657 L 865.26611328125 635 Z Z" stroke-miterlimit="10" stroke-dasharray="3"/></g><g transform="translate(-228,-198) scale(1,1)"><g><path fill="none" stroke="none"/><text fill="#000000" stroke="none" font-family="Arial" font-size="13px" font-style="normal" font-weight="normal" text-decoration="none" x="870.26611328125" y="652.5">T = HOTP</text></g></g><g transform="translate(-228,-198) scale(1,1)"><path fill="none" stroke="#000000" d="M 819 546 L 819 502" stroke-miterlimit="10"/></g><g transform="translate(-228,-198) scale(1,1)"><path fill="#FFFFFF" stroke="none" d="M 827.419035512032 522.3253497152483 L 819 502 L 810.580964487968 522.3253497152483"/></g><g transform="translate(-228,-198) scale(1,1)"><path fill="none" stroke="#000000" d="M 827.419035512032 522.3253497152483 L 819 502 L 810.580964487968 522.3253497152483 L 827.419035512032 522.3253497152483" stroke-miterlimit="10"/></g><g transform="translate(-228,-198) scale(1,1)"><path fill="none" stroke="#000000" d="M 819 634 L 819 588" stroke-miterlimit="10"/></g><g transform="translate(-228,-198) scale(1,1)"><path fill="#FFFFFF" stroke="none" d="M 827.419035512032 608.3253497152483 L 819 588 L 810.580964487968 608.3253497152483"/></g><g transform="translate(-228,-198) scale(1,1)"><path fill="none" stroke="#000000" d="M 827.419035512032 608.3253497152483 L 819 588 L 810.580964487968 608.3253497152483 L 827.419035512032 608.3253497152483" stroke-miterlimit="10"/></g><g transform="translate(-228,-198) scale(1,1)"><path fill="none" stroke="#000000" d="M 703 666 L 603 666" stroke-miterlimit="10"/></g><g transform="translate(-228,-198) scale(1,1)"><path fill="#FFFFFF" stroke="none" d="M 623.3253497152483 657.580964487968 L 603 666 L 623.3253497152483 674.419035512032"/></g><g transform="translate(-228,-198) scale(1,1)"><path fill="none" stroke="#000000" d="M 623.3253497152483 657.580964487968 L 603 666 L 623.3253497152483 674.419035512032 L 623.3253497152483 657.580964487968" stroke-miterlimit="10"/></g><g transform="translate(-228,-198) scale(1,1)"><g><path fill="none" stroke="none"/><text fill="#000000" stroke="none" font-family="Arial" font-size="13px" font-style="normal" font-weight="normal" text-decoration="none" x="632.536376953125" y="687.5">+mixin</text></g></g><g transform="translate(-228,-198) scale(1,1)"><rect fill="#C0C0C0" stroke="none" x="738" y="554" width="176" height="40" opacity="0.2"/></g><g transform="translate(-228,-198) scale(1,1)"><rect fill="#ffffff" stroke="none" x="731" y="547" width="176" height="40"/></g><g transform="translate(-228,-198) scale(1,1)"><path fill="none" stroke="#000000" d="M 731 547 L 907 547 L 907 587 L 731 587 L 731 547 Z Z" stroke-miterlimit="10"/></g><g transform="translate(-228,-198) scale(1,1)"><g><path fill="none" stroke="none"/><text fill="#000000" stroke="none" font-family="Arial" font-size="13px" font-style="normal" font-weight="normal" text-decoration="none" x="772.03369140625" y="564.5">«abstract class»</text></g></g><g transform="translate(-228,-198) scale(1,1)"><g><path fill="none" stroke="none"/><text fill="#000000" stroke="none" font-family="Arial" font-size="13px" font-style="italic" font-weight="bold" text-decoration="none" x="753.98095703125" y="579.5">AbstractOTPBuilder[T]</text></g></g><g transform="translate(-228,-198) scale(1,1)"><rect fill="#C0C0C0" stroke="none" x="852" y="754" width="170.94873046875" height="40" opacity="0.2"/></g><g transform="translate(-228,-198) scale(1,1)"><rect fill="#ffffff" stroke="none" x="845" y="747" width="170.94873046875" height="40"/></g><g transform="translate(-228,-198) scale(1,1)"><path fill="none" stroke="#000000" d="M 845 747 L 1015.94873046875 747 L 1015.94873046875 787 L 845 787 L 845 747 Z Z" stroke-miterlimit="10"/></g><g transform="translate(-228,-198) scale(1,1)"><g><path fill="none" stroke="none"/><text fill="#000000" stroke="none" font-family="Arial" font-size="13px" font-style="normal" font-weight="normal" text-decoration="none" x="883.508056640625" y="764.5">«abstract class»</text></g></g><g transform="translate(-228,-198) scale(1,1)"><g><path fill="none" stroke="none"/><text fill="#000000" stroke="none" font-family="Arial" font-size="13px" font-style="italic" font-weight="bold" text-decoration="none" x="869.067138671875" y="779.5">AbstractTOTPBuilder</text></g></g><g transform="translate(-228,-198) scale(1,1)"><path fill="none" stroke="#000000" d="M 1017 767 L 1141 767" stroke-miterlimit="10"/></g><g transform="translate(-228,-198) scale(1,1)"><path fill="#FFFFFF" stroke="none" d="M 1120.6746502847518 775.419035512032 L 1141 767 L 1120.6746502847516 758.580964487968"/></g><g transform="translate(-228,-198) scale(1,1)"><path fill="none" stroke="#000000" d="M 1120.6746502847518 775.419035512032 L 1141 767 L 1120.6746502847516 758.580964487968 L 1120.6746502847518 775.419035512032" stroke-miterlimit="10"/></g><g transform="translate(-228,-198) scale(1,1)"><g><path fill="none" stroke="none"/><text fill="#000000" stroke="none" font-family="Arial" font-size="13px" font-style="normal" font-weight="normal" text-decoration="none" x="1059.536376953125" y="758.5">+mixin</text></g></g><g transform="translate(-228,-198) scale(1,1)"><path fill="none" stroke="#000000" d="M 930 843 L 930 788" stroke-miterlimit="10"/></g><g transform="translate(-228,-198) scale(1,1)"><path fill="#FFFFFF" stroke="none" d="M 938.419035512032 808.3253497152483 L 930 788 L 921.580964487968 808.3253497152483"/></g><g transform="translate(-228,-198) scale(1,1)"><path fill="none" stroke="#000000" d="M 938.419035512032 808.3253497152483 L 930 788 L 921.580964487968 808.3253497152483 L 938.419035512032 808.3253497152483" stroke-miterlimit="10"/></g><g transform="translate(-228,-198) scale(1,1)"><path fill="none" stroke="#000000" d="M 732 843 L 803 698" stroke-miterlimit="10"/></g><g transform="translate(-228,-198) scale(1,1)"><path fill="#FFFFFF" stroke="none" d="M 801.6228546442021 719.9568547535616 L 803 698 L 786.5003702904642 712.5520520700072"/></g><g transform="translate(-228,-198) scale(1,1)"><path fill="none" stroke="#000000" d="M 801.6228546442021 719.9568547535616 L 803 698 L 786.5003702904642 712.5520520700072 L 801.6228546442021 719.9568547535616" stroke-miterlimit="10"/></g><g transform="translate(-228,-198) scale(1,1)"><path fill="none" stroke="#000000" d="M 907 746 L 854 698" stroke-miterlimit="10"/></g><g transform="translate(-228,-198) scale(1,1)"><path fill="#FFFFFF" stroke="none" d="M 874.7167634841474 705.4037632824056 L 854 698 L 863.4137127205895 717.8842151671674"/></g><g transform="translate(-228,-198) scale(1,1)"><path fill="none" stroke="#000000" d="M 874.7167634841474 705.4037632824056 L 854 698 L 863.4137127205895 717.8842151671674 L 874.7167634841474 705.4037632824056" stroke-miterlimit="10"/></g><g transform="translate(-228,-198) scale(1,1)"><path fill="none" stroke="#000000" d="M 485 402 L 624 428" stroke-miterlimit="10" stroke-dasharray="3"/></g><g transform="translate(-228,-198) scale(1,1)"><path fill="none" stroke="#000000" d="M 613.2366084256687 430.26922934442797 L 624 428 L 614.7845453717116 421.9937202867367" stroke-miterlimit="10"/></g><g transform="translate(-228,-198) scale(1,1)"><g><path fill="none" stroke="none"/><text fill="#000000" stroke="none" font-family="Arial" font-size="13px" font-style="normal" font-weight="normal" text-decoration="none" x="541.5" y="406.5">+use</text></g></g><g transform="translate(-228,-198) scale(1,1)"><rect fill="#C0C0C0" stroke="none" x="1141" y="540" width="320" height="70" opacity="0.2"/></g><g transform="translate(-228,-198) scale(1,1)"><rect fill="#ffffff" stroke="none" x="1134" y="533" width="320" height="70"/></g><g transform="translate(-228,-198) scale(1,1)"><path fill="none" stroke="#000000" d="M 1134 533 L 1454 533 L 1454 603 L 1134 603 L 1134 533 Z Z" stroke-miterlimit="10"/></g><g transform="translate(-228,-198) scale(1,1)"><path fill="none" stroke="#000000" d="M 1134 571 L 1454 571" stroke-miterlimit="10"/></g><g transform="translate(-228,-198) scale(1,1)"><path fill="none" stroke="#000000" d="M 1134 581 L 1454 581" stroke-miterlimit="10"/></g><g transform="translate(-228,-198) scale(1,1)"><g><path fill="none" stroke="none"/><text fill="#000000" stroke="none" font-family="Arial" font-size="13px" font-style="normal" font-weight="normal" text-decoration="none" x="1275.9345703125" y="550.5">«trait»</text></g></g><g transform="translate(-228,-198) scale(1,1)"><g><path fill="none" stroke="none"/><text fill="#000000" stroke="none" font-family="Arial" font-size="13px" font-style="normal" font-weight="bold" text-decoration="none" x="1254.98095703125" y="565.5">SecretBuilder</text></g></g><g transform="translate(-228,-198) scale(1,1)"><g><path fill="none" stroke="none"/><text fill="#000000" stroke="none" font-family="Arial" font-size="13px" font-style="normal" font-weight="normal" text-decoration="none" x="1139" y="598.5">+secret(secret: OTPBuilder.SecretValue): this.type</text></g></g><g transform="translate(-228,-198) scale(1,1)"><path fill="none" stroke="#000000" d="M 908 567 L 1133 568" stroke-miterlimit="10"/></g><g transform="translate(-228,-198) scale(1,1)"><path fill="#FFFFFF" stroke="none" d="M 1112.637433459918 576.3286183668557 L 1133 568 L 1112.7122685920272 559.490713642264"/></g><g transform="translate(-228,-198) scale(1,1)"><path fill="none" stroke="#000000" d="M 1112.637433459918 576.3286183668557 L 1133 568 L 1112.7122685920272 559.490713642264 L 1112.637433459918 576.3286183668557" stroke-miterlimit="10"/></g><g transform="translate(-228,-198) scale(1,1)"><g><path fill="none" stroke="none"/><text fill="#000000" stroke="none" font-family="Arial" font-size="13px" font-style="normal" font-weight="normal" text-decoration="none" x="1006.536376953125" y="561.5">+mixin</text></g></g><g transform="translate(-228,-198) scale(1,1)"><rect fill="#C0C0C0" stroke="none" x="669" y="215" width="305" height="85" opacity="0.2"/></g><g transform="translate(-228,-198) scale(1,1)"><rect fill="#ffffff" stroke="none" x="662" y="208" width="305" height="85"/></g><g transform="translate(-228,-198) scale(1,1)"><path fill="none" stroke="#000000" d="M 662 208 L 967 208 L 967 293 L 662 293 L 662 208 Z Z" stroke-miterlimit="10"/></g><g transform="translate(-228,-198) scale(1,1)"><path fill="none" stroke="#000000" d="M 662 246 L 967 246" stroke-miterlimit="10"/></g><g transform="translate(-228,-198) scale(1,1)"><path fill="none" stroke="#000000" d="M 662 256 L 967 256" stroke-miterlimit="10"/></g><g transform="translate(-228,-198) scale(1,1)"><g><path fill="none" stroke="none"/><text fill="#000000" stroke="none" font-family="Arial" font-size="13px" font-style="normal" font-weight="normal" text-decoration="none" x="796.4345703125" y="225.5">«trait»</text></g></g><g transform="translate(-228,-198) scale(1,1)"><g><path fill="none" stroke="none"/><text fill="#000000" stroke="none" font-family="Arial" font-size="13px" font-style="normal" font-weight="bold" text-decoration="none" x="782.523681640625" y="240.5">Builder[+S]</text></g></g><g transform="translate(-228,-198) scale(1,1)"><g><path fill="none" stroke="none"/><text fill="#000000" stroke="none" font-family="Arial" font-size="13px" font-style="normal" font-weight="normal" text-decoration="none" x="667" y="273.5">+build(): S</text></g></g><g transform="translate(-228,-198) scale(1,1)"><g><path fill="none" stroke="none"/><text fill="#000000" stroke="none" font-family="Arial" font-size="13px" font-style="normal" font-weight="normal" text-decoration="none" x="667" y="288.5">#builderMethod[T](f: T =&gt; Unit)(value: T): this.type</text></g></g><g transform="translate(-228,-198) scale(1,1)"><path fill="none" stroke="#000000" d="M 818 428 L 815 294" stroke-miterlimit="10"/></g><g transform="translate(-228,-198) scale(1,1)"><path fill="#FFFFFF" stroke="none" d="M 823.8718575340871 314.1318191899009 L 815 294 L 807.0380047572736 314.50869649087434"/></g><g transform="translate(-228,-198) scale(1,1)"><path fill="none" stroke="#000000" d="M 823.8718575340871 314.1318191899009 L 815 294 L 807.0380047572736 314.50869649087434 L 823.8718575340871 314.1318191899009" stroke-miterlimit="10"/></g><g transform="translate(-228,-198) scale(1,1)"><path fill="none" stroke="#000000" d="M 1294 533 L 1294 469 M 1294 469 A 8 8 0 0 0 1286 461 L 1066 461" stroke-miterlimit="10"/></g><g transform="translate(-228,-198) scale(1,1)"><path fill="#FFFFFF" stroke="none" d="M 1086.3253497152482 452.580964487968 L 1066 461 L 1086.3253497152482 469.419035512032"/></g><g transform="translate(-228,-198) scale(1,1)"><path fill="none" stroke="#000000" d="M 1086.3253497152482 452.580964487968 L 1066 461 L 1086.3253497152482 469.419035512032 L 1086.3253497152482 452.580964487968" stroke-miterlimit="10"/></g><g transform="translate(-228,-198) scale(1,1)"><path fill="none" stroke="#000000" d="M 438 631 L 438 493 M 438 493 A 8 8 0 0 1 446 485 L 572 485" stroke-miterlimit="10"/></g><g transform="translate(-228,-198) scale(1,1)"><path fill="#FFFFFF" stroke="none" d="M 551.6746502847517 493.419035512032 L 572 485 L 551.6746502847517 476.580964487968"/></g><g transform="translate(-228,-198) scale(1,1)"><path fill="none" stroke="#000000" d="M 551.6746502847517 493.419035512032 L 572 485 L 551.6746502847517 476.580964487968 L 551.6746502847517 493.419035512032" stroke-miterlimit="10"/></g><g transform="translate(-228,-198) scale(1,1)"><path fill="none" stroke="#000000" d="M 1365 767 L 1462 767 M 1462 767 A 8 8 0 0 0 1470 759 L 1470 389 M 1470 389 A 8 8 0 0 0 1462 381 L 1038 381 M 1038 381 A 8 8 0 0 0 1030 389 L 1030 429" stroke-miterlimit="10"/></g><g transform="translate(-228,-198) scale(1,1)"><path fill="#FFFFFF" stroke="none" d="M 1021.580964487968 408.6746502847517 L 1030 429 L 1038.419035512032 408.6746502847517"/></g><g transform="translate(-228,-198) scale(1,1)"><path fill="none" stroke="#000000" d="M 1021.580964487968 408.6746502847517 L 1030 429 L 1038.419035512032 408.6746502847517 L 1021.580964487968 408.6746502847517" stroke-miterlimit="10"/></g></g></svg>