<svg version="1.1" xmlns="http://www.w3.org/2000/svg" xmlns:xlink="http://www.w3.org/1999/xlink" width="820" height="228"><defs/><g><g transform="translate(-474,-581) scale(1,1)"><rect fill="#C0C0C0" stroke="none" x="491" y="598" width="320" height="15" opacity="0.2"/></g><g transform="translate(-474,-581) scale(1,1)"><rect fill="#C0C0C0" stroke="none" x="491" y="612" width="800" height="194" opacity="0.2"/></g><g transform="translate(-474,-581) scale(1,1)"><rect fill="#ffffff" stroke="none" x="484" y="606" width="800" height="193"/></g><g transform="translate(-474,-581) scale(1,1)"><path fill="none" stroke="#000000" d="M 484 606 L 1284 606 L 1284 799 L 484 799 L 484 606 Z Z" stroke-miterlimit="10"/></g><g transform="translate(-474,-581) scale(1,1)"><rect fill="#ffffff" stroke="none" x="484" y="591" width="320" height="15"/></g><g transform="translate(-474,-581) scale(1,1)"><path fill="none" stroke="#000000" d="M 484 591 L 804 591 L 804 606 L 484 606 L 484 591 Z Z" stroke-miterlimit="10"/></g><g transform="translate(-474,-581) scale(1,1)"><rect fill="#ffffff" stroke="none" x="484" y="605" width="800" height="194"/></g><g transform="translate(-474,-581) scale(1,1)"><path fill="none" stroke="#000000" d="M 484 605 L 1284 605 L 1284 799 L 484 799 L 484 605 Z Z" stroke-miterlimit="10"/></g><g transform="translate(-474,-581) scale(1,1)"><g><path fill="none" stroke="none"/><text fill="#000000" stroke="none" font-family="Arial" font-size="13px" font-style="normal" font-weight="bold" text-decoration="none" x="866.29638671875" y="625.5">Model</text></g></g><g transform="translate(-474,-581) scale(1,1)"><rect fill="#C0C0C0" stroke="none" x="523" y="646" width="200.8642578125" height="145" opacity="0.2"/></g><g transform="translate(-474,-581) scale(1,1)"><rect fill="#ffffff" stroke="none" x="516" y="639" width="200.8642578125" height="145"/></g><g transform="translate(-474,-581) scale(1,1)"><path fill="none" stroke="#000000" d="M 516 639 L 716.8642578125 639 L 716.8642578125 784 L 516 784 L 516 639 Z Z" stroke-miterlimit="10"/></g><g transform="translate(-474,-581) scale(1,1)"><path fill="none" stroke="#000000" d="M 516 677 L 716.8642578125 677" stroke-miterlimit="10"/></g><g transform="translate(-474,-581) scale(1,1)"><path fill="none" stroke="#000000" d="M 516 687 L 716.8642578125 687" stroke-miterlimit="10"/></g><g transform="translate(-474,-581) scale(1,1)"><g><path fill="none" stroke="none"/><text fill="#000000" stroke="none" font-family="Arial" font-size="13px" font-style="normal" font-weight="normal" text-decoration="none" x="598.36669921875" y="656.5">«trait»</text></g></g><g transform="translate(-474,-581) scale(1,1)"><g><path fill="none" stroke="none"/><text fill="#000000" stroke="none" font-family="Arial" font-size="13px" font-style="normal" font-weight="bold" text-decoration="none" x="603.0703125" y="671.5">OTP</text></g></g><g transform="translate(-474,-581) scale(1,1)"><g><path fill="none" stroke="none"/><text fill="#000000" stroke="none" font-family="Arial" font-size="13px" font-style="normal" font-weight="normal" text-decoration="none" x="521" y="704.5">+policy(): OTPPolicy</text></g></g><g transform="translate(-474,-581) scale(1,1)"><g><path fill="none" stroke="none"/><text fill="#000000" stroke="none" font-family="Arial" font-size="13px" font-style="normal" font-weight="normal" text-decoration="none" x="521" y="719.5">+secret(): String</text></g></g><g transform="translate(-474,-581) scale(1,1)"><g><path fill="none" stroke="none"/><text fill="#000000" stroke="none" font-family="Arial" font-size="13px" font-style="normal" font-weight="normal" text-decoration="none" x="521" y="734.5">+length(): Int</text></g></g><g transform="translate(-474,-581) scale(1,1)"><g><path fill="none" stroke="none"/><text fill="#000000" stroke="none" font-family="Arial" font-size="13px" font-style="normal" font-weight="normal" text-decoration="none" x="521" y="749.5">+reset(): Unit</text></g></g><g transform="translate(-474,-581) scale(1,1)"><g><path fill="none" stroke="none"/><text fill="#000000" stroke="none" font-family="Arial" font-size="13px" font-style="normal" font-weight="normal" text-decoration="none" x="521" y="764.5">+generate(): String</text></g></g><g transform="translate(-474,-581) scale(1,1)"><g><path fill="none" stroke="none"/><text fill="#000000" stroke="none" font-family="Arial" font-size="13px" font-style="normal" font-weight="normal" text-decoration="none" x="521" y="779.5">+check(pincode: String): Boolean</text></g></g><g transform="translate(-474,-581) scale(1,1)"><rect fill="#C0C0C0" stroke="none" x="787" y="678" width="190.7333984375" height="70" opacity="0.2"/></g><g transform="translate(-474,-581) scale(1,1)"><rect fill="#ffffff" stroke="none" x="780" y="671" width="190.7333984375" height="70"/></g><g transform="translate(-474,-581) scale(1,1)"><path fill="none" stroke="#000000" d="M 780 671 L 970.7333984375 671 L 970.7333984375 741 L 780 741 L 780 671 Z Z" stroke-miterlimit="10"/></g><g transform="translate(-474,-581) scale(1,1)"><path fill="none" stroke="#000000" d="M 780 709 L 970.7333984375 709" stroke-miterlimit="10"/></g><g transform="translate(-474,-581) scale(1,1)"><path fill="none" stroke="#000000" d="M 780 719 L 970.7333984375 719" stroke-miterlimit="10"/></g><g transform="translate(-474,-581) scale(1,1)"><g><path fill="none" stroke="none"/><text fill="#000000" stroke="none" font-family="Arial" font-size="13px" font-style="normal" font-weight="normal" text-decoration="none" x="857.30126953125" y="688.5">«trait»</text></g></g><g transform="translate(-474,-581) scale(1,1)"><g><path fill="none" stroke="none"/><text fill="#000000" stroke="none" font-family="Arial" font-size="13px" font-style="normal" font-weight="bold" text-decoration="none" x="857.310791015625" y="703.5">HOTP</text></g></g><g transform="translate(-474,-581) scale(1,1)"><g><path fill="none" stroke="none"/><text fill="#000000" stroke="none" font-family="Arial" font-size="13px" font-style="normal" font-weight="normal" text-decoration="none" x="785" y="736.5">+hashFunction(): HashFunction</text></g></g><g transform="translate(-474,-581) scale(1,1)"><rect fill="#C0C0C0" stroke="none" x="1091" y="670" width="170.509765625" height="85" opacity="0.2"/></g><g transform="translate(-474,-581) scale(1,1)"><rect fill="#ffffff" stroke="none" x="1084" y="663" width="170.509765625" height="85"/></g><g transform="translate(-474,-581) scale(1,1)"><path fill="none" stroke="#000000" d="M 1084 663 L 1254.509765625 663 L 1254.509765625 748 L 1084 748 L 1084 663 Z Z" stroke-miterlimit="10"/></g><g transform="translate(-474,-581) scale(1,1)"><path fill="none" stroke="#000000" d="M 1084 701 L 1254.509765625 701" stroke-miterlimit="10"/></g><g transform="translate(-474,-581) scale(1,1)"><path fill="none" stroke="#000000" d="M 1084 711 L 1254.509765625 711" stroke-miterlimit="10"/></g><g transform="translate(-474,-581) scale(1,1)"><g><path fill="none" stroke="none"/><text fill="#000000" stroke="none" font-family="Arial" font-size="13px" font-style="normal" font-weight="normal" text-decoration="none" x="1151.189453125" y="680.5">«trait»</text></g></g><g transform="translate(-474,-581) scale(1,1)"><g><path fill="none" stroke="none"/><text fill="#000000" stroke="none" font-family="Arial" font-size="13px" font-style="normal" font-weight="bold" text-decoration="none" x="1151.922607421875" y="695.5">TOTP</text></g></g><g transform="translate(-474,-581) scale(1,1)"><g><path fill="none" stroke="none"/><text fill="#000000" stroke="none" font-family="Arial" font-size="13px" font-style="normal" font-weight="normal" text-decoration="none" x="1089" y="728.5">+timeout(): Duration</text></g></g><g transform="translate(-474,-581) scale(1,1)"><g><path fill="none" stroke="none"/><text fill="#000000" stroke="none" font-family="Arial" font-size="13px" font-style="normal" font-weight="normal" text-decoration="none" x="1089" y="743.5">+createDate(): Option[Long]</text></g></g><g transform="translate(-474,-581) scale(1,1)"><path fill="none" stroke="#000000" d="M 779 708 L 718 709" stroke-miterlimit="10"/></g><g transform="translate(-474,-581) scale(1,1)"><path fill="#FFFFFF" stroke="none" d="M 738.1846206642962 700.2489378565532 L 718 709 L 738.460617531618 717.0847467631859"/></g><g transform="translate(-474,-581) scale(1,1)"><path fill="none" stroke="#000000" d="M 738.1846206642962 700.2489378565532 L 718 709 L 738.460617531618 717.0847467631859 L 738.1846206642962 700.2489378565532" stroke-miterlimit="10"/></g><g transform="translate(-474,-581) scale(1,1)"><path fill="none" stroke="#000000" d="M 1083 705 L 972 706" stroke-miterlimit="10"/></g><g transform="translate(-474,-581) scale(1,1)"><path fill="#FFFFFF" stroke="none" d="M 992.2486808509645 697.3982022927888 L 972 706 L 992.4003690289632 714.2355900506352"/></g><g transform="translate(-474,-581) scale(1,1)"><path fill="none" stroke="#000000" d="M 992.2486808509645 697.3982022927888 L 972 706 L 992.4003690289632 714.2355900506352 L 992.2486808509645 697.3982022927888" stroke-miterlimit="10"/></g></g></svg>