<svg version="1.1" xmlns="http://www.w3.org/2000/svg" xmlns:xlink="http://www.w3.org/1999/xlink" width="604" height="316"><defs/><g><g transform="translate(-792,-1857) scale(1,1)"><rect fill="#C0C0C0" stroke="none" x="809" y="1874" width="233.5999999999999" height="15" opacity="0.2"/></g><g transform="translate(-792,-1857) scale(1,1)"><rect fill="#C0C0C0" stroke="none" x="809" y="1888" width="584" height="282" opacity="0.2"/></g><g transform="translate(-792,-1857) scale(1,1)"><rect fill="#ffffff" stroke="none" x="802" y="1882" width="584" height="281"/></g><g transform="translate(-792,-1857) scale(1,1)"><path fill="none" stroke="#000000" d="M 802 1882 L 1386 1882 L 1386 2163 L 802 2163 L 802 1882 Z Z" stroke-miterlimit="10"/></g><g transform="translate(-792,-1857) scale(1,1)"><rect fill="#ffffff" stroke="none" x="802" y="1867" width="233.5999999999999" height="15"/></g><g transform="translate(-792,-1857) scale(1,1)"><path fill="none" stroke="#000000" d="M 802 1867 L 1035.6 1867 L 1035.6 1882 L 802 1882 L 802 1867 Z Z" stroke-miterlimit="10"/></g><g transform="translate(-792,-1857) scale(1,1)"><rect fill="#ffffff" stroke="none" x="802" y="1881" width="584" height="282"/></g><g transform="translate(-792,-1857) scale(1,1)"><path fill="none" stroke="#000000" d="M 802 1881 L 1386 1881 L 1386 2163 L 802 2163 L 802 1881 Z Z" stroke-miterlimit="10"/></g><g transform="translate(-792,-1857) scale(1,1)"><g><path fill="none" stroke="none"/><text fill="#000000" stroke="none" font-family="Arial" font-size="13px" font-style="normal" font-weight="bold" text-decoration="none" x="1076.29638671875" y="1901.5">Model</text></g></g><g transform="translate(-792,-1857) scale(1,1)"><rect fill="#C0C0C0" stroke="none" x="841" y="1922" width="200.8642578125" height="130" opacity="0.2"/></g><g transform="translate(-792,-1857) scale(1,1)"><rect fill="#ffffff" stroke="none" x="834" y="1915" width="200.8642578125" height="130"/></g><g transform="translate(-792,-1857) scale(1,1)"><path fill="none" stroke="#000000" d="M 834 1915 L 1034.8642578125 1915 L 1034.8642578125 2045 L 834 2045 L 834 1915 Z Z" stroke-miterlimit="10"/></g><g transform="translate(-792,-1857) scale(1,1)"><path fill="none" stroke="#000000" d="M 834 1953 L 1034.8642578125 1953" stroke-miterlimit="10"/></g><g transform="translate(-792,-1857) scale(1,1)"><path fill="none" stroke="#000000" d="M 834 1963 L 1034.8642578125 1963" stroke-miterlimit="10"/></g><g transform="translate(-792,-1857) scale(1,1)"><g><path fill="none" stroke="none"/><text fill="#000000" stroke="none" font-family="Arial" font-size="13px" font-style="normal" font-weight="normal" text-decoration="none" x="916.36669921875" y="1932.5">«trait»</text></g></g><g transform="translate(-792,-1857) scale(1,1)"><g><path fill="none" stroke="none"/><text fill="#000000" stroke="none" font-family="Arial" font-size="13px" font-style="normal" font-weight="bold" text-decoration="none" x="921.0703125" y="1947.5">OTP</text></g></g><g transform="translate(-792,-1857) scale(1,1)"><g><path fill="none" stroke="none"/><text fill="#000000" stroke="none" font-family="Arial" font-size="13px" font-style="normal" font-weight="normal" text-decoration="none" x="839" y="1980.5">+policy(): OTPPolicy</text></g></g><g transform="translate(-792,-1857) scale(1,1)"><g><path fill="none" stroke="none"/><text fill="#000000" stroke="none" font-family="Arial" font-size="13px" font-style="normal" font-weight="normal" text-decoration="none" x="839" y="1995.5">+length(): Int</text></g></g><g transform="translate(-792,-1857) scale(1,1)"><g><path fill="none" stroke="none"/><text fill="#000000" stroke="none" font-family="Arial" font-size="13px" font-style="normal" font-weight="normal" text-decoration="none" x="839" y="2010.5">+reset(): Unit</text></g></g><g transform="translate(-792,-1857) scale(1,1)"><g><path fill="none" stroke="none"/><text fill="#000000" stroke="none" font-family="Arial" font-size="13px" font-style="normal" font-weight="normal" text-decoration="none" x="839" y="2025.5">+generate(): String</text></g></g><g transform="translate(-792,-1857) scale(1,1)"><g><path fill="none" stroke="none"/><text fill="#000000" stroke="none" font-family="Arial" font-size="13px" font-style="normal" font-weight="normal" text-decoration="none" x="839" y="2040.5">+check(pincode: String): Boolean</text></g></g><g transform="translate(-792,-1857) scale(1,1)"><rect fill="#C0C0C0" stroke="none" x="1161" y="1930" width="190.7333984375" height="70" opacity="0.2"/></g><g transform="translate(-792,-1857) scale(1,1)"><rect fill="#ffffff" stroke="none" x="1154" y="1923" width="190.7333984375" height="70"/></g><g transform="translate(-792,-1857) scale(1,1)"><path fill="none" stroke="#000000" d="M 1154 1923 L 1344.7333984375 1923 L 1344.7333984375 1993 L 1154 1993 L 1154 1923 Z Z" stroke-miterlimit="10"/></g><g transform="translate(-792,-1857) scale(1,1)"><path fill="none" stroke="#000000" d="M 1154 1961 L 1344.7333984375 1961" stroke-miterlimit="10"/></g><g transform="translate(-792,-1857) scale(1,1)"><path fill="none" stroke="#000000" d="M 1154 1971 L 1344.7333984375 1971" stroke-miterlimit="10"/></g><g transform="translate(-792,-1857) scale(1,1)"><g><path fill="none" stroke="none"/><text fill="#000000" stroke="none" font-family="Arial" font-size="13px" font-style="normal" font-weight="normal" text-decoration="none" x="1231.30126953125" y="1940.5">«trait»</text></g></g><g transform="translate(-792,-1857) scale(1,1)"><g><path fill="none" stroke="none"/><text fill="#000000" stroke="none" font-family="Arial" font-size="13px" font-style="normal" font-weight="bold" text-decoration="none" x="1231.310791015625" y="1955.5">HOTP</text></g></g><g transform="translate(-792,-1857) scale(1,1)"><g><path fill="none" stroke="none"/><text fill="#000000" stroke="none" font-family="Arial" font-size="13px" font-style="normal" font-weight="normal" text-decoration="none" x="1159" y="1988.5">+hashFunction(): HashFunction</text></g></g><g transform="translate(-792,-1857) scale(1,1)"><rect fill="#C0C0C0" stroke="none" x="1169" y="2066" width="170.509765625" height="85" opacity="0.2"/></g><g transform="translate(-792,-1857) scale(1,1)"><rect fill="#ffffff" stroke="none" x="1162" y="2059" width="170.509765625" height="85"/></g><g transform="translate(-792,-1857) scale(1,1)"><path fill="none" stroke="#000000" d="M 1162 2059 L 1332.509765625 2059 L 1332.509765625 2144 L 1162 2144 L 1162 2059 Z Z" stroke-miterlimit="10"/></g><g transform="translate(-792,-1857) scale(1,1)"><path fill="none" stroke="#000000" d="M 1162 2097 L 1332.509765625 2097" stroke-miterlimit="10"/></g><g transform="translate(-792,-1857) scale(1,1)"><path fill="none" stroke="#000000" d="M 1162 2107 L 1332.509765625 2107" stroke-miterlimit="10"/></g><g transform="translate(-792,-1857) scale(1,1)"><g><path fill="none" stroke="none"/><text fill="#000000" stroke="none" font-family="Arial" font-size="13px" font-style="normal" font-weight="normal" text-decoration="none" x="1229.189453125" y="2076.5">«trait»</text></g></g><g transform="translate(-792,-1857) scale(1,1)"><g><path fill="none" stroke="none"/><text fill="#000000" stroke="none" font-family="Arial" font-size="13px" font-style="normal" font-weight="bold" text-decoration="none" x="1229.922607421875" y="2091.5">TOTP</text></g></g><g transform="translate(-792,-1857) scale(1,1)"><g><path fill="none" stroke="none"/><text fill="#000000" stroke="none" font-family="Arial" font-size="13px" font-style="normal" font-weight="normal" text-decoration="none" x="1167" y="2124.5">+timeout(): Duration</text></g></g><g transform="translate(-792,-1857) scale(1,1)"><g><path fill="none" stroke="none"/><text fill="#000000" stroke="none" font-family="Arial" font-size="13px" font-style="normal" font-weight="normal" text-decoration="none" x="1167" y="2139.5">+createDate(): Option[Long]</text></g></g><g transform="translate(-792,-1857) scale(1,1)"><path fill="none" stroke="#000000" d="M 1153 1965 L 1036 1973" stroke-miterlimit="10"/></g><g transform="translate(-792,-1857) scale(1,1)"><path fill="#FFFFFF" stroke="none" d="M 1055.7036826949904 1963.21404637988 L 1036 1973 L 1056.8523218131395 1980.012893482812"/></g><g transform="translate(-792,-1857) scale(1,1)"><path fill="none" stroke="#000000" d="M 1055.7036826949904 1963.21404637988 L 1036 1973 L 1056.8523218131395 1980.012893482812 L 1055.7036826949904 1963.21404637988" stroke-miterlimit="10"/></g><g transform="translate(-792,-1857) scale(1,1)"><path fill="none" stroke="#000000" d="M 1161 2068 L 1036 2019" stroke-miterlimit="10"/></g><g transform="translate(-792,-1857) scale(1,1)"><path fill="#FFFFFF" stroke="none" d="M 1057.9959837558774 2018.5796446608224 L 1036 2019 L 1051.8507453834904 2034.2562731618098"/></g><g transform="translate(-792,-1857) scale(1,1)"><path fill="none" stroke="#000000" d="M 1057.9959837558774 2018.5796446608224 L 1036 2019 L 1051.8507453834904 2034.2562731618098 L 1057.9959837558774 2018.5796446608224" stroke-miterlimit="10"/></g><g transform="translate(-792,-1857) scale(1,1)"><path fill="none" stroke="#000000" d="M 1248 2058 L 1248 1994" stroke-miterlimit="10"/></g><g transform="translate(-792,-1857) scale(1,1)"><path fill="#FFFFFF" stroke="none" d="M 1256.419035512032 2014.3253497152482 L 1248 1994 L 1239.580964487968 2014.3253497152482"/></g><g transform="translate(-792,-1857) scale(1,1)"><path fill="none" stroke="#000000" d="M 1256.419035512032 2014.3253497152482 L 1248 1994 L 1239.580964487968 2014.3253497152482 L 1256.419035512032 2014.3253497152482" stroke-miterlimit="10"/></g><g transform="translate(-792,-1857) scale(1,1)"><g><path fill="none" stroke="none"/><text fill="#000000" stroke="none" font-family="Arial" font-size="13px" font-style="normal" font-weight="normal" text-decoration="none" x="1259.5" y="2030.5">+mixin</text></g></g></g></svg>