<svg version="1.1" xmlns="http://www.w3.org/2000/svg" xmlns:xlink="http://www.w3.org/1999/xlink" width="700" height="604"><defs/><g><g transform="translate(-765,-223) scale(1,1)"><rect fill="#C0C0C0" stroke="none" x="782" y="240" width="272" height="15" opacity="0.2"/></g><g transform="translate(-765,-223) scale(1,1)"><rect fill="#C0C0C0" stroke="none" x="782" y="254" width="680" height="570" opacity="0.2"/></g><g transform="translate(-765,-223) scale(1,1)"><rect fill="#ffffff" stroke="none" x="775" y="248" width="680" height="569"/></g><g transform="translate(-765,-223) scale(1,1)"><path fill="none" stroke="#000000" d="M 775 248 L 1455 248 L 1455 817 L 775 817 L 775 248 Z Z" stroke-miterlimit="10"/></g><g transform="translate(-765,-223) scale(1,1)"><rect fill="#ffffff" stroke="none" x="775" y="233" width="272" height="15"/></g><g transform="translate(-765,-223) scale(1,1)"><path fill="none" stroke="#000000" d="M 775 233 L 1047 233 L 1047 248 L 775 248 L 775 233 Z Z" stroke-miterlimit="10"/></g><g transform="translate(-765,-223) scale(1,1)"><rect fill="#ffffff" stroke="none" x="775" y="247" width="680" height="570"/></g><g transform="translate(-765,-223) scale(1,1)"><path fill="none" stroke="#000000" d="M 775 247 L 1455 247 L 1455 817 L 775 817 L 775 247 Z Z" stroke-miterlimit="10"/></g><g transform="translate(-765,-223) scale(1,1)"><g><path fill="none" stroke="none"/><text fill="#000000" stroke="none" font-family="Arial" font-size="13px" font-style="normal" font-weight="bold" text-decoration="none" x="1089.339599609375" y="267.5">Alphabet</text></g></g><g transform="translate(-765,-223) scale(1,1)"><rect fill="#C0C0C0" stroke="none" x="1054" y="688" width="102.9072265625" height="40" opacity="0.2"/></g><g transform="translate(-765,-223) scale(1,1)"><rect fill="#ffffff" stroke="none" x="1047" y="681" width="102.9072265625" height="40"/></g><g transform="translate(-765,-223) scale(1,1)"><path fill="none" stroke="#000000" d="M 1047 681 L 1149.9072265625 681 L 1149.9072265625 721 L 1047 721 L 1047 681 Z Z" stroke-miterlimit="10"/></g><g transform="translate(-765,-223) scale(1,1)"><g><path fill="none" stroke="none"/><text fill="#000000" stroke="none" font-family="Arial" font-size="13px" font-style="normal" font-weight="normal" text-decoration="none" x="1080.38818359375" y="698.5">«trait»</text></g></g><g transform="translate(-765,-223) scale(1,1)"><g><path fill="none" stroke="none"/><text fill="#000000" stroke="none" font-family="Arial" font-size="13px" font-style="normal" font-weight="bold" text-decoration="none" x="1055.45458984375" y="713.5">PolicyAlphabet</text></g></g><g transform="translate(-765,-223) scale(1,1)"><rect fill="#C0C0C0" stroke="none" x="846" y="280" width="529" height="130" opacity="0.2"/></g><g transform="translate(-765,-223) scale(1,1)"><rect fill="#ffffff" stroke="none" x="839" y="273" width="529" height="130"/></g><g transform="translate(-765,-223) scale(1,1)"><path fill="none" stroke="#000000" d="M 839 273 L 1368 273 L 1368 403 L 839 403 L 839 273 Z Z" stroke-miterlimit="10"/></g><g transform="translate(-765,-223) scale(1,1)"><path fill="none" stroke="#000000" d="M 839 311 L 1368 311" stroke-miterlimit="10"/></g><g transform="translate(-765,-223) scale(1,1)"><path fill="none" stroke="#000000" d="M 839 321 L 1368 321" stroke-miterlimit="10"/></g><g transform="translate(-765,-223) scale(1,1)"><g><path fill="none" stroke="none"/><text fill="#000000" stroke="none" font-family="Arial" font-size="13px" font-style="normal" font-weight="normal" text-decoration="none" x="1085.4345703125" y="290.5">«trait»</text></g></g><g transform="translate(-765,-223) scale(1,1)"><g><path fill="none" stroke="none"/><text fill="#000000" stroke="none" font-family="Arial" font-size="13px" font-style="normal" font-weight="bold" text-decoration="none" x="1028.353271484375" y="305.5">AlphabetCommonClasses</text></g></g><g transform="translate(-765,-223) scale(1,1)"><g><path fill="none" stroke="none"/><text fill="#000000" stroke="none" font-family="Arial" font-size="13px" font-style="normal" font-weight="normal" text-decoration="none" x="844" y="338.5">+lowers(): SymbolicAlphabet</text></g></g><g transform="translate(-765,-223) scale(1,1)"><g><path fill="none" stroke="none"/><text fill="#000000" stroke="none" font-family="Arial" font-size="13px" font-style="normal" font-weight="normal" text-decoration="none" x="844" y="353.5">+uppers(): SymbolicAlphabet</text></g></g><g transform="translate(-765,-223) scale(1,1)"><g><path fill="none" stroke="none"/><text fill="#000000" stroke="none" font-family="Arial" font-size="13px" font-style="normal" font-weight="normal" text-decoration="none" x="844" y="368.5">+digits(): SymbolicAlphabet</text></g></g><g transform="translate(-765,-223) scale(1,1)"><g><path fill="none" stroke="none"/><text fill="#000000" stroke="none" font-family="Arial" font-size="13px" font-style="normal" font-weight="normal" text-decoration="none" x="844" y="383.5">+symbols(): SymbolicAlphabet</text></g></g><g transform="translate(-765,-223) scale(1,1)"><g><path fill="none" stroke="none"/><text fill="#000000" stroke="none" font-family="Arial" font-size="13px" font-style="normal" font-weight="normal" text-decoration="none" x="844" y="398.5">+alphanumericsymbols(): SymbolicAlphabet = lowers and uppers and digits and symbols</text></g></g><g transform="translate(-765,-223) scale(1,1)"><path fill="none" stroke="#000000" d="M 1008 464 L 1053 404" stroke-miterlimit="10"/></g><g transform="translate(-765,-223) scale(1,1)"><path fill="#FFFFFF" stroke="none" d="M 1047.5400185804765 425.31170107941784 L 1053 404 L 1034.0695617612255 415.20885846497947"/></g><g transform="translate(-765,-223) scale(1,1)"><path fill="none" stroke="#000000" d="M 1047.5400185804765 425.31170107941784 L 1053 404 L 1034.0695617612255 415.20885846497947 L 1047.5400185804765 425.31170107941784" stroke-miterlimit="10"/></g><g transform="translate(-765,-223) scale(1,1)"><path fill="none" stroke="#000000" d="M 1076 680 L 1035 641" stroke-miterlimit="10"/></g><g transform="translate(-765,-223) scale(1,1)"><path fill="#FFFFFF" stroke="none" d="M 1055.52941116416 648.9084307705682 L 1035 641 L 1043.924380821531 661.1085908743573"/></g><g transform="translate(-765,-223) scale(1,1)"><path fill="none" stroke="#000000" d="M 1055.52941116416 648.9084307705682 L 1035 641 L 1043.924380821531 661.1085908743573 L 1055.52941116416 648.9084307705682" stroke-miterlimit="10"/></g><g transform="translate(-765,-223) scale(1,1)"><path fill="none" stroke="#000000" d="M 1223 503 L 1151 404" stroke-miterlimit="10"/></g><g transform="translate(-765,-223) scale(1,1)"><path fill="#FFFFFF" stroke="none" d="M 1169.763573261467 415.4860053309045 L 1151 404 L 1156.1460176342464 425.3896821507012"/></g><g transform="translate(-765,-223) scale(1,1)"><path fill="none" stroke="#000000" d="M 1169.763573261467 415.4860053309045 L 1151 404 L 1156.1460176342464 425.3896821507012 L 1169.763573261467 415.4860053309045" stroke-miterlimit="10"/></g><g transform="translate(-765,-223) scale(1,1)"><path fill="none" stroke="#000000" d="M 1126 680 L 1185 635" stroke-miterlimit="10"/></g><g transform="translate(-765,-223) scale(1,1)"><path fill="#FFFFFF" stroke="none" d="M 1173.9445792922274 654.0204540685588 L 1185 635 L 1163.7331449955386 640.632129101789"/></g><g transform="translate(-765,-223) scale(1,1)"><path fill="none" stroke="#000000" d="M 1173.9445792922274 654.0204540685588 L 1185 635 L 1163.7331449955386 640.632129101789 L 1173.9445792922274 654.0204540685588" stroke-miterlimit="10"/></g><g transform="translate(-765,-223) scale(1,1)"><rect fill="#C0C0C0" stroke="none" x="1135" y="511" width="286.80517578125" height="130" opacity="0.2"/></g><g transform="translate(-765,-223) scale(1,1)"><rect fill="#ffffff" stroke="none" x="1128" y="504" width="286.80517578125" height="130"/></g><g transform="translate(-765,-223) scale(1,1)"><path fill="none" stroke="#000000" d="M 1128 504 L 1414.80517578125 504 L 1414.80517578125 634 L 1128 634 L 1128 504 Z Z" stroke-miterlimit="10"/></g><g transform="translate(-765,-223) scale(1,1)"><path fill="none" stroke="#000000" d="M 1128 542 L 1414.80517578125 542" stroke-miterlimit="10"/></g><g transform="translate(-765,-223) scale(1,1)"><path fill="none" stroke="#000000" d="M 1128 552 L 1414.80517578125 552" stroke-miterlimit="10"/></g><g transform="translate(-765,-223) scale(1,1)"><g><path fill="none" stroke="none"/><text fill="#000000" stroke="none" font-family="Arial" font-size="13px" font-style="normal" font-weight="normal" text-decoration="none" x="1253.337158203125" y="521.5">«trait»</text></g></g><g transform="translate(-765,-223) scale(1,1)"><g><path fill="none" stroke="none"/><text fill="#000000" stroke="none" font-family="Arial" font-size="13px" font-style="normal" font-weight="bold" text-decoration="none" x="1221.173583984375" y="536.5">RandomAlphabet</text></g></g><g transform="translate(-765,-223) scale(1,1)"><g><path fill="none" stroke="none"/><text fill="#000000" stroke="none" font-family="Arial" font-size="13px" font-style="normal" font-weight="normal" text-decoration="none" x="1133" y="569.5">+randomLowers(): LazyList[Char]</text></g></g><g transform="translate(-765,-223) scale(1,1)"><g><path fill="none" stroke="none"/><text fill="#000000" stroke="none" font-family="Arial" font-size="13px" font-style="normal" font-weight="normal" text-decoration="none" x="1133" y="584.5">+randomUppers(): LazyList[Char]</text></g></g><g transform="translate(-765,-223) scale(1,1)"><g><path fill="none" stroke="none"/><text fill="#000000" stroke="none" font-family="Arial" font-size="13px" font-style="normal" font-weight="normal" text-decoration="none" x="1133" y="599.5">+randomDigits(): LazyList[Char]</text></g></g><g transform="translate(-765,-223) scale(1,1)"><g><path fill="none" stroke="none"/><text fill="#000000" stroke="none" font-family="Arial" font-size="13px" font-style="normal" font-weight="normal" text-decoration="none" x="1133" y="614.5">+randomSymbols(): LazyList[Char]</text></g></g><g transform="translate(-765,-223) scale(1,1)"><g><path fill="none" stroke="none"/><text fill="#000000" stroke="none" font-family="Arial" font-size="13px" font-style="normal" font-weight="normal" text-decoration="none" x="1133" y="629.5">+randomAlphanumericsymbols(): LazyList[Char]</text></g></g><g transform="translate(-765,-223) scale(1,1)"><rect fill="#C0C0C0" stroke="none" x="806" y="472" width="287.51611328125" height="175" opacity="0.2"/></g><g transform="translate(-765,-223) scale(1,1)"><rect fill="#ffffff" stroke="none" x="799" y="465" width="287.51611328125" height="175"/></g><g transform="translate(-765,-223) scale(1,1)"><path fill="none" stroke="#000000" d="M 799 465 L 1086.51611328125 465 L 1086.51611328125 640 L 799 640 L 799 465 Z Z" stroke-miterlimit="10"/></g><g transform="translate(-765,-223) scale(1,1)"><path fill="none" stroke="#000000" d="M 799 503 L 1086.51611328125 503" stroke-miterlimit="10"/></g><g transform="translate(-765,-223) scale(1,1)"><path fill="none" stroke="#000000" d="M 799 513 L 1086.51611328125 513" stroke-miterlimit="10"/></g><g transform="translate(-765,-223) scale(1,1)"><g><path fill="none" stroke="none"/><text fill="#000000" stroke="none" font-family="Arial" font-size="13px" font-style="normal" font-weight="normal" text-decoration="none" x="924.692626953125" y="482.5">«trait»</text></g></g><g transform="translate(-765,-223) scale(1,1)"><g><path fill="none" stroke="none"/><text fill="#000000" stroke="none" font-family="Arial" font-size="13px" font-style="normal" font-weight="bold" text-decoration="none" x="898.30859375" y="497.5">RegexAlphabet</text></g></g><g transform="translate(-765,-223) scale(1,1)"><g><path fill="none" stroke="none"/><text fill="#000000" stroke="none" font-family="Arial" font-size="13px" font-style="normal" font-weight="normal" text-decoration="none" x="804" y="530.5">+minimalLength(): Regex</text></g></g><g transform="translate(-765,-223) scale(1,1)"><g><path fill="none" stroke="none"/><text fill="#000000" stroke="none" font-family="Arial" font-size="13px" font-style="normal" font-weight="normal" text-decoration="none" x="804" y="545.5">+minimumLength(number: Int): Regex</text></g></g><g transform="translate(-765,-223) scale(1,1)"><g><path fill="none" stroke="none"/><text fill="#000000" stroke="none" font-family="Arial" font-size="13px" font-style="normal" font-weight="normal" text-decoration="none" x="804" y="560.5">+rangeLength(min: Int, max: Int): Regex</text></g></g><g transform="translate(-765,-223) scale(1,1)"><g><path fill="none" stroke="none"/><text fill="#000000" stroke="none" font-family="Arial" font-size="13px" font-style="normal" font-weight="normal" text-decoration="none" x="804" y="575.5">+minimumLowerCharacters(number: Int): Regex</text></g></g><g transform="translate(-765,-223) scale(1,1)"><g><path fill="none" stroke="none"/><text fill="#000000" stroke="none" font-family="Arial" font-size="13px" font-style="normal" font-weight="normal" text-decoration="none" x="804" y="590.5">+minimumUpperCharacters(number: Int): Regex</text></g></g><g transform="translate(-765,-223) scale(1,1)"><g><path fill="none" stroke="none"/><text fill="#000000" stroke="none" font-family="Arial" font-size="13px" font-style="normal" font-weight="normal" text-decoration="none" x="804" y="605.5">+minimumSymbols(number: Int): Regex</text></g></g><g transform="translate(-765,-223) scale(1,1)"><g><path fill="none" stroke="none"/><text fill="#000000" stroke="none" font-family="Arial" font-size="13px" font-style="normal" font-weight="normal" text-decoration="none" x="804" y="620.5">+minimumNumbers(number: Int): Regex</text></g></g><g transform="translate(-765,-223) scale(1,1)"><g><path fill="none" stroke="none"/><text fill="#000000" stroke="none" font-family="Arial" font-size="13px" font-style="normal" font-weight="normal" text-decoration="none" x="804" y="635.5">+onlyNumbers(): Regex</text></g></g><g transform="translate(-765,-223) scale(1,1)"><path fill="none" stroke="#000000" d="M 1038 760 L 1076 722" stroke-miterlimit="10"/></g><g transform="translate(-765,-223) scale(1,1)"><path fill="#FFFFFF" stroke="none" d="M 1067.580964487968 742.3253497152483 L 1076 722 L 1055.6746502847518 730.419035512032"/></g><g transform="translate(-765,-223) scale(1,1)"><path fill="none" stroke="#000000" d="M 1067.580964487968 742.3253497152483 L 1076 722 L 1055.6746502847518 730.419035512032 L 1067.580964487968 742.3253497152483" stroke-miterlimit="10"/></g><g transform="translate(-765,-223) scale(1,1)"><rect fill="#C0C0C0" stroke="none" x="950" y="768" width="146.96630859375" height="40" opacity="0.2"/></g><g transform="translate(-765,-223) scale(1,1)"><rect fill="#ffffff" stroke="none" x="943" y="761" width="146.96630859375" height="40"/></g><g transform="translate(-765,-223) scale(1,1)"><path fill="none" stroke="#000000" d="M 943 761 L 1089.96630859375 761 L 1089.96630859375 801 L 943 801 L 943 761 Z Z" stroke-miterlimit="10"/></g><g transform="translate(-765,-223) scale(1,1)"><g><path fill="none" stroke="none"/><text fill="#000000" stroke="none" font-family="Arial" font-size="13px" font-style="normal" font-weight="normal" text-decoration="none" x="978.908203125" y="778.5">«case class»</text></g></g><g transform="translate(-765,-223) scale(1,1)"><g><path fill="none" stroke="none"/><text fill="#000000" stroke="none" font-family="Arial" font-size="13px" font-style="normal" font-weight="bold" text-decoration="none" x="952.88916015625" y="793.5">PolicyDefaultAlphabet</text></g></g><g transform="translate(-765,-223) scale(1,1)"><path fill="none" stroke="#000000" d="M 1167 760 L 1122 722" stroke-miterlimit="10"/></g><g transform="translate(-765,-223) scale(1,1)"><path fill="#FFFFFF" stroke="none" d="M 1142.9609754494613 728.681130758119 L 1122 722 L 1132.0973750155388 741.5459207456588"/></g><g transform="translate(-765,-223) scale(1,1)"><path fill="none" stroke="#000000" d="M 1142.9609754494613 728.681130758119 L 1122 722 L 1132.0973750155388 741.5459207456588 L 1142.9609754494613 728.681130758119" stroke-miterlimit="10"/></g><g transform="translate(-765,-223) scale(1,1)"><rect fill="#C0C0C0" stroke="none" x="1134" y="768" width="129.630859375" height="40" opacity="0.2"/></g><g transform="translate(-765,-223) scale(1,1)"><rect fill="#ffffff" stroke="none" x="1127" y="761" width="129.630859375" height="40"/></g><g transform="translate(-765,-223) scale(1,1)"><path fill="none" stroke="#000000" d="M 1127 761 L 1256.630859375 761 L 1256.630859375 801 L 1127 801 L 1127 761 Z Z" stroke-miterlimit="10"/></g><g transform="translate(-765,-223) scale(1,1)"><g><path fill="none" stroke="none"/><text fill="#000000" stroke="none" font-family="Arial" font-size="13px" font-style="normal" font-weight="normal" text-decoration="none" x="1154.240478515625" y="778.5">«case class»</text></g></g><g transform="translate(-765,-223) scale(1,1)"><g><path fill="none" stroke="none"/><text fill="#000000" stroke="none" font-family="Arial" font-size="13px" font-style="normal" font-weight="bold" text-decoration="none" x="1135.45458984375" y="793.5">PolicyOTPAlphabet</text></g></g></g></svg>