<svg version="1.1" xmlns="http://www.w3.org/2000/svg" xmlns:xlink="http://www.w3.org/1999/xlink" width="604" height="580"><defs/><g><g transform="translate(-2565,-1424) scale(1,1)"><rect fill="#C0C0C0" stroke="none" x="2582" y="1441" width="233.5999999999999" height="15" opacity="0.2"/></g><g transform="translate(-2565,-1424) scale(1,1)"><rect fill="#C0C0C0" stroke="none" x="2582" y="1455" width="584" height="546" opacity="0.2"/></g><g transform="translate(-2565,-1424) scale(1,1)"><rect fill="#ffffff" stroke="none" x="2575" y="1449" width="584" height="545"/></g><g transform="translate(-2565,-1424) scale(1,1)"><path fill="none" stroke="#000000" d="M 2575 1449 L 3159 1449 L 3159 1994 L 2575 1994 L 2575 1449 Z Z" stroke-miterlimit="10"/></g><g transform="translate(-2565,-1424) scale(1,1)"><rect fill="#ffffff" stroke="none" x="2575" y="1434" width="233.5999999999999" height="15"/></g><g transform="translate(-2565,-1424) scale(1,1)"><path fill="none" stroke="#000000" d="M 2575 1434 L 2808.6 1434 L 2808.6 1449 L 2575 1449 L 2575 1434 Z Z" stroke-miterlimit="10"/></g><g transform="translate(-2565,-1424) scale(1,1)"><rect fill="#ffffff" stroke="none" x="2575" y="1448" width="584" height="546"/></g><g transform="translate(-2565,-1424) scale(1,1)"><path fill="none" stroke="#000000" d="M 2575 1448 L 3159 1448 L 3159 1994 L 2575 1994 L 2575 1448 Z Z" stroke-miterlimit="10"/></g><g transform="translate(-2565,-1424) scale(1,1)"><g><path fill="none" stroke="none"/><text fill="#000000" stroke="none" font-family="Arial" font-size="13px" font-style="normal" font-weight="bold" text-decoration="none" x="2843.155029296875" y="1468.5">Defaults</text></g></g><g transform="translate(-2565,-1424) scale(1,1)"><rect fill="#C0C0C0" stroke="none" x="2902" y="1489" width="241" height="85" opacity="0.2"/></g><g transform="translate(-2565,-1424) scale(1,1)"><rect fill="#ffffff" stroke="none" x="2895" y="1482" width="241" height="85"/></g><g transform="translate(-2565,-1424) scale(1,1)"><path fill="none" stroke="#000000" d="M 2895 1482 L 3136 1482 L 3136 1567 L 2895 1567 L 2895 1482 Z Z" stroke-miterlimit="10"/></g><g transform="translate(-2565,-1424) scale(1,1)"><path fill="none" stroke="#000000" d="M 2895 1520 L 3136 1520" stroke-miterlimit="10"/></g><g transform="translate(-2565,-1424) scale(1,1)"><path fill="none" stroke="#000000" d="M 2895 1530 L 3136 1530" stroke-miterlimit="10"/></g><g transform="translate(-2565,-1424) scale(1,1)"><g><path fill="none" stroke="none"/><text fill="#000000" stroke="none" font-family="Arial" font-size="13px" font-style="normal" font-weight="normal" text-decoration="none" x="2990.925048828125" y="1499.5">«object»</text></g></g><g transform="translate(-2565,-1424) scale(1,1)"><g><path fill="none" stroke="none"/><text fill="#000000" stroke="none" font-family="Arial" font-size="13px" font-style="normal" font-weight="bold" text-decoration="none" x="2977.56640625" y="1514.5">PolicyDefault</text></g></g><g transform="translate(-2565,-1424) scale(1,1)"><g><path fill="none" stroke="none"/><text fill="#000000" stroke="none" font-family="Arial" font-size="13px" font-style="normal" font-weight="normal" text-decoration="none" x="2900" y="1547.5">+apply(): PolicyDefault</text></g></g><g transform="translate(-2565,-1424) scale(1,1)"><g><path fill="none" stroke="none"/><text fill="#000000" stroke="none" font-family="Arial" font-size="13px" font-style="normal" font-weight="normal" text-decoration="none" x="2900" y="1562.5">+apply(protocol: Protocol): PolicyDefault</text></g></g><g transform="translate(-2565,-1424) scale(1,1)"><path fill="none" stroke="#000000" d="M 2894 1532 L 2756 1541" stroke-miterlimit="10" stroke-dasharray="3"/></g><g transform="translate(-2565,-1424) scale(1,1)"><path fill="none" stroke="#000000" d="M 2765.8671792796194 1536.138027862704 L 2756 1541 L 2766.4150828480247 1544.5392159115802" stroke-miterlimit="10"/></g><g transform="translate(-2565,-1424) scale(1,1)"><g><path fill="none" stroke="none"/><text fill="#000000" stroke="none" font-family="Arial" font-size="13px" font-style="normal" font-weight="normal" text-decoration="none" x="2804.5" y="1526.5">+create</text></g></g><g transform="translate(-2565,-1424) scale(1,1)"><rect fill="#C0C0C0" stroke="none" x="2614" y="1649" width="211.19999999999982" height="15" opacity="0.2"/></g><g transform="translate(-2565,-1424) scale(1,1)"><rect fill="#C0C0C0" stroke="none" x="2614" y="1663" width="528" height="314" opacity="0.2"/></g><g transform="translate(-2565,-1424) scale(1,1)"><rect fill="#ffffff" stroke="none" x="2607" y="1657" width="528" height="313"/></g><g transform="translate(-2565,-1424) scale(1,1)"><path fill="none" stroke="#000000" d="M 2607 1657 L 3135 1657 L 3135 1970 L 2607 1970 L 2607 1657 Z Z" stroke-miterlimit="10"/></g><g transform="translate(-2565,-1424) scale(1,1)"><rect fill="#ffffff" stroke="none" x="2607" y="1642" width="211.19999999999982" height="15"/></g><g transform="translate(-2565,-1424) scale(1,1)"><path fill="none" stroke="#000000" d="M 2607 1642 L 2818.2 1642 L 2818.2 1657 L 2607 1657 L 2607 1642 Z Z" stroke-miterlimit="10"/></g><g transform="translate(-2565,-1424) scale(1,1)"><rect fill="#ffffff" stroke="none" x="2607" y="1656" width="528" height="314"/></g><g transform="translate(-2565,-1424) scale(1,1)"><path fill="none" stroke="#000000" d="M 2607 1656 L 3135 1656 L 3135 1970 L 2607 1970 L 2607 1656 Z Z" stroke-miterlimit="10"/></g><g transform="translate(-2565,-1424) scale(1,1)"><g><path fill="none" stroke="none"/><text fill="#000000" stroke="none" font-family="Arial" font-size="13px" font-style="normal" font-weight="bold" text-decoration="none" x="2836.681396484375" y="1676.5">StringPolicy</text></g></g><g transform="translate(-2565,-1424) scale(1,1)"><path fill="none" stroke="#000000" d="M 2993 1568 L 2955 1641" stroke-miterlimit="10" stroke-dasharray="3"/></g><g transform="translate(-2565,-1424) scale(1,1)"><path fill="none" stroke="#000000" d="M 2955.9585484475606 1630.0418439108726 L 2955 1641 L 2963.4263825872886 1633.9292096274432" stroke-miterlimit="10"/></g><g transform="translate(-2565,-1424) scale(1,1)"><g><path fill="none" stroke="none"/><text fill="#000000" stroke="none" font-family="Arial" font-size="13px" font-style="normal" font-weight="normal" text-decoration="none" x="2972.5" y="1616.5">+use</text></g></g><g transform="translate(-2565,-1424) scale(1,1)"><rect fill="#C0C0C0" stroke="none" x="2870" y="1697" width="248.49072265625" height="120" opacity="0.2"/></g><g transform="translate(-2565,-1424) scale(1,1)"><rect fill="#ffffff" stroke="none" x="2863" y="1690" width="248.49072265625" height="120"/></g><g transform="translate(-2565,-1424) scale(1,1)"><path fill="none" stroke="#000000" d="M 2863 1690 L 3111.49072265625 1690 L 3111.49072265625 1810 L 2863 1810 L 2863 1690 Z Z" stroke-miterlimit="10"/></g><g transform="translate(-2565,-1424) scale(1,1)"><path fill="none" stroke="#000000" d="M 2863 1728 L 3111.49072265625 1728" stroke-miterlimit="10"/></g><g transform="translate(-2565,-1424) scale(1,1)"><g><path fill="none" stroke="none"/><text fill="#000000" stroke="none" font-family="Arial" font-size="13px" font-style="normal" font-weight="normal" text-decoration="none" x="2962.67041015625" y="1707.5">«object»</text></g></g><g transform="translate(-2565,-1424) scale(1,1)"><g><path fill="none" stroke="none"/><text fill="#000000" stroke="none" font-family="Arial" font-size="13px" font-style="normal" font-weight="bold" text-decoration="none" x="2920.772705078125" y="1722.5">PasswordPolicyDefault</text></g></g><g transform="translate(-2565,-1424) scale(1,1)"><g><path fill="none" stroke="none"/><text fill="#000000" stroke="none" font-family="Arial" font-size="13px" font-style="normal" font-weight="normal" text-decoration="none" x="2868" y="1745.5">+SIMPLE: PasswordPolicy</text></g></g><g transform="translate(-2565,-1424) scale(1,1)"><g><path fill="none" stroke="none"/><text fill="#000000" stroke="none" font-family="Arial" font-size="13px" font-style="normal" font-weight="normal" text-decoration="none" x="2868" y="1760.5">+MEDIUM: PasswordPolicy</text></g></g><g transform="translate(-2565,-1424) scale(1,1)"><g><path fill="none" stroke="none"/><text fill="#000000" stroke="none" font-family="Arial" font-size="13px" font-style="normal" font-weight="normal" text-decoration="none" x="2868" y="1775.5">+HARD: PasswordPolicy</text></g></g><g transform="translate(-2565,-1424) scale(1,1)"><g><path fill="none" stroke="none"/><text fill="#000000" stroke="none" font-family="Arial" font-size="13px" font-style="normal" font-weight="normal" text-decoration="none" x="2868" y="1790.5">+SUPER_HARD: PasswordPolicy</text></g></g><g transform="translate(-2565,-1424) scale(1,1)"><g><path fill="none" stroke="none"/><text fill="#000000" stroke="none" font-family="Arial" font-size="13px" font-style="normal" font-weight="normal" text-decoration="none" x="2868" y="1805.5">+SUPER_HARD_HARD: PasswordPolicy</text></g></g><g transform="translate(-2565,-1424) scale(1,1)"><rect fill="#C0C0C0" stroke="none" x="2638" y="1849" width="213.8134765625" height="105" opacity="0.2"/></g><g transform="translate(-2565,-1424) scale(1,1)"><rect fill="#ffffff" stroke="none" x="2631" y="1842" width="213.8134765625" height="105"/></g><g transform="translate(-2565,-1424) scale(1,1)"><path fill="none" stroke="#000000" d="M 2631 1842 L 2844.8134765625 1842 L 2844.8134765625 1947 L 2631 1947 L 2631 1842 Z Z" stroke-miterlimit="10"/></g><g transform="translate(-2565,-1424) scale(1,1)"><path fill="none" stroke="#000000" d="M 2631 1880 L 2844.8134765625 1880" stroke-miterlimit="10"/></g><g transform="translate(-2565,-1424) scale(1,1)"><g><path fill="none" stroke="none"/><text fill="#000000" stroke="none" font-family="Arial" font-size="13px" font-style="normal" font-weight="normal" text-decoration="none" x="2713.331787109375" y="1859.5">«object»</text></g></g><g transform="translate(-2565,-1424) scale(1,1)"><g><path fill="none" stroke="none"/><text fill="#000000" stroke="none" font-family="Arial" font-size="13px" font-style="normal" font-weight="bold" text-decoration="none" x="2688.772705078125" y="1874.5">SaltPolicyDefault</text></g></g><g transform="translate(-2565,-1424) scale(1,1)"><g><path fill="none" stroke="none"/><text fill="#000000" stroke="none" font-family="Arial" font-size="13px" font-style="normal" font-weight="normal" text-decoration="none" x="2636" y="1897.5">+SIMPLE: SaltPolicy</text></g></g><g transform="translate(-2565,-1424) scale(1,1)"><g><path fill="none" stroke="none"/><text fill="#000000" stroke="none" font-family="Arial" font-size="13px" font-style="normal" font-weight="normal" text-decoration="none" x="2636" y="1912.5">+MEDIUM: SaltPolicy</text></g></g><g transform="translate(-2565,-1424) scale(1,1)"><g><path fill="none" stroke="none"/><text fill="#000000" stroke="none" font-family="Arial" font-size="13px" font-style="normal" font-weight="normal" text-decoration="none" x="2636" y="1927.5">+HARD: SaltPolicy</text></g></g><g transform="translate(-2565,-1424) scale(1,1)"><g><path fill="none" stroke="none"/><text fill="#000000" stroke="none" font-family="Arial" font-size="13px" font-style="normal" font-weight="normal" text-decoration="none" x="2636" y="1942.5">+SUPER_HARD_HARD: SaltPolicy</text></g></g><g transform="translate(-2565,-1424) scale(1,1)"><rect fill="#C0C0C0" stroke="none" x="2918" y="1849" width="166.078125" height="90" opacity="0.2"/></g><g transform="translate(-2565,-1424) scale(1,1)"><rect fill="#ffffff" stroke="none" x="2911" y="1842" width="166.078125" height="90"/></g><g transform="translate(-2565,-1424) scale(1,1)"><path fill="none" stroke="#000000" d="M 2911 1842 L 3077.078125 1842 L 3077.078125 1932 L 2911 1932 L 2911 1842 Z Z" stroke-miterlimit="10"/></g><g transform="translate(-2565,-1424) scale(1,1)"><path fill="none" stroke="#000000" d="M 2911 1880 L 3077.078125 1880" stroke-miterlimit="10"/></g><g transform="translate(-2565,-1424) scale(1,1)"><g><path fill="none" stroke="none"/><text fill="#000000" stroke="none" font-family="Arial" font-size="13px" font-style="normal" font-weight="normal" text-decoration="none" x="2969.464111328125" y="1859.5">«object»</text></g></g><g transform="translate(-2565,-1424) scale(1,1)"><g><path fill="none" stroke="none"/><text fill="#000000" stroke="none" font-family="Arial" font-size="13px" font-style="normal" font-weight="bold" text-decoration="none" x="2942.74365234375" y="1874.5">OTPPolicyDefault</text></g></g><g transform="translate(-2565,-1424) scale(1,1)"><g><path fill="none" stroke="none"/><text fill="#000000" stroke="none" font-family="Arial" font-size="13px" font-style="normal" font-weight="normal" text-decoration="none" x="2916" y="1897.5">+SIMPLE: OTPPolicy</text></g></g><g transform="translate(-2565,-1424) scale(1,1)"><g><path fill="none" stroke="none"/><text fill="#000000" stroke="none" font-family="Arial" font-size="13px" font-style="normal" font-weight="normal" text-decoration="none" x="2916" y="1912.5">+MEDIUM: OTPPolicy</text></g></g><g transform="translate(-2565,-1424) scale(1,1)"><g><path fill="none" stroke="none"/><text fill="#000000" stroke="none" font-family="Arial" font-size="13px" font-style="normal" font-weight="normal" text-decoration="none" x="2916" y="1927.5">+HARD: OTPPolicy</text></g></g><g transform="translate(-2565,-1424) scale(1,1)"><rect fill="#C0C0C0" stroke="none" x="2606" y="1481" width="156.0244140625" height="145" opacity="0.2"/></g><g transform="translate(-2565,-1424) scale(1,1)"><rect fill="#ffffff" stroke="none" x="2599" y="1474" width="156.0244140625" height="145"/></g><g transform="translate(-2565,-1424) scale(1,1)"><path fill="none" stroke="#000000" d="M 2599 1474 L 2755.0244140625 1474 L 2755.0244140625 1619 L 2599 1619 L 2599 1474 Z Z" stroke-miterlimit="10"/></g><g transform="translate(-2565,-1424) scale(1,1)"><path fill="none" stroke="#000000" d="M 2599 1512 L 2755.0244140625 1512" stroke-miterlimit="10"/></g><g transform="translate(-2565,-1424) scale(1,1)"><path fill="none" stroke="#000000" d="M 2599 1522 L 2755.0244140625 1522" stroke-miterlimit="10"/></g><g transform="translate(-2565,-1424) scale(1,1)"><g><path fill="none" stroke="none"/><text fill="#000000" stroke="none" font-family="Arial" font-size="13px" font-style="normal" font-weight="normal" text-decoration="none" x="2658.94677734375" y="1491.5">«trait»</text></g></g><g transform="translate(-2565,-1424) scale(1,1)"><g><path fill="none" stroke="none"/><text fill="#000000" stroke="none" font-family="Arial" font-size="13px" font-style="normal" font-weight="bold" text-decoration="none" x="2639.07861328125" y="1506.5">PolicyDefault</text></g></g><g transform="translate(-2565,-1424) scale(1,1)"><g><path fill="none" stroke="none"/><text fill="#000000" stroke="none" font-family="Arial" font-size="13px" font-style="normal" font-weight="normal" text-decoration="none" x="2604" y="1539.5">+superSimple(): Policy</text></g></g><g transform="translate(-2565,-1424) scale(1,1)"><g><path fill="none" stroke="none"/><text fill="#000000" stroke="none" font-family="Arial" font-size="13px" font-style="normal" font-weight="normal" text-decoration="none" x="2604" y="1554.5">+simple(): Policy</text></g></g><g transform="translate(-2565,-1424) scale(1,1)"><g><path fill="none" stroke="none"/><text fill="#000000" stroke="none" font-family="Arial" font-size="13px" font-style="normal" font-weight="normal" text-decoration="none" x="2604" y="1569.5">+medium(): Policy</text></g></g><g transform="translate(-2565,-1424) scale(1,1)"><g><path fill="none" stroke="none"/><text fill="#000000" stroke="none" font-family="Arial" font-size="13px" font-style="normal" font-weight="normal" text-decoration="none" x="2604" y="1584.5">+hard(): Policy</text></g></g><g transform="translate(-2565,-1424) scale(1,1)"><g><path fill="none" stroke="none"/><text fill="#000000" stroke="none" font-family="Arial" font-size="13px" font-style="normal" font-weight="normal" text-decoration="none" x="2604" y="1599.5">+hardHard(): Policy</text></g></g><g transform="translate(-2565,-1424) scale(1,1)"><g><path fill="none" stroke="none"/><text fill="#000000" stroke="none" font-family="Arial" font-size="13px" font-style="normal" font-weight="normal" text-decoration="none" x="2604" y="1614.5">+superHardHard(): Policy</text></g></g><g transform="translate(-2565,-1424) scale(1,1)"><rect fill="#C0C0C0" stroke="none" x="2638" y="1705" width="198.642578125" height="105" opacity="0.2"/></g><g transform="translate(-2565,-1424) scale(1,1)"><rect fill="#ffffff" stroke="none" x="2631" y="1698" width="198.642578125" height="105"/></g><g transform="translate(-2565,-1424) scale(1,1)"><path fill="none" stroke="#000000" d="M 2631 1698 L 2829.642578125 1698 L 2829.642578125 1803 L 2631 1803 L 2631 1698 Z Z" stroke-miterlimit="10"/></g><g transform="translate(-2565,-1424) scale(1,1)"><path fill="none" stroke="#000000" d="M 2631 1736 L 2829.642578125 1736" stroke-miterlimit="10"/></g><g transform="translate(-2565,-1424) scale(1,1)"><g><path fill="none" stroke="none"/><text fill="#000000" stroke="none" font-family="Arial" font-size="13px" font-style="normal" font-weight="normal" text-decoration="none" x="2705.746337890625" y="1715.5">«object»</text></g></g><g transform="translate(-2565,-1424) scale(1,1)"><g><path fill="none" stroke="none"/><text fill="#000000" stroke="none" font-family="Arial" font-size="13px" font-style="normal" font-weight="bold" text-decoration="none" x="2672.1640625" y="1730.5">UserIDPolicyDefault</text></g></g><g transform="translate(-2565,-1424) scale(1,1)"><g><path fill="none" stroke="none"/><text fill="#000000" stroke="none" font-family="Arial" font-size="13px" font-style="normal" font-weight="normal" text-decoration="none" x="2636" y="1753.5">+SUPER_SIMPLE: UserIDPolicy</text></g></g><g transform="translate(-2565,-1424) scale(1,1)"><g><path fill="none" stroke="none"/><text fill="#000000" stroke="none" font-family="Arial" font-size="13px" font-style="normal" font-weight="normal" text-decoration="none" x="2636" y="1768.5">+SIMPLE: UserIDPolicy</text></g></g><g transform="translate(-2565,-1424) scale(1,1)"><g><path fill="none" stroke="none"/><text fill="#000000" stroke="none" font-family="Arial" font-size="13px" font-style="normal" font-weight="normal" text-decoration="none" x="2636" y="1783.5">+MEDIUM: UserIDPolicy</text></g></g><g transform="translate(-2565,-1424) scale(1,1)"><g><path fill="none" stroke="none"/><text fill="#000000" stroke="none" font-family="Arial" font-size="13px" font-style="normal" font-weight="normal" text-decoration="none" x="2636" y="1798.5">+HARD: UserIDPolicy</text></g></g></g></svg>