<svg version="1.1" xmlns="http://www.w3.org/2000/svg" xmlns:xlink="http://www.w3.org/1999/xlink" width="1164" height="612"><defs/><g><g transform="translate(-391,-329) scale(1,1)"><rect fill="#C0C0C0" stroke="none" x="408" y="346" width="457.6" height="15" opacity="0.2"/></g><g transform="translate(-391,-329) scale(1,1)"><rect fill="#C0C0C0" stroke="none" x="408" y="360" width="1144" height="578" opacity="0.2"/></g><g transform="translate(-391,-329) scale(1,1)"><rect fill="#ffffff" stroke="none" x="401" y="354" width="1144" height="577"/></g><g transform="translate(-391,-329) scale(1,1)"><path fill="none" stroke="#000000" d="M 401 354 L 1545 354 L 1545 931 L 401 931 L 401 354 Z Z" stroke-miterlimit="10"/></g><g transform="translate(-391,-329) scale(1,1)"><rect fill="#ffffff" stroke="none" x="401" y="339" width="457.6" height="15"/></g><g transform="translate(-391,-329) scale(1,1)"><path fill="none" stroke="#000000" d="M 401 339 L 858.6 339 L 858.6 354 L 401 354 L 401 339 Z Z" stroke-miterlimit="10"/></g><g transform="translate(-391,-329) scale(1,1)"><rect fill="#ffffff" stroke="none" x="401" y="353" width="1144" height="578"/></g><g transform="translate(-391,-329) scale(1,1)"><path fill="none" stroke="#000000" d="M 401 353 L 1545 353 L 1545 931 L 401 931 L 401 353 Z Z" stroke-miterlimit="10"/></g><g transform="translate(-391,-329) scale(1,1)"><g><path fill="none" stroke="none"/><text fill="#000000" stroke="none" font-family="Arial" font-size="13px" font-style="normal" font-weight="bold" text-decoration="none" x="955.29638671875" y="373.5">Model</text></g></g><g transform="translate(-391,-329) scale(1,1)"><rect fill="#C0C0C0" stroke="none" x="1192" y="786" width="348" height="117" opacity="0.2"/></g><g transform="translate(-391,-329) scale(1,1)"><rect fill="#ffffff" stroke="none" x="1185" y="779" width="348" height="117"/></g><g transform="translate(-391,-329) scale(1,1)"><path fill="none" stroke="#000000" d="M 1185 779 L 1533 779 L 1533 896 L 1185 896 L 1185 779 Z Z" stroke-miterlimit="10"/></g><g transform="translate(-391,-329) scale(1,1)"><path fill="none" stroke="#000000" d="M 1185 804 L 1533 804" stroke-miterlimit="10"/></g><g transform="translate(-391,-329) scale(1,1)"><path fill="none" stroke="#000000" d="M 1185 814 L 1533 814" stroke-miterlimit="10"/></g><g transform="translate(-391,-329) scale(1,1)"><g><path fill="none" stroke="none"/><text fill="#000000" stroke="none" font-family="Arial" font-size="13px" font-style="normal" font-weight="bold" text-decoration="none" x="1341.661376953125" y="798.5">Policy</text></g></g><g transform="translate(-391,-329) scale(1,1)"><g><path fill="none" stroke="none"/><text fill="#000000" stroke="none" font-family="Arial" font-size="13px" font-style="normal" font-weight="normal" text-decoration="none" x="1190" y="831.5">+name(): String</text></g></g><g transform="translate(-391,-329) scale(1,1)"><g><path fill="none" stroke="none"/><text fill="#000000" stroke="none" font-family="Arial" font-size="13px" font-style="normal" font-weight="normal" text-decoration="none" x="1190" y="846.5">+credentialPolicies(): Seq[CredentialPolicy]</text></g></g><g transform="translate(-391,-329) scale(1,1)"><g><path fill="none" stroke="none"/><text fill="#000000" stroke="none" font-family="Arial" font-size="13px" font-style="normal" font-weight="normal" text-decoration="none" x="1190" y="861.5">+cryptographicAlgorithm(): Option[CryptographicAlgorithm]</text></g></g><g transform="translate(-391,-329) scale(1,1)"><g><path fill="none" stroke="none"/><text fill="#000000" stroke="none" font-family="Arial" font-size="13px" font-style="normal" font-weight="normal" text-decoration="none" x="1190" y="876.5">+saltPolicy(): Option[SaltPolicy]</text></g></g><g transform="translate(-391,-329) scale(1,1)"><g><path fill="none" stroke="none"/><text fill="#000000" stroke="none" font-family="Arial" font-size="13px" font-style="normal" font-weight="normal" text-decoration="none" x="1190" y="891.5">+transmissionProtocol(): Option[Protocol]</text></g></g><g transform="translate(-391,-329) scale(1,1)"><rect fill="#C0C0C0" stroke="none" x="576" y="554" width="110.8671875" height="37" opacity="0.2"/></g><g transform="translate(-391,-329) scale(1,1)"><rect fill="#ffffff" stroke="none" x="569" y="547" width="110.8671875" height="37"/></g><g transform="translate(-391,-329) scale(1,1)"><path fill="none" stroke="#000000" d="M 569 547 L 679.8671875 547 L 679.8671875 584 L 569 584 L 569 547 Z Z" stroke-miterlimit="10"/></g><g transform="translate(-391,-329) scale(1,1)"><g><path fill="none" stroke="none"/><text fill="#000000" stroke="none" font-family="Arial" font-size="13px" font-style="normal" font-weight="normal" text-decoration="none" x="606.3681640625" y="564.5">«trait»</text></g></g><g transform="translate(-391,-329) scale(1,1)"><g><path fill="none" stroke="none"/><text fill="#000000" stroke="none" font-family="Arial" font-size="13px" font-style="normal" font-weight="bold" text-decoration="none" x="577.46728515625" y="579.5">CredentialPolicy</text></g></g><g transform="translate(-391,-329) scale(1,1)"><rect fill="#C0C0C0" stroke="none" x="840" y="802" width="215.2607421875" height="115" opacity="0.2"/></g><g transform="translate(-391,-329) scale(1,1)"><rect fill="#ffffff" stroke="none" x="833" y="795" width="215.2607421875" height="115"/></g><g transform="translate(-391,-329) scale(1,1)"><path fill="none" stroke="#000000" d="M 833 795 L 1048.2607421875 795 L 1048.2607421875 910 L 833 910 L 833 795 Z Z" stroke-miterlimit="10"/></g><g transform="translate(-391,-329) scale(1,1)"><path fill="none" stroke="#000000" d="M 833 833 L 1048.2607421875 833" stroke-miterlimit="10"/></g><g transform="translate(-391,-329) scale(1,1)"><path fill="none" stroke="#000000" d="M 833 843 L 1048.2607421875 843" stroke-miterlimit="10"/></g><g transform="translate(-391,-329) scale(1,1)"><g><path fill="none" stroke="none"/><text fill="#000000" stroke="none" font-family="Arial" font-size="13px" font-style="normal" font-weight="normal" text-decoration="none" x="922.56494140625" y="812.5">«trait»</text></g></g><g transform="translate(-391,-329) scale(1,1)"><g><path fill="none" stroke="none"/><text fill="#000000" stroke="none" font-family="Arial" font-size="13px" font-style="normal" font-weight="bold" text-decoration="none" x="869.47314453125" y="827.5">MoreRestrictStringPolicy</text></g></g><g transform="translate(-391,-329) scale(1,1)"><g><path fill="none" stroke="none"/><text fill="#000000" stroke="none" font-family="Arial" font-size="13px" font-style="normal" font-weight="normal" text-decoration="none" x="838" y="860.5">+minimumUpperChars(): Option[Int]</text></g></g><g transform="translate(-391,-329) scale(1,1)"><g><path fill="none" stroke="none"/><text fill="#000000" stroke="none" font-family="Arial" font-size="13px" font-style="normal" font-weight="normal" text-decoration="none" x="838" y="875.5">+minimumLowerChars(): Option[Int]</text></g></g><g transform="translate(-391,-329) scale(1,1)"><g><path fill="none" stroke="none"/><text fill="#000000" stroke="none" font-family="Arial" font-size="13px" font-style="normal" font-weight="normal" text-decoration="none" x="838" y="890.5">+minimumSymbols(): Option[Int]</text></g></g><g transform="translate(-391,-329) scale(1,1)"><g><path fill="none" stroke="none"/><text fill="#000000" stroke="none" font-family="Arial" font-size="13px" font-style="normal" font-weight="normal" text-decoration="none" x="838" y="905.5">+minimumNumbers(): Option[Int]</text></g></g><g transform="translate(-391,-329) scale(1,1)"><rect fill="#C0C0C0" stroke="none" x="504" y="826" width="189" height="85" opacity="0.2"/></g><g transform="translate(-391,-329) scale(1,1)"><rect fill="#ffffff" stroke="none" x="497" y="819" width="189" height="85"/></g><g transform="translate(-391,-329) scale(1,1)"><path fill="none" stroke="#000000" d="M 497 819 L 686 819 L 686 904 L 497 904 L 497 819 Z Z" stroke-miterlimit="10"/></g><g transform="translate(-391,-329) scale(1,1)"><path fill="none" stroke="#000000" d="M 497 857 L 686 857" stroke-miterlimit="10"/></g><g transform="translate(-391,-329) scale(1,1)"><path fill="none" stroke="#000000" d="M 497 867 L 686 867" stroke-miterlimit="10"/></g><g transform="translate(-391,-329) scale(1,1)"><g><path fill="none" stroke="none"/><text fill="#000000" stroke="none" font-family="Arial" font-size="13px" font-style="normal" font-weight="normal" text-decoration="none" x="573.4345703125" y="836.5">«trait»</text></g></g><g transform="translate(-391,-329) scale(1,1)"><g><path fill="none" stroke="none"/><text fill="#000000" stroke="none" font-family="Arial" font-size="13px" font-style="normal" font-weight="bold" text-decoration="none" x="535.15185546875" y="851.5">RestrictStringPolicy</text></g></g><g transform="translate(-391,-329) scale(1,1)"><g><path fill="none" stroke="none"/><text fill="#000000" stroke="none" font-family="Arial" font-size="13px" font-style="normal" font-weight="normal" text-decoration="none" x="502" y="884.5">+minimumLength(): Int</text></g></g><g transform="translate(-391,-329) scale(1,1)"><g><path fill="none" stroke="none"/><text fill="#000000" stroke="none" font-family="Arial" font-size="13px" font-style="normal" font-weight="normal" text-decoration="none" x="502" y="899.5">+maximumLength(): Option[Int]</text></g></g><g transform="translate(-391,-329) scale(1,1)"><rect fill="#C0C0C0" stroke="none" x="424" y="650" width="74.01904296875" height="44" opacity="0.2"/></g><g transform="translate(-391,-329) scale(1,1)"><rect fill="#ffffff" stroke="none" x="417" y="643" width="74.01904296875" height="44"/></g><g transform="translate(-391,-329) scale(1,1)"><path fill="none" stroke="#000000" d="M 417 643 L 491.01904296875 643 L 491.01904296875 687 L 417 687 L 417 643 Z Z" stroke-miterlimit="10"/></g><g transform="translate(-391,-329) scale(1,1)"><g><path fill="none" stroke="none"/><text fill="#000000" stroke="none" font-family="Arial" font-size="13px" font-style="normal" font-weight="normal" text-decoration="none" x="435.944091796875" y="660.5">«trait»</text></g></g><g transform="translate(-391,-329) scale(1,1)"><g><path fill="none" stroke="none"/><text fill="#000000" stroke="none" font-family="Arial" font-size="13px" font-style="normal" font-weight="bold" text-decoration="none" x="423.30908203125" y="675.5">OTPPolicy</text></g></g><g transform="translate(-391,-329) scale(1,1)"><rect fill="#C0C0C0" stroke="none" x="1208" y="554" width="71.13720703125" height="44" opacity="0.2"/></g><g transform="translate(-391,-329) scale(1,1)"><rect fill="#ffffff" stroke="none" x="1201" y="547" width="71.13720703125" height="44"/></g><g transform="translate(-391,-329) scale(1,1)"><path fill="none" stroke="#000000" d="M 1201 547 L 1272.13720703125 547 L 1272.13720703125 591 L 1201 591 L 1201 547 Z Z" stroke-miterlimit="10"/></g><g transform="translate(-391,-329) scale(1,1)"><g><path fill="none" stroke="none"/><text fill="#000000" stroke="none" font-family="Arial" font-size="13px" font-style="normal" font-weight="normal" text-decoration="none" x="1218.503173828125" y="564.5">«trait»</text></g></g><g transform="translate(-391,-329) scale(1,1)"><g><path fill="none" stroke="none"/><text fill="#000000" stroke="none" font-family="Arial" font-size="13px" font-style="normal" font-weight="bold" text-decoration="none" x="1208.029541015625" y="579.5">SaltPolicy</text></g></g><g transform="translate(-391,-329) scale(1,1)"><rect fill="#C0C0C0" stroke="none" x="736" y="650" width="108.708984375" height="40" opacity="0.2"/></g><g transform="translate(-391,-329) scale(1,1)"><rect fill="#ffffff" stroke="none" x="729" y="643" width="108.708984375" height="40"/></g><g transform="translate(-391,-329) scale(1,1)"><path fill="none" stroke="#000000" d="M 729 643 L 837.708984375 643 L 837.708984375 683 L 729 683 L 729 643 Z Z" stroke-miterlimit="10"/></g><g transform="translate(-391,-329) scale(1,1)"><g><path fill="none" stroke="none"/><text fill="#000000" stroke="none" font-family="Arial" font-size="13px" font-style="normal" font-weight="normal" text-decoration="none" x="765.2890625" y="660.5">«trait»</text></g></g><g transform="translate(-391,-329) scale(1,1)"><g><path fill="none" stroke="none"/><text fill="#000000" stroke="none" font-family="Arial" font-size="13px" font-style="normal" font-weight="bold" text-decoration="none" x="737.476806640625" y="675.5">PasswordPolicy</text></g></g><g transform="translate(-391,-329) scale(1,1)"><rect fill="#C0C0C0" stroke="none" x="560" y="650" width="89.20263671875" height="40" opacity="0.2"/></g><g transform="translate(-391,-329) scale(1,1)"><rect fill="#ffffff" stroke="none" x="553" y="643" width="89.20263671875" height="40"/></g><g transform="translate(-391,-329) scale(1,1)"><path fill="none" stroke="#000000" d="M 553 643 L 642.20263671875 643 L 642.20263671875 683 L 553 683 L 553 643 Z Z" stroke-miterlimit="10"/></g><g transform="translate(-391,-329) scale(1,1)"><g><path fill="none" stroke="none"/><text fill="#000000" stroke="none" font-family="Arial" font-size="13px" font-style="normal" font-weight="normal" text-decoration="none" x="579.535888671875" y="660.5">«trait»</text></g></g><g transform="translate(-391,-329) scale(1,1)"><g><path fill="none" stroke="none"/><text fill="#000000" stroke="none" font-family="Arial" font-size="13px" font-style="normal" font-weight="bold" text-decoration="none" x="560.0390625" y="675.5">UserIDPolicy</text></g></g><g transform="translate(-391,-329) scale(1,1)"><rect fill="#C0C0C0" stroke="none" x="672" y="402" width="512" height="100" opacity="0.2"/></g><g transform="translate(-391,-329) scale(1,1)"><rect fill="#ffffff" stroke="none" x="665" y="395" width="512" height="100"/></g><g transform="translate(-391,-329) scale(1,1)"><path fill="none" stroke="#000000" d="M 665 395 L 1177 395 L 1177 495 L 665 495 L 665 395 Z Z" stroke-miterlimit="10"/></g><g transform="translate(-391,-329) scale(1,1)"><path fill="none" stroke="#000000" d="M 665 433 L 1177 433" stroke-miterlimit="10"/></g><g transform="translate(-391,-329) scale(1,1)"><path fill="none" stroke="#000000" d="M 665 443 L 1177 443" stroke-miterlimit="10"/></g><g transform="translate(-391,-329) scale(1,1)"><g><path fill="none" stroke="none"/><text fill="#000000" stroke="none" font-family="Arial" font-size="13px" font-style="normal" font-weight="normal" text-decoration="none" x="902.9345703125" y="412.5">«trait»</text></g></g><g transform="translate(-391,-329) scale(1,1)"><g><path fill="none" stroke="none"/><text fill="#000000" stroke="none" font-family="Arial" font-size="13px" font-style="normal" font-weight="bold" text-decoration="none" x="886.681396484375" y="427.5">StringPolicy</text></g></g><g transform="translate(-391,-329) scale(1,1)"><g><path fill="none" stroke="none"/><text fill="#000000" stroke="none" font-family="Arial" font-size="13px" font-style="normal" font-weight="normal" text-decoration="none" x="670" y="460.5">+alphabet(): PolicyAlphabet</text></g></g><g transform="translate(-391,-329) scale(1,1)"><g><path fill="none" stroke="none"/><text fill="#000000" stroke="none" font-family="Arial" font-size="13px" font-style="normal" font-weight="normal" text-decoration="none" x="670" y="475.5">+patterns(): Seq[Regex]</text></g></g><g transform="translate(-391,-329) scale(1,1)"><g><path fill="none" stroke="none"/><text fill="#000000" stroke="none" font-family="Arial" font-size="13px" font-style="normal" font-weight="normal" text-decoration="none" x="670" y="490.5">+generate(implicit policyAutoBuilder: StringPolicy =&gt; PolicyAutoBuilder[String]): String</text></g></g><g transform="translate(-391,-329) scale(1,1)"><path fill="none" stroke="#000000" d="M 671 546 L 795 496" stroke-miterlimit="10"/></g><g transform="translate(-391,-329) scale(1,1)"><path fill="#FFFFFF" stroke="none" d="M 779.2978804374408 511.4091998897767 L 795 496 L 773.0009750435923 495.79287451303253"/></g><g transform="translate(-391,-329) scale(1,1)"><path fill="none" stroke="#000000" d="M 779.2978804374408 511.4091998897767 L 795 496 L 773.0009750435923 495.79287451303253 L 779.2978804374408 511.4091998897767" stroke-miterlimit="10"/></g><g transform="translate(-391,-329) scale(1,1)"><path fill="none" stroke="#000000" d="M 603 642 L 618 585" stroke-miterlimit="10"/></g><g transform="translate(-391,-329) scale(1,1)"><path fill="#FFFFFF" stroke="none" d="M 620.96916956395 606.7987162947848 L 618 585 L 604.6854998199578 602.5135400463657"/></g><g transform="translate(-391,-329) scale(1,1)"><path fill="none" stroke="#000000" d="M 620.96916956395 606.7987162947848 L 618 585 L 604.6854998199578 602.5135400463657 L 620.96916956395 606.7987162947848" stroke-miterlimit="10"/></g><g transform="translate(-391,-329) scale(1,1)"><path fill="none" stroke="#000000" d="M 635 684 L 835 794" stroke-miterlimit="10"/></g><g transform="translate(-391,-329) scale(1,1)"><path fill="#FFFFFF" stroke="none" d="M 813.1333141618372 791.5817257279017 L 835 794 L 821.2478962983289 776.8279400251896"/></g><g transform="translate(-391,-329) scale(1,1)"><path fill="none" stroke="#000000" d="M 813.1333141618372 791.5817257279017 L 835 794 L 821.2478962983289 776.8279400251896 L 813.1333141618372 791.5817257279017" stroke-miterlimit="10"/></g><g transform="translate(-391,-329) scale(1,1)"><path fill="none" stroke="#000000" d="M 596 684 L 592 818" stroke-miterlimit="10"/></g><g transform="translate(-391,-329) scale(1,1)"><path fill="#FFFFFF" stroke="none" d="M 584.1911696661736 797.4324972634616 L 592 818 L 601.0217437748952 797.9349024607369"/></g><g transform="translate(-391,-329) scale(1,1)"><path fill="none" stroke="#000000" d="M 584.1911696661736 797.4324972634616 L 592 818 L 601.0217437748952 797.9349024607369 L 584.1911696661736 797.4324972634616" stroke-miterlimit="10"/></g><g transform="translate(-391,-329) scale(1,1)"><path fill="none" stroke="#000000" d="M 749 642 L 656 585" stroke-miterlimit="10"/></g><g transform="translate(-391,-329) scale(1,1)"><path fill="#FFFFFF" stroke="none" d="M 677.7288871458583 588.4431763536819 L 656 585 L 668.9299500999639 602.7993367969833"/></g><g transform="translate(-391,-329) scale(1,1)"><path fill="none" stroke="#000000" d="M 677.7288871458583 588.4431763536819 L 656 585 L 668.9299500999639 602.7993367969833 L 677.7288871458583 588.4431763536819" stroke-miterlimit="10"/></g><g transform="translate(-391,-329) scale(1,1)"><path fill="none" stroke="#000000" d="M 800 684 L 892 794" stroke-miterlimit="10"/></g><g transform="translate(-391,-329) scale(1,1)"><path fill="#FFFFFF" stroke="none" d="M 872.5021187781106 783.8101703715375 L 892 794 L 885.4182135986536 773.0076183398107"/></g><g transform="translate(-391,-329) scale(1,1)"><path fill="none" stroke="#000000" d="M 872.5021187781106 783.8101703715375 L 892 794 L 885.4182135986536 773.0076183398107 L 872.5021187781106 783.8101703715375" stroke-miterlimit="10"/></g><g transform="translate(-391,-329) scale(1,1)"><path fill="none" stroke="#000000" d="M 763 684 L 633 818" stroke-miterlimit="10"/></g><g transform="translate(-391,-329) scale(1,1)"><path fill="#FFFFFF" stroke="none" d="M 641.1101448047532 797.5494364076211 L 633 818 L 653.1954705831037 809.274006192588"/></g><g transform="translate(-391,-329) scale(1,1)"><path fill="none" stroke="#000000" d="M 641.1101448047532 797.5494364076211 L 633 818 L 653.1954705831037 809.274006192588 L 641.1101448047532 797.5494364076211" stroke-miterlimit="10"/></g><g transform="translate(-391,-329) scale(1,1)"><path fill="none" stroke="#000000" d="M 1200 555 L 1051 496" stroke-miterlimit="10"/></g><g transform="translate(-391,-329) scale(1,1)"><path fill="#FFFFFF" stroke="none" d="M 1072.997299384063 495.65529750812794 L 1051 496 L 1066.7981810317563 511.3106980927669"/></g><g transform="translate(-391,-329) scale(1,1)"><path fill="none" stroke="#000000" d="M 1072.997299384063 495.65529750812794 L 1051 496 L 1066.7981810317563 511.3106980927669 L 1072.997299384063 495.65529750812794" stroke-miterlimit="10"/></g><g transform="translate(-391,-329) scale(1,1)"><path fill="none" stroke="#000000" d="M 1212 592 L 1001 794" stroke-miterlimit="10"/></g><g transform="translate(-391,-329) scale(1,1)"><path fill="#FFFFFF" stroke="none" d="M 1009.8598573686281 773.862896747358 L 1001 794 L 1021.5039474890995 786.0257829623057"/></g><g transform="translate(-391,-329) scale(1,1)"><path fill="none" stroke="#000000" d="M 1009.8598573686281 773.862896747358 L 1001 794 L 1021.5039474890995 786.0257829623057 L 1009.8598573686281 773.862896747358" stroke-miterlimit="10"/></g><g transform="translate(-391,-329) scale(1,1)"><path fill="none" stroke="#000000" d="M 1200 585 L 686 818" stroke-miterlimit="10"/></g><g transform="translate(-391,-329) scale(1,1)"><path fill="#FFFFFF" stroke="none" d="M 701.0361892042135 801.940329573273 L 686 818 L 707.9880932118631 817.2762894871437"/></g><g transform="translate(-391,-329) scale(1,1)"><path fill="none" stroke="#000000" d="M 701.0361892042135 801.940329573273 L 686 818 L 707.9880932118631 817.2762894871437 L 701.0361892042135 801.940329573273" stroke-miterlimit="10"/></g><g transform="translate(-391,-329) scale(1,1)"><path fill="none" stroke="#000000" d="M 492 643 L 590 585" stroke-miterlimit="10"/></g><g transform="translate(-391,-329) scale(1,1)"><path fill="#FFFFFF" stroke="none" d="M 576.7964686577146 602.5973509396525 L 590 585 L 568.2204872719132 588.1068996326086"/></g><g transform="translate(-391,-329) scale(1,1)"><path fill="none" stroke="#000000" d="M 576.7964686577146 602.5973509396525 L 590 585 L 568.2204872719132 588.1068996326086 L 576.7964686577146 602.5973509396525" stroke-miterlimit="10"/></g><g transform="translate(-391,-329) scale(1,1)"><path fill="none" stroke="#000000" d="M 470 688 L 561 818" stroke-miterlimit="10"/></g><g transform="translate(-391,-329) scale(1,1)"><path fill="#FFFFFF" stroke="none" d="M 542.4470346708492 806.176824559564 L 561 818 L 556.2413199337292 796.520824875548"/></g><g transform="translate(-391,-329) scale(1,1)"><path fill="none" stroke="#000000" d="M 542.4470346708492 806.176824559564 L 561 818 L 556.2413199337292 796.520824875548 L 542.4470346708492 806.176824559564" stroke-miterlimit="10"/></g><g transform="translate(-391,-329) scale(1,1)"><path fill="none" stroke="#000000" d="M 1332 778 L 1247 592" stroke-miterlimit="10" stroke-dasharray="3"/></g><g transform="translate(-391,-329) scale(1,1)"><path fill="none" stroke="#000000" d="M 1255.0527281123075 599.4935685723995 L 1247 592 L 1247.3953855024342 602.9928918080942" stroke-miterlimit="10"/></g><g transform="translate(-391,-329) scale(1,1)"><g><path fill="none" stroke="none"/><text fill="#000000" stroke="none" font-family="Arial" font-size="13px" font-style="normal" font-weight="normal" text-decoration="none" x="1280.5" y="746.5">+use</text></g></g><g transform="translate(-391,-329) scale(1,1)"><path fill="none" stroke="#000000" d="M 681 579 L 969 651 L 1235 778" stroke-miterlimit="10"/></g><g transform="translate(-391,-329) scale(1,1)"><path fill="#FFFFFF" stroke="none" d="M 1224.0152954021457 777.4201164790429 L 1235 778 L 1227.6426804594932 769.8226013195591 L 1215.146736135063 768.5211860494475"/></g><g transform="translate(-391,-329) scale(1,1)"><path fill="none" stroke="#000000" d="M 1224.0152954021457 777.4201164790429 L 1235 778 L 1227.6426804594932 769.8226013195591 L 1215.146736135063 768.5211860494475 L 1224.0152954021457 777.4201164790429" stroke-miterlimit="10"/></g><g transform="translate(-391,-329) scale(1,1)"><g><path fill="none" stroke="none"/><text fill="#000000" stroke="none" font-family="Arial" font-size="13px" font-style="normal" font-weight="normal" text-decoration="none" x="695.970458984375" y="575.5">*</text></g></g><g transform="translate(-391,-329) scale(1,1)"><g><path fill="none" stroke="none"/><text fill="#000000" stroke="none" font-family="Arial" font-size="13px" font-style="normal" font-weight="normal" text-decoration="none" x="1207.74365234375" y="758.5">1..*</text></g></g></g></svg>