<svg version="1.1" xmlns="http://www.w3.org/2000/svg" xmlns:xlink="http://www.w3.org/1999/xlink" width="496.99169921875" height="275"><defs/><g><g transform="translate(-518,-190) scale(1,1)"><rect fill="#C0C0C0" stroke="none" x="663" y="311" width="88.94472656250002" height="15" opacity="0.2"/></g><g transform="translate(-518,-190) scale(1,1)"><rect fill="#C0C0C0" stroke="none" x="663" y="325" width="222.36181640625" height="27" opacity="0.2"/></g><g transform="translate(-518,-190) scale(1,1)"><rect fill="#ffffff" stroke="none" x="656" y="319" width="222.36181640625" height="26"/></g><g transform="translate(-518,-190) scale(1,1)"><path fill="none" stroke="#000000" d="M 656 319 L 878.36181640625 319 L 878.36181640625 345 L 656 345 L 656 319 Z Z" stroke-miterlimit="10"/></g><g transform="translate(-518,-190) scale(1,1)"><rect fill="#ffffff" stroke="none" x="656" y="304" width="88.94472656250002" height="15"/></g><g transform="translate(-518,-190) scale(1,1)"><path fill="none" stroke="#000000" d="M 656 304 L 744.9447265625 304 L 744.9447265625 319 L 656 319 L 656 304 Z Z" stroke-miterlimit="10"/></g><g transform="translate(-518,-190) scale(1,1)"><rect fill="#ffffff" stroke="none" x="656" y="318" width="222.36181640625" height="27"/></g><g transform="translate(-518,-190) scale(1,1)"><path fill="none" stroke="#000000" d="M 656 318 L 878.36181640625 318 L 878.36181640625 345 L 656 345 L 656 318 Z Z" stroke-miterlimit="10"/></g><g transform="translate(-518,-190) scale(1,1)"><g><path fill="none" stroke="none"/><text fill="#000000" stroke="none" font-family="Arial" font-size="15px" font-style="normal" font-weight="bold" text-decoration="none" x="670.889404296875" y="340.5">it.unibo.authsim.library.policy</text></g></g><g transform="translate(-518,-190) scale(1,1)"><rect fill="#C0C0C0" stroke="none" x="615" y="415" width="27.5966796875" height="15" opacity="0.2"/></g><g transform="translate(-518,-190) scale(1,1)"><rect fill="#C0C0C0" stroke="none" x="615" y="429" width="68.99169921875" height="25" opacity="0.2"/></g><g transform="translate(-518,-190) scale(1,1)"><rect fill="#ffffff" stroke="none" x="608" y="423" width="68.99169921875" height="24"/></g><g transform="translate(-518,-190) scale(1,1)"><path fill="none" stroke="#000000" d="M 608 423 L 676.99169921875 423 L 676.99169921875 447 L 608 447 L 608 423 Z Z" stroke-miterlimit="10"/></g><g transform="translate(-518,-190) scale(1,1)"><rect fill="#ffffff" stroke="none" x="608" y="408" width="27.5966796875" height="15"/></g><g transform="translate(-518,-190) scale(1,1)"><path fill="none" stroke="#000000" d="M 608 408 L 635.5966796875 408 L 635.5966796875 423 L 608 423 L 608 408 Z Z" stroke-miterlimit="10"/></g><g transform="translate(-518,-190) scale(1,1)"><rect fill="#ffffff" stroke="none" x="608" y="422" width="68.99169921875" height="25"/></g><g transform="translate(-518,-190) scale(1,1)"><path fill="none" stroke="#000000" d="M 608 422 L 676.99169921875 422 L 676.99169921875 447 L 608 447 L 608 422 Z Z" stroke-miterlimit="10"/></g><g transform="translate(-518,-190) scale(1,1)"><g><path fill="none" stroke="none"/><text fill="#000000" stroke="none" font-family="Arial" font-size="13px" font-style="normal" font-weight="bold" text-decoration="none" x="619.733154296875" y="442.5">builders</text></g></g><g transform="translate(-518,-190) scale(1,1)"><rect fill="#C0C0C0" stroke="none" x="735" y="423" width="27.5966796875" height="15" opacity="0.2"/></g><g transform="translate(-518,-190) scale(1,1)"><rect fill="#C0C0C0" stroke="none" x="735" y="437" width="68.99169921875" height="25" opacity="0.2"/></g><g transform="translate(-518,-190) scale(1,1)"><rect fill="#ffffff" stroke="none" x="728" y="431" width="68.99169921875" height="24"/></g><g transform="translate(-518,-190) scale(1,1)"><path fill="none" stroke="#000000" d="M 728 431 L 796.99169921875 431 L 796.99169921875 455 L 728 455 L 728 431 Z Z" stroke-miterlimit="10"/></g><g transform="translate(-518,-190) scale(1,1)"><rect fill="#ffffff" stroke="none" x="728" y="416" width="27.5966796875" height="15"/></g><g transform="translate(-518,-190) scale(1,1)"><path fill="none" stroke="#000000" d="M 728 416 L 755.5966796875 416 L 755.5966796875 431 L 728 431 L 728 416 Z Z" stroke-miterlimit="10"/></g><g transform="translate(-518,-190) scale(1,1)"><rect fill="#ffffff" stroke="none" x="728" y="430" width="68.99169921875" height="25"/></g><g transform="translate(-518,-190) scale(1,1)"><path fill="none" stroke="#000000" d="M 728 430 L 796.99169921875 430 L 796.99169921875 455 L 728 455 L 728 430 Z Z" stroke-miterlimit="10"/></g><g transform="translate(-518,-190) scale(1,1)"><g><path fill="none" stroke="none"/><text fill="#000000" stroke="none" font-family="Arial" font-size="13px" font-style="normal" font-weight="bold" text-decoration="none" x="735.75634765625" y="450.5">changers</text></g></g><g transform="translate(-518,-190) scale(1,1)"><rect fill="#C0C0C0" stroke="none" x="535" y="311" width="27.5966796875" height="15" opacity="0.2"/></g><g transform="translate(-518,-190) scale(1,1)"><rect fill="#C0C0C0" stroke="none" x="535" y="325" width="68.99169921875" height="25" opacity="0.2"/></g><g transform="translate(-518,-190) scale(1,1)"><rect fill="#ffffff" stroke="none" x="528" y="319" width="68.99169921875" height="24"/></g><g transform="translate(-518,-190) scale(1,1)"><path fill="none" stroke="#000000" d="M 528 319 L 596.99169921875 319 L 596.99169921875 343 L 528 343 L 528 319 Z Z" stroke-miterlimit="10"/></g><g transform="translate(-518,-190) scale(1,1)"><rect fill="#ffffff" stroke="none" x="528" y="304" width="27.5966796875" height="15"/></g><g transform="translate(-518,-190) scale(1,1)"><path fill="none" stroke="#000000" d="M 528 304 L 555.5966796875 304 L 555.5966796875 319 L 528 319 L 528 304 Z Z" stroke-miterlimit="10"/></g><g transform="translate(-518,-190) scale(1,1)"><rect fill="#ffffff" stroke="none" x="528" y="318" width="68.99169921875" height="25"/></g><g transform="translate(-518,-190) scale(1,1)"><path fill="none" stroke="#000000" d="M 528 318 L 596.99169921875 318 L 596.99169921875 343 L 528 343 L 528 318 Z Z" stroke-miterlimit="10"/></g><g transform="translate(-518,-190) scale(1,1)"><g><path fill="none" stroke="none"/><text fill="#000000" stroke="none" font-family="Arial" font-size="13px" font-style="normal" font-weight="bold" text-decoration="none" x="537.555908203125" y="338.5">alphabet</text></g></g><g transform="translate(-518,-190) scale(1,1)"><rect fill="#C0C0C0" stroke="none" x="879" y="423" width="27.5966796875" height="15" opacity="0.2"/></g><g transform="translate(-518,-190) scale(1,1)"><rect fill="#C0C0C0" stroke="none" x="879" y="437" width="68.99169921875" height="25" opacity="0.2"/></g><g transform="translate(-518,-190) scale(1,1)"><rect fill="#ffffff" stroke="none" x="872" y="431" width="68.99169921875" height="24"/></g><g transform="translate(-518,-190) scale(1,1)"><path fill="none" stroke="#000000" d="M 872 431 L 940.99169921875 431 L 940.99169921875 455 L 872 455 L 872 431 Z Z" stroke-miterlimit="10"/></g><g transform="translate(-518,-190) scale(1,1)"><rect fill="#ffffff" stroke="none" x="872" y="416" width="27.5966796875" height="15"/></g><g transform="translate(-518,-190) scale(1,1)"><path fill="none" stroke="#000000" d="M 872 416 L 899.5966796875 416 L 899.5966796875 431 L 872 431 L 872 416 Z Z" stroke-miterlimit="10"/></g><g transform="translate(-518,-190) scale(1,1)"><rect fill="#ffffff" stroke="none" x="872" y="430" width="68.99169921875" height="25"/></g><g transform="translate(-518,-190) scale(1,1)"><path fill="none" stroke="#000000" d="M 872 430 L 940.99169921875 430 L 940.99169921875 455 L 872 455 L 872 430 Z Z" stroke-miterlimit="10"/></g><g transform="translate(-518,-190) scale(1,1)"><g><path fill="none" stroke="none"/><text fill="#000000" stroke="none" font-family="Arial" font-size="13px" font-style="normal" font-weight="bold" text-decoration="none" x="880.486328125" y="450.5">checkers</text></g></g><g transform="translate(-518,-190) scale(1,1)"><rect fill="#C0C0C0" stroke="none" x="943" y="311" width="27.5966796875" height="15" opacity="0.2"/></g><g transform="translate(-518,-190) scale(1,1)"><rect fill="#C0C0C0" stroke="none" x="943" y="325" width="68.99169921875" height="25" opacity="0.2"/></g><g transform="translate(-518,-190) scale(1,1)"><rect fill="#ffffff" stroke="none" x="936" y="319" width="68.99169921875" height="24"/></g><g transform="translate(-518,-190) scale(1,1)"><path fill="none" stroke="#000000" d="M 936 319 L 1004.99169921875 319 L 1004.99169921875 343 L 936 343 L 936 319 Z Z" stroke-miterlimit="10"/></g><g transform="translate(-518,-190) scale(1,1)"><rect fill="#ffffff" stroke="none" x="936" y="304" width="27.5966796875" height="15"/></g><g transform="translate(-518,-190) scale(1,1)"><path fill="none" stroke="#000000" d="M 936 304 L 963.5966796875 304 L 963.5966796875 319 L 936 319 L 936 304 Z Z" stroke-miterlimit="10"/></g><g transform="translate(-518,-190) scale(1,1)"><rect fill="#ffffff" stroke="none" x="936" y="318" width="68.99169921875" height="25"/></g><g transform="translate(-518,-190) scale(1,1)"><path fill="none" stroke="#000000" d="M 936 318 L 1004.99169921875 318 L 1004.99169921875 343 L 936 343 L 936 318 Z Z" stroke-miterlimit="10"/></g><g transform="translate(-518,-190) scale(1,1)"><g><path fill="none" stroke="none"/><text fill="#000000" stroke="none" font-family="Arial" font-size="13px" font-style="normal" font-weight="bold" text-decoration="none" x="947.72998046875" y="338.5">defaults</text></g></g><g transform="translate(-518,-190) scale(1,1)"><rect fill="#C0C0C0" stroke="none" x="879" y="215" width="28.746875000000045" height="15" opacity="0.2"/></g><g transform="translate(-518,-190) scale(1,1)"><rect fill="#C0C0C0" stroke="none" x="879" y="229" width="71.8671875" height="25" opacity="0.2"/></g><g transform="translate(-518,-190) scale(1,1)"><rect fill="#ffffff" stroke="none" x="872" y="223" width="71.8671875" height="24"/></g><g transform="translate(-518,-190) scale(1,1)"><path fill="none" stroke="#000000" d="M 872 223 L 943.8671875 223 L 943.8671875 247 L 872 247 L 872 223 Z Z" stroke-miterlimit="10"/></g><g transform="translate(-518,-190) scale(1,1)"><rect fill="#ffffff" stroke="none" x="872" y="208" width="28.746875000000045" height="15"/></g><g transform="translate(-518,-190) scale(1,1)"><path fill="none" stroke="#000000" d="M 872 208 L 900.746875 208 L 900.746875 223 L 872 223 L 872 208 Z Z" stroke-miterlimit="10"/></g><g transform="translate(-518,-190) scale(1,1)"><rect fill="#ffffff" stroke="none" x="872" y="222" width="71.8671875" height="25"/></g><g transform="translate(-518,-190) scale(1,1)"><path fill="none" stroke="#000000" d="M 872 222 L 943.8671875 222 L 943.8671875 247 L 872 247 L 872 222 Z Z" stroke-miterlimit="10"/></g><g transform="translate(-518,-190) scale(1,1)"><g><path fill="none" stroke="none"/><text fill="#000000" stroke="none" font-family="Arial" font-size="13px" font-style="normal" font-weight="bold" text-decoration="none" x="879.397705078125" y="242.5">extractors</text></g></g><g transform="translate(-518,-190) scale(1,1)"><rect fill="#C0C0C0" stroke="none" x="607" y="215" width="30.475976562500023" height="15" opacity="0.2"/></g><g transform="translate(-518,-190) scale(1,1)"><rect fill="#C0C0C0" stroke="none" x="607" y="229" width="76.18994140625" height="25" opacity="0.2"/></g><g transform="translate(-518,-190) scale(1,1)"><rect fill="#ffffff" stroke="none" x="600" y="223" width="76.18994140625" height="24"/></g><g transform="translate(-518,-190) scale(1,1)"><path fill="none" stroke="#000000" d="M 600 223 L 676.18994140625 223 L 676.18994140625 247 L 600 247 L 600 223 Z Z" stroke-miterlimit="10"/></g><g transform="translate(-518,-190) scale(1,1)"><rect fill="#ffffff" stroke="none" x="600" y="208" width="30.475976562500023" height="15"/></g><g transform="translate(-518,-190) scale(1,1)"><path fill="none" stroke="#000000" d="M 600 208 L 630.4759765625 208 L 630.4759765625 223 L 600 223 L 600 208 Z Z" stroke-miterlimit="10"/></g><g transform="translate(-518,-190) scale(1,1)"><rect fill="#ffffff" stroke="none" x="600" y="222" width="76.18994140625" height="25"/></g><g transform="translate(-518,-190) scale(1,1)"><path fill="none" stroke="#000000" d="M 600 222 L 676.18994140625 222 L 676.18994140625 247 L 600 247 L 600 222 Z Z" stroke-miterlimit="10"/></g><g transform="translate(-518,-190) scale(1,1)"><g><path fill="none" stroke="none"/><text fill="#000000" stroke="none" font-family="Arial" font-size="13px" font-style="normal" font-weight="bold" text-decoration="none" x="607.02001953125" y="242.5">generators</text></g></g><g transform="translate(-518,-190) scale(1,1)"><rect fill="#C0C0C0" stroke="none" x="743" y="207" width="27.5966796875" height="15" opacity="0.2"/></g><g transform="translate(-518,-190) scale(1,1)"><rect fill="#C0C0C0" stroke="none" x="743" y="221" width="68.99169921875" height="25" opacity="0.2"/></g><g transform="translate(-518,-190) scale(1,1)"><rect fill="#ffffff" stroke="none" x="736" y="215" width="68.99169921875" height="24"/></g><g transform="translate(-518,-190) scale(1,1)"><path fill="none" stroke="#000000" d="M 736 215 L 804.99169921875 215 L 804.99169921875 239 L 736 239 L 736 215 Z Z" stroke-miterlimit="10"/></g><g transform="translate(-518,-190) scale(1,1)"><rect fill="#ffffff" stroke="none" x="736" y="200" width="27.5966796875" height="15"/></g><g transform="translate(-518,-190) scale(1,1)"><path fill="none" stroke="#000000" d="M 736 200 L 763.5966796875 200 L 763.5966796875 215 L 736 215 L 736 200 Z Z" stroke-miterlimit="10"/></g><g transform="translate(-518,-190) scale(1,1)"><rect fill="#ffffff" stroke="none" x="736" y="214" width="68.99169921875" height="25"/></g><g transform="translate(-518,-190) scale(1,1)"><path fill="none" stroke="#000000" d="M 736 214 L 804.99169921875 214 L 804.99169921875 239 L 736 239 L 736 214 Z Z" stroke-miterlimit="10"/></g><g transform="translate(-518,-190) scale(1,1)"><g><path fill="none" stroke="none"/><text fill="#000000" stroke="none" font-family="Arial" font-size="13px" font-style="normal" font-weight="bold" text-decoration="none" x="752.792236328125" y="234.5">model</text></g></g><g transform="translate(-518,-190) scale(1,1)"><path fill="none" stroke="#000000" d="M 598 323 L 655 323" stroke-miterlimit="10"/></g><g transform="translate(-518,-190) scale(1,1)"><path fill="#FFFFFF" stroke="none" d="M 641 323 C 641 319.1340064 644.1340064 316 648 316 C 651.8659936 316 655 319.1340064 655 323 C 655 326.8659936 651.8659936 330 648 330 C 644.1340064 330 641 326.8659936 641 323 Z"/></g><g transform="translate(-518,-190) scale(1,1)"><path fill="none" stroke="#000000" d="M 641 323 C 641 319.1340064 644.1340064 316 648 316 C 651.8659936 316 655 319.1340064 655 323 C 655 326.8659936 651.8659936 330 648 330 C 644.1340064 330 641 326.8659936 641 323 Z" stroke-miterlimit="10"/></g><g transform="translate(-518,-190) scale(1,1)"><path fill="none" stroke="#000000" d="M 641 323 L 655 323" stroke-miterlimit="10"/></g><g transform="translate(-518,-190) scale(1,1)"><path fill="none" stroke="#000000" d="M 648 330 L 648 316" stroke-miterlimit="10"/></g><g transform="translate(-518,-190) scale(1,1)"><path fill="none" stroke="#000000" d="M 666 407 L 740 346" stroke-miterlimit="10"/></g><g transform="translate(-518,-190) scale(1,1)"><path fill="#FFFFFF" stroke="none" d="M 727.5985959404114 350.452508751823 C 727.5985959404114 346.586515151823 730.7326023404114 343.452508751823 734.5985959404114 343.452508751823 C 738.4645895404115 343.452508751823 741.5985959404114 346.586515151823 741.5985959404114 350.452508751823 C 741.5985959404114 354.31850235182304 738.4645895404115 357.452508751823 734.5985959404114 357.452508751823 C 730.7326023404114 357.452508751823 727.5985959404114 354.31850235182304 727.5985959404114 350.452508751823 Z"/></g><g transform="translate(-518,-190) scale(1,1)"><path fill="none" stroke="#000000" d="M 727.5985959404114 350.452508751823 C 727.5985959404114 346.586515151823 730.7326023404114 343.452508751823 734.5985959404114 343.452508751823 C 738.4645895404115 343.452508751823 741.5985959404114 346.586515151823 741.5985959404114 350.452508751823 C 741.5985959404114 354.31850235182304 738.4645895404115 357.452508751823 734.5985959404114 357.452508751823 C 730.7326023404114 357.452508751823 727.5985959404114 354.31850235182304 727.5985959404114 350.452508751823 Z" stroke-miterlimit="10"/></g><g transform="translate(-518,-190) scale(1,1)"><path fill="none" stroke="#000000" d="M 729.1971918808229 354.905017503646 L 740 346" stroke-miterlimit="10"/></g><g transform="translate(-518,-190) scale(1,1)"><path fill="none" stroke="#000000" d="M 739.0511046922344 355.8539128114116 L 730.1460871885885 345.05110469223445" stroke-miterlimit="10"/></g><g transform="translate(-518,-190) scale(1,1)"><path fill="none" stroke="#000000" d="M 763 415 L 766 346" stroke-miterlimit="10"/></g><g transform="translate(-518,-190) scale(1,1)"><path fill="#FFFFFF" stroke="none" d="M 758.6959394300659 352.9933931084854 C 758.6959394300659 349.1273995084854 761.8299458300659 345.9933931084854 765.6959394300659 345.9933931084854 C 769.5619330300659 345.9933931084854 772.6959394300659 349.1273995084854 772.6959394300659 352.9933931084854 C 772.6959394300659 356.85938670848543 769.5619330300659 359.9933931084854 765.6959394300659 359.9933931084854 C 761.8299458300659 359.9933931084854 758.6959394300659 356.85938670848543 758.6959394300659 352.9933931084854 Z"/></g><g transform="translate(-518,-190) scale(1,1)"><path fill="none" stroke="#000000" d="M 758.6959394300659 352.9933931084854 C 758.6959394300659 349.1273995084854 761.8299458300659 345.9933931084854 765.6959394300659 345.9933931084854 C 769.5619330300659 345.9933931084854 772.6959394300659 349.1273995084854 772.6959394300659 352.9933931084854 C 772.6959394300659 356.85938670848543 769.5619330300659 359.9933931084854 765.6959394300659 359.9933931084854 C 761.8299458300659 359.9933931084854 758.6959394300659 356.85938670848543 758.6959394300659 352.9933931084854 Z" stroke-miterlimit="10"/></g><g transform="translate(-518,-190) scale(1,1)"><path fill="none" stroke="#000000" d="M 765.3918788601317 359.9867862169708 L 766 346" stroke-miterlimit="10"/></g><g transform="translate(-518,-190) scale(1,1)"><path fill="none" stroke="#000000" d="M 772.6893325385513 353.2974536784196 L 758.7025463215805 352.68933253855124" stroke-miterlimit="10"/></g><g transform="translate(-518,-190) scale(1,1)"><path fill="none" stroke="#000000" d="M 881 415 L 795 346" stroke-miterlimit="10"/></g><g transform="translate(-518,-190) scale(1,1)"><path fill="#FFFFFF" stroke="none" d="M 793.4598823288446 350.3806032638405 C 793.4598823288446 346.5146096638405 796.5938887288446 343.3806032638405 800.4598823288446 343.3806032638405 C 804.3258759288447 343.3806032638405 807.4598823288446 346.5146096638405 807.4598823288446 350.3806032638405 C 807.4598823288446 354.2465968638405 804.3258759288447 357.3806032638405 800.4598823288446 357.3806032638405 C 796.5938887288446 357.3806032638405 793.4598823288446 354.2465968638405 793.4598823288446 350.3806032638405 Z"/></g><g transform="translate(-518,-190) scale(1,1)"><path fill="none" stroke="#000000" d="M 793.4598823288446 350.3806032638405 C 793.4598823288446 346.5146096638405 796.5938887288446 343.3806032638405 800.4598823288446 343.3806032638405 C 804.3258759288447 343.3806032638405 807.4598823288446 346.5146096638405 807.4598823288446 350.3806032638405 C 807.4598823288446 354.2465968638405 804.3258759288447 357.3806032638405 800.4598823288446 357.3806032638405 C 796.5938887288446 357.3806032638405 793.4598823288446 354.2465968638405 793.4598823288446 350.3806032638405 Z" stroke-miterlimit="10"/></g><g transform="translate(-518,-190) scale(1,1)"><path fill="none" stroke="#000000" d="M 805.9197646576893 354.76120652768094 L 795 346" stroke-miterlimit="10"/></g><g transform="translate(-518,-190) scale(1,1)"><path fill="none" stroke="#000000" d="M 804.8404855926851 344.92072093499587 L 796.0792790650041 355.8404855926851" stroke-miterlimit="10"/></g><g transform="translate(-518,-190) scale(1,1)"><path fill="none" stroke="#000000" d="M 935 323 L 879 323" stroke-miterlimit="10"/></g><g transform="translate(-518,-190) scale(1,1)"><path fill="#FFFFFF" stroke="none" d="M 879 323 C 879 319.1340064 882.1340064 316 886 316 C 889.8659936 316 893 319.1340064 893 323 C 893 326.8659936 889.8659936 330 886 330 C 882.1340064 330 879 326.8659936 879 323 Z"/></g><g transform="translate(-518,-190) scale(1,1)"><path fill="none" stroke="#000000" d="M 879 323 C 879 319.1340064 882.1340064 316 886 316 C 889.8659936 316 893 319.1340064 893 323 C 893 326.8659936 889.8659936 330 886 330 C 882.1340064 330 879 326.8659936 879 323 Z" stroke-miterlimit="10"/></g><g transform="translate(-518,-190) scale(1,1)"><path fill="none" stroke="#000000" d="M 893 323 L 879 323" stroke-miterlimit="10"/></g><g transform="translate(-518,-190) scale(1,1)"><path fill="none" stroke="#000000" d="M 886 316 L 886 330" stroke-miterlimit="10"/></g><g transform="translate(-518,-190) scale(1,1)"><path fill="none" stroke="#000000" d="M 877 248 L 797 303" stroke-miterlimit="10"/></g><g transform="translate(-518,-190) scale(1,1)"><path fill="#FFFFFF" stroke="none" d="M 795.7682934693955 299.03429823979053 C 795.7682934693955 295.1683046397905 798.9022998693955 292.03429823979053 802.7682934693955 292.03429823979053 C 806.6342870693956 292.03429823979053 809.7682934693955 295.1683046397905 809.7682934693955 299.03429823979053 C 809.7682934693955 302.90029183979055 806.6342870693956 306.03429823979053 802.7682934693955 306.03429823979053 C 798.9022998693955 306.03429823979053 795.7682934693955 302.90029183979055 795.7682934693955 299.03429823979053 Z"/></g><g transform="translate(-518,-190) scale(1,1)"><path fill="none" stroke="#000000" d="M 795.7682934693955 299.03429823979053 C 795.7682934693955 295.1683046397905 798.9022998693955 292.03429823979053 802.7682934693955 292.03429823979053 C 806.6342870693956 292.03429823979053 809.7682934693955 295.1683046397905 809.7682934693955 299.03429823979053 C 809.7682934693955 302.90029183979055 806.6342870693956 306.03429823979053 802.7682934693955 306.03429823979053 C 798.9022998693955 306.03429823979053 795.7682934693955 302.90029183979055 795.7682934693955 299.03429823979053 Z" stroke-miterlimit="10"/></g><g transform="translate(-518,-190) scale(1,1)"><path fill="none" stroke="#000000" d="M 808.5365869387912 295.06859647958106 L 797 303" stroke-miterlimit="10"/></g><g transform="translate(-518,-190) scale(1,1)"><path fill="none" stroke="#000000" d="M 798.8025917091861 293.26600477039494 L 806.733995229605 304.8025917091861" stroke-miterlimit="10"/></g><g transform="translate(-518,-190) scale(1,1)"><path fill="none" stroke="#000000" d="M 769 240 L 768 303" stroke-miterlimit="10"/></g><g transform="translate(-518,-190) scale(1,1)"><path fill="#FFFFFF" stroke="none" d="M 761.1110971163871 296.0008816676148 C 761.1110971163871 292.1348880676148 764.2451035163871 289.0008816676148 768.1110971163871 289.0008816676148 C 771.9770907163871 289.0008816676148 775.1110971163871 292.1348880676148 775.1110971163871 296.0008816676148 C 775.1110971163871 299.86687526761483 771.9770907163871 303.0008816676148 768.1110971163871 303.0008816676148 C 764.2451035163871 303.0008816676148 761.1110971163871 299.86687526761483 761.1110971163871 296.0008816676148 Z"/></g><g transform="translate(-518,-190) scale(1,1)"><path fill="none" stroke="#000000" d="M 761.1110971163871 296.0008816676148 C 761.1110971163871 292.1348880676148 764.2451035163871 289.0008816676148 768.1110971163871 289.0008816676148 C 771.9770907163871 289.0008816676148 775.1110971163871 292.1348880676148 775.1110971163871 296.0008816676148 C 775.1110971163871 299.86687526761483 771.9770907163871 303.0008816676148 768.1110971163871 303.0008816676148 C 764.2451035163871 303.0008816676148 761.1110971163871 299.86687526761483 761.1110971163871 296.0008816676148 Z" stroke-miterlimit="10"/></g><g transform="translate(-518,-190) scale(1,1)"><path fill="none" stroke="#000000" d="M 768.2221942327741 289.0017633352296 L 768 303" stroke-miterlimit="10"/></g><g transform="translate(-518,-190) scale(1,1)"><path fill="none" stroke="#000000" d="M 761.111978784002 295.88978455122776 L 775.1102154487722 296.11197878400185" stroke-miterlimit="10"/></g><g transform="translate(-518,-190) scale(1,1)"><path fill="none" stroke="#000000" d="M 666 248 L 739 303" stroke-miterlimit="10"/></g><g transform="translate(-518,-190) scale(1,1)"><path fill="#FFFFFF" stroke="none" d="M 726.4092037567563 298.7877562550903 C 726.4092037567563 294.9217626550903 729.5432101567562 291.7877562550903 733.4092037567563 291.7877562550903 C 737.2751973567563 291.7877562550903 740.4092037567563 294.9217626550903 740.4092037567563 298.7877562550903 C 740.4092037567563 302.6537498550903 737.2751973567563 305.7877562550903 733.4092037567563 305.7877562550903 C 729.5432101567562 305.7877562550903 726.4092037567563 302.6537498550903 726.4092037567563 298.7877562550903 Z"/></g><g transform="translate(-518,-190) scale(1,1)"><path fill="none" stroke="#000000" d="M 726.4092037567563 298.7877562550903 C 726.4092037567563 294.9217626550903 729.5432101567562 291.7877562550903 733.4092037567563 291.7877562550903 C 737.2751973567563 291.7877562550903 740.4092037567563 294.9217626550903 740.4092037567563 298.7877562550903 C 740.4092037567563 302.6537498550903 737.2751973567563 305.7877562550903 733.4092037567563 305.7877562550903 C 729.5432101567562 305.7877562550903 726.4092037567563 302.6537498550903 726.4092037567563 298.7877562550903 Z" stroke-miterlimit="10"/></g><g transform="translate(-518,-190) scale(1,1)"><path fill="none" stroke="#000000" d="M 727.8184075135124 294.5755125101806 L 739 303" stroke-miterlimit="10"/></g><g transform="translate(-518,-190) scale(1,1)"><path fill="none" stroke="#000000" d="M 729.1969600118465 304.3785524983341 L 737.621447501666 293.1969600118465" stroke-miterlimit="10"/></g></g></svg>