<svg version="1.1" xmlns="http://www.w3.org/2000/svg" xmlns:xlink="http://www.w3.org/1999/xlink" width="1596" height="945"><defs/><g><g transform="translate(-166,-385) scale(1,1)"><rect fill="#C0C0C0" stroke="none" x="535" y="402" width="489.5999999999999" height="15" opacity="0.2"/></g><g transform="translate(-166,-385) scale(1,1)"><rect fill="#C0C0C0" stroke="none" x="535" y="416" width="1224" height="911" opacity="0.2"/></g><g transform="translate(-166,-385) scale(1,1)"><rect fill="#ffffff" stroke="none" x="528" y="410" width="1224" height="910"/></g><g transform="translate(-166,-385) scale(1,1)"><path fill="none" stroke="#000000" d="M 528 410 L 1752 410 L 1752 1320 L 528 1320 L 528 410 Z Z" stroke-miterlimit="10"/></g><g transform="translate(-166,-385) scale(1,1)"><rect fill="#ffffff" stroke="none" x="528" y="395" width="489.6" height="15"/></g><g transform="translate(-166,-385) scale(1,1)"><path fill="none" stroke="#000000" d="M 528 395 L 1017.6 395 L 1017.6 410 L 528 410 L 528 395 Z Z" stroke-miterlimit="10"/></g><g transform="translate(-166,-385) scale(1,1)"><rect fill="#ffffff" stroke="none" x="528" y="409" width="1224" height="911"/></g><g transform="translate(-166,-385) scale(1,1)"><path fill="none" stroke="#000000" d="M 528 409 L 1752 409 L 1752 1320 L 528 1320 L 528 409 Z Z" stroke-miterlimit="10"/></g><g transform="translate(-166,-385) scale(1,1)"><g><path fill="none" stroke="none"/><text fill="#000000" stroke="none" font-family="Arial" font-size="13px" font-style="normal" font-weight="bold" text-decoration="none" x="1116.516845703125" y="429.5">Builders</text></g></g><g transform="translate(-166,-385) scale(1,1)"><path fill="none" stroke="#000000" d="M 1479 1238 L 1416 1256 L 1334 1225" stroke-miterlimit="10" stroke-dasharray="3"/></g><g transform="translate(-166,-385) scale(1,1)"><path fill="none" stroke="#000000" d="M 1344.9946265278365 1224.6562158913061 L 1334 1225 L 1342.0174670489685 1232.5312828999251" stroke-miterlimit="10"/></g><g transform="translate(-166,-385) scale(1,1)"><g><path fill="none" stroke="none"/><text fill="#000000" stroke="none" font-family="Arial" font-size="13px" font-style="normal" font-weight="normal" text-decoration="none" x="1406.5" y="1288.5">+create</text></g></g><g transform="translate(-166,-385) scale(1,1)"><rect fill="#C0C0C0" stroke="none" x="1487" y="1167" width="249" height="85" opacity="0.2"/></g><g transform="translate(-166,-385) scale(1,1)"><rect fill="#ffffff" stroke="none" x="1480" y="1160" width="249" height="85"/></g><g transform="translate(-166,-385) scale(1,1)"><path fill="none" stroke="#000000" d="M 1480 1160 L 1729 1160 L 1729 1245 L 1480 1245 L 1480 1160 Z Z" stroke-miterlimit="10"/></g><g transform="translate(-166,-385) scale(1,1)"><path fill="none" stroke="#000000" d="M 1480 1198 L 1729 1198" stroke-miterlimit="10"/></g><g transform="translate(-166,-385) scale(1,1)"><path fill="none" stroke="#000000" d="M 1480 1208 L 1729 1208" stroke-miterlimit="10"/></g><g transform="translate(-166,-385) scale(1,1)"><g><path fill="none" stroke="none"/><text fill="#000000" stroke="none" font-family="Arial" font-size="13px" font-style="normal" font-weight="normal" text-decoration="none" x="1579.925048828125" y="1177.5">«object»</text></g></g><g transform="translate(-166,-385) scale(1,1)"><g><path fill="none" stroke="none"/><text fill="#000000" stroke="none" font-family="Arial" font-size="13px" font-style="normal" font-weight="bold" text-decoration="none" x="1566.92822265625" y="1192.5">PolicyBuilder</text></g></g><g transform="translate(-166,-385) scale(1,1)"><g><path fill="none" stroke="none"/><text fill="#000000" stroke="none" font-family="Arial" font-size="13px" font-style="normal" font-weight="normal" text-decoration="none" x="1485" y="1225.5">+apply(): PolicyBuilder</text></g></g><g transform="translate(-166,-385) scale(1,1)"><g><path fill="none" stroke="none"/><text fill="#000000" stroke="none" font-family="Arial" font-size="13px" font-style="normal" font-weight="normal" text-decoration="none" x="1485" y="1240.5">+apply(policyName: String): PolicyBuilder</text></g></g><g transform="translate(-166,-385) scale(1,1)"><rect fill="#C0C0C0" stroke="none" x="567" y="1145" width="545.22314453125" height="145" opacity="0.2"/></g><g transform="translate(-166,-385) scale(1,1)"><rect fill="#C0C0C0" stroke="none" x="1054.78955078125" y="1127" width="66.43359375" height="22" opacity="0.2"/></g><g transform="translate(-166,-385) scale(1,1)"><rect fill="#ffffff" stroke="none" x="560" y="1138" width="545.22314453125" height="145"/></g><g transform="translate(-166,-385) scale(1,1)"><path fill="none" stroke="#000000" d="M 560 1138 L 1105.22314453125 1138 L 1105.22314453125 1283 L 560 1283 L 560 1138 Z Z" stroke-miterlimit="10"/></g><g transform="translate(-166,-385) scale(1,1)"><path fill="none" stroke="#000000" d="M 560 1176 L 1105.22314453125 1176" stroke-miterlimit="10"/></g><g transform="translate(-166,-385) scale(1,1)"><path fill="none" stroke="#000000" d="M 560 1186 L 1105.22314453125 1186" stroke-miterlimit="10"/></g><g transform="translate(-166,-385) scale(1,1)"><g><path fill="none" stroke="none"/><text fill="#000000" stroke="none" font-family="Arial" font-size="13px" font-style="normal" font-weight="normal" text-decoration="none" x="814.546142578125" y="1155.5">«trait»</text></g></g><g transform="translate(-166,-385) scale(1,1)"><g><path fill="none" stroke="none"/><text fill="#000000" stroke="none" font-family="Arial" font-size="13px" font-style="normal" font-weight="bold" text-decoration="none" x="795.039794921875" y="1170.5">PolicyBuilder</text></g></g><g transform="translate(-166,-385) scale(1,1)"><g><path fill="none" stroke="none"/><text fill="#000000" stroke="none" font-family="Arial" font-size="13px" font-style="normal" font-weight="normal" text-decoration="none" x="565" y="1203.5">+of(credentialPolicy: (UserIDPolicy, PasswordPolicy)):  this.type</text></g></g><g transform="translate(-166,-385) scale(1,1)"><g><path fill="none" stroke="none"/><text fill="#000000" stroke="none" font-family="Arial" font-size="13px" font-style="normal" font-weight="normal" text-decoration="none" x="565" y="1218.5">+of(credentialPolicy: CredentialPolicy): this.type</text></g></g><g transform="translate(-166,-385) scale(1,1)"><g><path fill="none" stroke="none"/><text fill="#000000" stroke="none" font-family="Arial" font-size="13px" font-style="normal" font-weight="normal" text-decoration="none" x="565" y="1233.5">+and(credentialPolicy: CredentialPolicy): this.type</text></g></g><g transform="translate(-166,-385) scale(1,1)"><g><path fill="none" stroke="none"/><text fill="#000000" stroke="none" font-family="Arial" font-size="13px" font-style="normal" font-weight="normal" text-decoration="none" x="565" y="1248.5">+transmitWith(protocol: Protocol): this.type</text></g></g><g transform="translate(-166,-385) scale(1,1)"><g><path fill="none" stroke="none"/><text fill="#000000" stroke="none" font-family="Arial" font-size="13px" font-style="normal" font-weight="normal" text-decoration="none" x="565" y="1263.5">+storeWith(cryptographicAlgorithm: CryptographicAlgorithm): this.type</text></g></g><g transform="translate(-166,-385) scale(1,1)"><g><path fill="none" stroke="none"/><text fill="#000000" stroke="none" font-family="Arial" font-size="13px" font-style="normal" font-weight="normal" text-decoration="none" x="565" y="1278.5">+storeWith(cryptographicAlgorithmSalted: (CryptographicAlgorithm, SaltPolicy)):  this.type</text></g></g><g transform="translate(-166,-385) scale(1,1)"><rect fill="#ffffff" stroke="none" x="1047.78955078125" y="1120" width="66.43359375" height="22"/></g><g transform="translate(-166,-385) scale(1,1)"><path fill="none" stroke="#000000" d="M 1047.78955078125 1120 L 1114.22314453125 1120 L 1114.22314453125 1142 L 1047.78955078125 1142 L 1047.78955078125 1120 Z Z" stroke-miterlimit="10" stroke-dasharray="3"/></g><g transform="translate(-166,-385) scale(1,1)"><g><path fill="none" stroke="none"/><text fill="#000000" stroke="none" font-family="Arial" font-size="13px" font-style="normal" font-weight="normal" text-decoration="none" x="1052.78955078125" y="1137.5">T = Policy</text></g></g><g transform="translate(-166,-385) scale(1,1)"><rect fill="#C0C0C0" stroke="none" x="183" y="1023" width="305" height="85" opacity="0.2"/></g><g transform="translate(-166,-385) scale(1,1)"><rect fill="#ffffff" stroke="none" x="176" y="1016" width="305" height="85"/></g><g transform="translate(-166,-385) scale(1,1)"><path fill="none" stroke="#000000" d="M 176 1016 L 481 1016 L 481 1101 L 176 1101 L 176 1016 Z Z" stroke-miterlimit="10"/></g><g transform="translate(-166,-385) scale(1,1)"><path fill="none" stroke="#000000" d="M 176 1054 L 481 1054" stroke-miterlimit="10"/></g><g transform="translate(-166,-385) scale(1,1)"><path fill="none" stroke="#000000" d="M 176 1064 L 481 1064" stroke-miterlimit="10"/></g><g transform="translate(-166,-385) scale(1,1)"><g><path fill="none" stroke="none"/><text fill="#000000" stroke="none" font-family="Arial" font-size="13px" font-style="normal" font-weight="normal" text-decoration="none" x="310.4345703125" y="1033.5">«trait»</text></g></g><g transform="translate(-166,-385) scale(1,1)"><g><path fill="none" stroke="none"/><text fill="#000000" stroke="none" font-family="Arial" font-size="13px" font-style="normal" font-weight="bold" text-decoration="none" x="296.523681640625" y="1048.5">Builder[+S]</text></g></g><g transform="translate(-166,-385) scale(1,1)"><g><path fill="none" stroke="none"/><text fill="#000000" stroke="none" font-family="Arial" font-size="13px" font-style="normal" font-weight="normal" text-decoration="none" x="181" y="1081.5">+build(): S</text></g></g><g transform="translate(-166,-385) scale(1,1)"><g><path fill="none" stroke="none"/><text fill="#000000" stroke="none" font-family="Arial" font-size="13px" font-style="normal" font-weight="normal" text-decoration="none" x="181" y="1096.5">#builderMethod[T](f: T =&gt; Unit)(value: T): this.type</text></g></g><g transform="translate(-166,-385) scale(1,1)"><rect fill="#C0C0C0" stroke="none" x="559" y="474" width="468.79999999999995" height="15" opacity="0.2"/></g><g transform="translate(-166,-385) scale(1,1)"><rect fill="#C0C0C0" stroke="none" x="559" y="488" width="1172" height="562" opacity="0.2"/></g><g transform="translate(-166,-385) scale(1,1)"><rect fill="#ffffff" stroke="none" x="552" y="482" width="1172" height="561"/></g><g transform="translate(-166,-385) scale(1,1)"><path fill="none" stroke="#000000" d="M 552 482 L 1724 482 L 1724 1043 L 552 1043 L 552 482 Z Z" stroke-miterlimit="10"/></g><g transform="translate(-166,-385) scale(1,1)"><rect fill="#ffffff" stroke="none" x="552" y="467" width="468.79999999999995" height="15"/></g><g transform="translate(-166,-385) scale(1,1)"><path fill="none" stroke="#000000" d="M 552 467 L 1020.8 467 L 1020.8 482 L 552 482 L 552 467 Z Z" stroke-miterlimit="10"/></g><g transform="translate(-166,-385) scale(1,1)"><rect fill="#ffffff" stroke="none" x="552" y="481" width="1172" height="562"/></g><g transform="translate(-166,-385) scale(1,1)"><path fill="none" stroke="#000000" d="M 552 481 L 1724 481 L 1724 1043 L 552 1043 L 552 481 Z Z" stroke-miterlimit="10"/></g><g transform="translate(-166,-385) scale(1,1)"><g><path fill="none" stroke="none"/><text fill="#000000" stroke="none" font-family="Arial" font-size="13px" font-style="normal" font-weight="bold" text-decoration="none" x="1105.4873046875" y="501.5">stringpolicy</text></g></g><g transform="translate(-166,-385) scale(1,1)"><rect fill="#C0C0C0" stroke="none" x="611" y="564" width="149.6689453125" height="39" opacity="0.2"/></g><g transform="translate(-166,-385) scale(1,1)"><rect fill="#C0C0C0" stroke="none" x="676.51171875" y="546" width="93.1572265625" height="22" opacity="0.2"/></g><g transform="translate(-166,-385) scale(1,1)"><rect fill="#ffffff" stroke="none" x="604" y="557" width="149.6689453125" height="39"/></g><g transform="translate(-166,-385) scale(1,1)"><path fill="none" stroke="#000000" d="M 604 557 L 753.6689453125 557 L 753.6689453125 596 L 604 596 L 604 557 Z Z" stroke-miterlimit="10"/></g><g transform="translate(-166,-385) scale(1,1)"><g><path fill="none" stroke="none"/><text fill="#000000" stroke="none" font-family="Arial" font-size="13px" font-style="normal" font-weight="normal" text-decoration="none" x="641.259521484375" y="574.5">«case class»</text></g></g><g transform="translate(-166,-385) scale(1,1)"><g><path fill="none" stroke="none"/><text fill="#000000" stroke="none" font-family="Arial" font-size="13px" font-style="normal" font-weight="bold" text-decoration="none" x="627.90087890625" y="589.5">OTPPolicyBuilder</text></g></g><g transform="translate(-166,-385) scale(1,1)"><rect fill="#ffffff" stroke="none" x="669.51171875" y="539" width="93.1572265625" height="22"/></g><g transform="translate(-166,-385) scale(1,1)"><path fill="none" stroke="#000000" d="M 669.51171875 539 L 762.6689453125 539 L 762.6689453125 561 L 669.51171875 561 L 669.51171875 539 Z Z" stroke-miterlimit="10" stroke-dasharray="3"/></g><g transform="translate(-166,-385) scale(1,1)"><g><path fill="none" stroke="none"/><text fill="#000000" stroke="none" font-family="Arial" font-size="13px" font-style="normal" font-weight="normal" text-decoration="none" x="674.51171875" y="556.5">T = OTPPolicy</text></g></g><g transform="translate(-166,-385) scale(1,1)"><rect fill="#C0C0C0" stroke="none" x="587" y="674" width="198.96630859375" height="40" opacity="0.2"/></g><g transform="translate(-166,-385) scale(1,1)"><rect fill="#ffffff" stroke="none" x="580" y="667" width="198.96630859375" height="40"/></g><g transform="translate(-166,-385) scale(1,1)"><path fill="none" stroke="#000000" d="M 580 667 L 778.96630859375 667 L 778.96630859375 707 L 580 707 L 580 667 Z Z" stroke-miterlimit="10"/></g><g transform="translate(-166,-385) scale(1,1)"><g><path fill="none" stroke="none"/><text fill="#000000" stroke="none" font-family="Arial" font-size="13px" font-style="normal" font-weight="normal" text-decoration="none" x="632.516845703125" y="684.5">«abstract class»</text></g></g><g transform="translate(-166,-385) scale(1,1)"><g><path fill="none" stroke="none"/><text fill="#000000" stroke="none" font-family="Arial" font-size="13px" font-style="italic" font-weight="bold" text-decoration="none" x="593.50732421875" y="699.5">AbstractStringPolicyBuilder[T]</text></g></g><g transform="translate(-166,-385) scale(1,1)"><rect fill="#C0C0C0" stroke="none" x="923" y="674" width="333.3017578125" height="40" opacity="0.2"/></g><g transform="translate(-166,-385) scale(1,1)"><rect fill="#ffffff" stroke="none" x="916" y="667" width="333.3017578125" height="40"/></g><g transform="translate(-166,-385) scale(1,1)"><path fill="none" stroke="#000000" d="M 916 667 L 1249.3017578125 667 L 1249.3017578125 707 L 916 707 L 916 667 Z Z" stroke-miterlimit="10"/></g><g transform="translate(-166,-385) scale(1,1)"><g><path fill="none" stroke="none"/><text fill="#000000" stroke="none" font-family="Arial" font-size="13px" font-style="normal" font-weight="normal" text-decoration="none" x="1035.6845703125" y="684.5">«abstract class»</text></g></g><g transform="translate(-166,-385) scale(1,1)"><g><path fill="none" stroke="none"/><text fill="#000000" stroke="none" font-family="Arial" font-size="13px" font-style="italic" font-weight="bold" text-decoration="none" x="934.163330078125" y="699.5">AbstractStringPolicyBuilderWithSettableAlphabet[T]</text></g></g><g transform="translate(-166,-385) scale(1,1)"><rect fill="#C0C0C0" stroke="none" x="615" y="954" width="146.22998046875" height="40" opacity="0.2"/></g><g transform="translate(-166,-385) scale(1,1)"><rect fill="#ffffff" stroke="none" x="608" y="947" width="146.22998046875" height="40"/></g><g transform="translate(-166,-385) scale(1,1)"><path fill="none" stroke="#000000" d="M 608 947 L 754.22998046875 947 L 754.22998046875 987 L 608 987 L 608 947 Z Z" stroke-miterlimit="10"/></g><g transform="translate(-166,-385) scale(1,1)"><g><path fill="none" stroke="none"/><text fill="#000000" stroke="none" font-family="Arial" font-size="13px" font-style="normal" font-weight="normal" text-decoration="none" x="663.049560546875" y="964.5">«trait»</text></g></g><g transform="translate(-166,-385) scale(1,1)"><g><path fill="none" stroke="none"/><text fill="#000000" stroke="none" font-family="Arial" font-size="13px" font-style="normal" font-weight="bold" text-decoration="none" x="618.98095703125" y="979.5">StringPolicyBuilder[T]</text></g></g><g transform="translate(-166,-385) scale(1,1)"><rect fill="#C0C0C0" stroke="none" x="703" y="778" width="264" height="85" opacity="0.2"/></g><g transform="translate(-166,-385) scale(1,1)"><rect fill="#ffffff" stroke="none" x="696" y="771" width="264" height="85"/></g><g transform="translate(-166,-385) scale(1,1)"><path fill="none" stroke="#000000" d="M 696 771 L 960 771 L 960 856 L 696 856 L 696 771 Z Z" stroke-miterlimit="10"/></g><g transform="translate(-166,-385) scale(1,1)"><path fill="none" stroke="#000000" d="M 696 809 L 960 809" stroke-miterlimit="10"/></g><g transform="translate(-166,-385) scale(1,1)"><path fill="none" stroke="#000000" d="M 696 819 L 960 819" stroke-miterlimit="10"/></g><g transform="translate(-166,-385) scale(1,1)"><g><path fill="none" stroke="none"/><text fill="#000000" stroke="none" font-family="Arial" font-size="13px" font-style="normal" font-weight="normal" text-decoration="none" x="809.9345703125" y="788.5">«trait»</text></g></g><g transform="translate(-166,-385) scale(1,1)"><g><path fill="none" stroke="none"/><text fill="#000000" stroke="none" font-family="Arial" font-size="13px" font-style="normal" font-weight="bold" text-decoration="none" x="751.418701171875" y="803.5">RestrictStringPolicyBuilder</text></g></g><g transform="translate(-166,-385) scale(1,1)"><g><path fill="none" stroke="none"/><text fill="#000000" stroke="none" font-family="Arial" font-size="13px" font-style="normal" font-weight="normal" text-decoration="none" x="701" y="836.5">+maximumLength(number: Int): this.type</text></g></g><g transform="translate(-166,-385) scale(1,1)"><g><path fill="none" stroke="none"/><text fill="#000000" stroke="none" font-family="Arial" font-size="13px" font-style="normal" font-weight="normal" text-decoration="none" x="701" y="851.5">+minimumLength(number: Int): this.type</text></g></g><g transform="translate(-166,-385) scale(1,1)"><rect fill="#C0C0C0" stroke="none" x="1059" y="556" width="153.9853515625" height="39" opacity="0.2"/></g><g transform="translate(-166,-385) scale(1,1)"><rect fill="#C0C0C0" stroke="none" x="1115.1044921875" y="538" width="106.880859375" height="22" opacity="0.2"/></g><g transform="translate(-166,-385) scale(1,1)"><rect fill="#ffffff" stroke="none" x="1052" y="549" width="153.9853515625" height="39"/></g><g transform="translate(-166,-385) scale(1,1)"><path fill="none" stroke="#000000" d="M 1052 549 L 1205.9853515625 549 L 1205.9853515625 588 L 1052 588 L 1052 549 Z Z" stroke-miterlimit="10"/></g><g transform="translate(-166,-385) scale(1,1)"><g><path fill="none" stroke="none"/><text fill="#000000" stroke="none" font-family="Arial" font-size="13px" font-style="normal" font-weight="normal" text-decoration="none" x="1091.417724609375" y="566.5">«case class»</text></g></g><g transform="translate(-166,-385) scale(1,1)"><g><path fill="none" stroke="none"/><text fill="#000000" stroke="none" font-family="Arial" font-size="13px" font-style="normal" font-weight="bold" text-decoration="none" x="1071.197265625" y="581.5">UserIDPolicyBuilder</text></g></g><g transform="translate(-166,-385) scale(1,1)"><rect fill="#ffffff" stroke="none" x="1108.1044921875" y="531" width="106.880859375" height="22"/></g><g transform="translate(-166,-385) scale(1,1)"><path fill="none" stroke="#000000" d="M 1108.1044921875 531 L 1214.9853515625 531 L 1214.9853515625 553 L 1108.1044921875 553 L 1108.1044921875 531 Z Z" stroke-miterlimit="10" stroke-dasharray="3"/></g><g transform="translate(-166,-385) scale(1,1)"><g><path fill="none" stroke="none"/><text fill="#000000" stroke="none" font-family="Arial" font-size="13px" font-style="normal" font-weight="normal" text-decoration="none" x="1113.1044921875" y="548.5">T = UserIDPolicy</text></g></g><g transform="translate(-166,-385) scale(1,1)"><rect fill="#C0C0C0" stroke="none" x="1331" y="674" width="278.4326171875" height="40" opacity="0.2"/></g><g transform="translate(-166,-385) scale(1,1)"><rect fill="#ffffff" stroke="none" x="1324" y="667" width="278.4326171875" height="40"/></g><g transform="translate(-166,-385) scale(1,1)"><path fill="none" stroke="#000000" d="M 1324 667 L 1602.4326171875 667 L 1602.4326171875 707 L 1324 707 L 1324 667 Z Z" stroke-miterlimit="10"/></g><g transform="translate(-166,-385) scale(1,1)"><g><path fill="none" stroke="none"/><text fill="#000000" stroke="none" font-family="Arial" font-size="13px" font-style="normal" font-weight="normal" text-decoration="none" x="1416.25" y="684.5">«abstract class»</text></g></g><g transform="translate(-166,-385) scale(1,1)"><g><path fill="none" stroke="none"/><text fill="#000000" stroke="none" font-family="Arial" font-size="13px" font-style="italic" font-weight="bold" text-decoration="none" x="1340.40185546875" y="699.5">AbstractMoreRestrictStringPolicyBuilder[T]</text></g></g><g transform="translate(-166,-385) scale(1,1)"><rect fill="#C0C0C0" stroke="none" x="1275" y="548" width="173.49169921875" height="39" opacity="0.2"/></g><g transform="translate(-166,-385) scale(1,1)"><rect fill="#C0C0C0" stroke="none" x="1333.97998046875" y="530" width="123.51171875" height="22" opacity="0.2"/></g><g transform="translate(-166,-385) scale(1,1)"><rect fill="#ffffff" stroke="none" x="1268" y="541" width="173.49169921875" height="39"/></g><g transform="translate(-166,-385) scale(1,1)"><path fill="none" stroke="#000000" d="M 1268 541 L 1441.49169921875 541 L 1441.49169921875 580 L 1268 580 L 1268 541 Z Z" stroke-miterlimit="10"/></g><g transform="translate(-166,-385) scale(1,1)"><g><path fill="none" stroke="none"/><text fill="#000000" stroke="none" font-family="Arial" font-size="13px" font-style="normal" font-weight="normal" text-decoration="none" x="1317.1708984375" y="558.5">«case class»</text></g></g><g transform="translate(-166,-385) scale(1,1)"><g><path fill="none" stroke="none"/><text fill="#000000" stroke="none" font-family="Arial" font-size="13px" font-style="normal" font-weight="bold" text-decoration="none" x="1288.635009765625" y="573.5">PasswordPolicyBuilder</text></g></g><g transform="translate(-166,-385) scale(1,1)"><rect fill="#ffffff" stroke="none" x="1326.97998046875" y="523" width="123.51171875" height="22"/></g><g transform="translate(-166,-385) scale(1,1)"><path fill="none" stroke="#000000" d="M 1326.97998046875 523 L 1450.49169921875 523 L 1450.49169921875 545 L 1326.97998046875 545 L 1326.97998046875 523 Z Z" stroke-miterlimit="10" stroke-dasharray="3"/></g><g transform="translate(-166,-385) scale(1,1)"><g><path fill="none" stroke="none"/><text fill="#000000" stroke="none" font-family="Arial" font-size="13px" font-style="normal" font-weight="normal" text-decoration="none" x="1331.97998046875" y="540.5">T = PasswordPolicy</text></g></g><g transform="translate(-166,-385) scale(1,1)"><rect fill="#C0C0C0" stroke="none" x="1483" y="548" width="149.6689453125" height="39" opacity="0.2"/></g><g transform="translate(-166,-385) scale(1,1)"><rect fill="#C0C0C0" stroke="none" x="1552.83447265625" y="530" width="88.83447265625" height="22" opacity="0.2"/></g><g transform="translate(-166,-385) scale(1,1)"><rect fill="#ffffff" stroke="none" x="1476" y="541" width="149.6689453125" height="39"/></g><g transform="translate(-166,-385) scale(1,1)"><path fill="none" stroke="#000000" d="M 1476 541 L 1625.6689453125 541 L 1625.6689453125 580 L 1476 580 L 1476 541 Z Z" stroke-miterlimit="10"/></g><g transform="translate(-166,-385) scale(1,1)"><g><path fill="none" stroke="none"/><text fill="#000000" stroke="none" font-family="Arial" font-size="13px" font-style="normal" font-weight="normal" text-decoration="none" x="1513.259521484375" y="558.5">«case class»</text></g></g><g transform="translate(-166,-385) scale(1,1)"><g><path fill="none" stroke="none"/><text fill="#000000" stroke="none" font-family="Arial" font-size="13px" font-style="normal" font-weight="bold" text-decoration="none" x="1502.062255859375" y="573.5">SaltPolicyBuilder</text></g></g><g transform="translate(-166,-385) scale(1,1)"><rect fill="#ffffff" stroke="none" x="1545.83447265625" y="523" width="88.83447265625" height="22"/></g><g transform="translate(-166,-385) scale(1,1)"><path fill="none" stroke="#000000" d="M 1545.83447265625 523 L 1634.6689453125 523 L 1634.6689453125 545 L 1545.83447265625 545 L 1545.83447265625 523 Z Z" stroke-miterlimit="10" stroke-dasharray="3"/></g><g transform="translate(-166,-385) scale(1,1)"><g><path fill="none" stroke="none"/><text fill="#000000" stroke="none" font-family="Arial" font-size="13px" font-style="normal" font-weight="normal" text-decoration="none" x="1550.83447265625" y="540.5">T = SaltPolicy</text></g></g><g transform="translate(-166,-385) scale(1,1)"><rect fill="#C0C0C0" stroke="none" x="1007" y="778" width="331.6767578125" height="70" opacity="0.2"/></g><g transform="translate(-166,-385) scale(1,1)"><rect fill="#ffffff" stroke="none" x="1000" y="771" width="331.6767578125" height="70"/></g><g transform="translate(-166,-385) scale(1,1)"><path fill="none" stroke="#000000" d="M 1000 771 L 1331.6767578125 771 L 1331.6767578125 841 L 1000 841 L 1000 771 Z Z" stroke-miterlimit="10"/></g><g transform="translate(-166,-385) scale(1,1)"><path fill="none" stroke="#000000" d="M 1000 809 L 1331.6767578125 809" stroke-miterlimit="10"/></g><g transform="translate(-166,-385) scale(1,1)"><path fill="none" stroke="#000000" d="M 1000 819 L 1331.6767578125 819" stroke-miterlimit="10"/></g><g transform="translate(-166,-385) scale(1,1)"><g><path fill="none" stroke="none"/><text fill="#000000" stroke="none" font-family="Arial" font-size="13px" font-style="normal" font-weight="normal" text-decoration="none" x="1147.77294921875" y="788.5">«trait»</text></g></g><g transform="translate(-166,-385) scale(1,1)"><g><path fill="none" stroke="none"/><text fill="#000000" stroke="none" font-family="Arial" font-size="13px" font-style="normal" font-weight="bold" text-decoration="none" x="1096.093505859375" y="803.5">SettableAlphabetBuilder</text></g></g><g transform="translate(-166,-385) scale(1,1)"><g><path fill="none" stroke="none"/><text fill="#000000" stroke="none" font-family="Arial" font-size="13px" font-style="normal" font-weight="normal" text-decoration="none" x="1005" y="836.5">+addAlphabet(alphabetPolicy: PolicyAlphabet): this.type</text></g></g><g transform="translate(-166,-385) scale(1,1)"><rect fill="#C0C0C0" stroke="none" x="1383" y="778" width="288" height="115" opacity="0.2"/></g><g transform="translate(-166,-385) scale(1,1)"><rect fill="#ffffff" stroke="none" x="1376" y="771" width="288" height="115"/></g><g transform="translate(-166,-385) scale(1,1)"><path fill="none" stroke="#000000" d="M 1376 771 L 1664 771 L 1664 886 L 1376 886 L 1376 771 Z Z" stroke-miterlimit="10"/></g><g transform="translate(-166,-385) scale(1,1)"><path fill="none" stroke="#000000" d="M 1376 809 L 1664 809" stroke-miterlimit="10"/></g><g transform="translate(-166,-385) scale(1,1)"><path fill="none" stroke="#000000" d="M 1376 819 L 1664 819" stroke-miterlimit="10"/></g><g transform="translate(-166,-385) scale(1,1)"><g><path fill="none" stroke="none"/><text fill="#000000" stroke="none" font-family="Arial" font-size="13px" font-style="normal" font-weight="normal" text-decoration="none" x="1501.9345703125" y="788.5">«trait»</text></g></g><g transform="translate(-166,-385) scale(1,1)"><g><path fill="none" stroke="none"/><text fill="#000000" stroke="none" font-family="Arial" font-size="13px" font-style="normal" font-weight="bold" text-decoration="none" x="1428.609619140625" y="803.5">MoreRestrictStringPolicyBuilder</text></g></g><g transform="translate(-166,-385) scale(1,1)"><g><path fill="none" stroke="none"/><text fill="#000000" stroke="none" font-family="Arial" font-size="13px" font-style="normal" font-weight="normal" text-decoration="none" x="1381" y="836.5">+minimumLowerChars(number: Int): this.type</text></g></g><g transform="translate(-166,-385) scale(1,1)"><g><path fill="none" stroke="none"/><text fill="#000000" stroke="none" font-family="Arial" font-size="13px" font-style="normal" font-weight="normal" text-decoration="none" x="1381" y="851.5">+minimumUpperChars(number: Int): this.type</text></g></g><g transform="translate(-166,-385) scale(1,1)"><g><path fill="none" stroke="none"/><text fill="#000000" stroke="none" font-family="Arial" font-size="13px" font-style="normal" font-weight="normal" text-decoration="none" x="1381" y="866.5">+minimumSymbols(number: Int): this.type</text></g></g><g transform="translate(-166,-385) scale(1,1)"><g><path fill="none" stroke="none"/><text fill="#000000" stroke="none" font-family="Arial" font-size="13px" font-style="normal" font-weight="normal" text-decoration="none" x="1381" y="881.5">+minimumNumbers(number: Int): this.type</text></g></g><g transform="translate(-166,-385) scale(1,1)"><path fill="none" stroke="#000000" d="M 682 597 L 680 666" stroke-miterlimit="10"/></g><g transform="translate(-166,-385) scale(1,1)"><path fill="#FFFFFF" stroke="none" d="M 672.1733921691163 645.4392556102279 L 680 666 L 689.0043943133455 645.9271107448432"/></g><g transform="translate(-166,-385) scale(1,1)"><path fill="none" stroke="#000000" d="M 672.1733921691163 645.4392556102279 L 680 666 L 689.0043943133455 645.9271107448432 L 672.1733921691163 645.4392556102279" stroke-miterlimit="10"/></g><g transform="translate(-166,-385) scale(1,1)"><path fill="none" stroke="#000000" d="M 679 708 L 681 946" stroke-miterlimit="10"/></g><g transform="translate(-166,-385) scale(1,1)"><path fill="#FFFFFF" stroke="none" d="M 672.410466505821 925.7461135988084 L 681 946 L 689.2479430387016 925.6046221993723"/></g><g transform="translate(-166,-385) scale(1,1)"><path fill="none" stroke="#000000" d="M 672.410466505821 925.7461135988084 L 681 946 L 689.2479430387016 925.6046221993723 L 672.410466505821 925.7461135988084" stroke-miterlimit="10"/></g><g transform="translate(-166,-385) scale(1,1)"><path fill="none" stroke="#000000" d="M 704 708 L 777 770" stroke-miterlimit="10"/></g><g transform="translate(-166,-385) scale(1,1)"><path fill="#FFFFFF" stroke="none" d="M 756.0580589921296 763.2594431370342 L 777 770 L 766.9581049689028 750.4255180353496"/></g><g transform="translate(-166,-385) scale(1,1)"><path fill="none" stroke="#000000" d="M 756.0580589921296 763.2594431370342 L 777 770 L 766.9581049689028 750.4255180353496 L 756.0580589921296 763.2594431370342" stroke-miterlimit="10"/></g><g transform="translate(-166,-385) scale(1,1)"><g><path fill="none" stroke="none"/><text fill="#000000" stroke="none" font-family="Arial" font-size="13px" font-style="normal" font-weight="normal" text-decoration="none" x="738.536376953125" y="726.5">+mixin</text></g></g><g transform="translate(-166,-385) scale(1,1)"><path fill="none" stroke="#000000" d="M 915 687 L 780 687" stroke-miterlimit="10"/></g><g transform="translate(-166,-385) scale(1,1)"><path fill="#FFFFFF" stroke="none" d="M 800.3253497152483 678.580964487968 L 780 687 L 800.3253497152483 695.419035512032"/></g><g transform="translate(-166,-385) scale(1,1)"><path fill="none" stroke="#000000" d="M 800.3253497152483 678.580964487968 L 780 687 L 800.3253497152483 695.419035512032 L 800.3253497152483 678.580964487968" stroke-miterlimit="10"/></g><g transform="translate(-166,-385) scale(1,1)"><path fill="none" stroke="#000000" d="M 1097 708 L 1140 770" stroke-miterlimit="10"/></g><g transform="translate(-166,-385) scale(1,1)"><path fill="#FFFFFF" stroke="none" d="M 1121.4985584584956 758.0963593431969 L 1140 770 L 1135.3346502535092 748.5003601950424"/></g><g transform="translate(-166,-385) scale(1,1)"><path fill="none" stroke="#000000" d="M 1121.4985584584956 758.0963593431969 L 1140 770 L 1135.3346502535092 748.5003601950424 L 1121.4985584584956 758.0963593431969" stroke-miterlimit="10"/></g><g transform="translate(-166,-385) scale(1,1)"><g><path fill="none" stroke="none"/><text fill="#000000" stroke="none" font-family="Arial" font-size="13px" font-style="normal" font-weight="normal" text-decoration="none" x="1114.536376953125" y="729.5">+mixin</text></g></g><g transform="translate(-166,-385) scale(1,1)"><path fill="none" stroke="#000000" d="M 607 986 L 482 1018" stroke-miterlimit="10"/></g><g transform="translate(-166,-385) scale(1,1)"><path fill="#FFFFFF" stroke="none" d="M 499.602432804138 1004.8032443617453 L 482 1018 L 503.7783150026582 1021.1152841997149"/></g><g transform="translate(-166,-385) scale(1,1)"><path fill="none" stroke="#000000" d="M 499.602432804138 1004.8032443617453 L 482 1018 L 503.7783150026582 1021.1152841997149 L 499.602432804138 1004.8032443617453" stroke-miterlimit="10"/></g><g transform="translate(-166,-385) scale(1,1)"><path fill="none" stroke="#000000" d="M 1210 589 L 1409 666" stroke-miterlimit="10"/></g><g transform="translate(-166,-385) scale(1,1)"><path fill="#FFFFFF" stroke="none" d="M 1387.0060777835708 666.5170933548811 L 1409 666 L 1393.0823082381305 650.8135886736164"/></g><g transform="translate(-166,-385) scale(1,1)"><path fill="none" stroke="#000000" d="M 1387.0060777835708 666.5170933548811 L 1409 666 L 1393.0823082381305 650.8135886736164 L 1387.0060777835708 666.5170933548811" stroke-miterlimit="10"/></g><g transform="translate(-166,-385) scale(1,1)"><path fill="none" stroke="#000000" d="M 1471 708 L 1497 770" stroke-miterlimit="10"/></g><g transform="translate(-166,-385) scale(1,1)"><path fill="#FFFFFF" stroke="none" d="M 1481.3756578113787 754.5119423047024 L 1497 770 L 1496.9036323106002 748.0002110630934"/></g><g transform="translate(-166,-385) scale(1,1)"><path fill="none" stroke="#000000" d="M 1481.3756578113787 754.5119423047024 L 1497 770 L 1496.9036323106002 748.0002110630934 L 1481.3756578113787 754.5119423047024" stroke-miterlimit="10"/></g><g transform="translate(-166,-385) scale(1,1)"><g><path fill="none" stroke="none"/><text fill="#000000" stroke="none" font-family="Arial" font-size="13px" font-style="normal" font-weight="normal" text-decoration="none" x="1486.536376953125" y="734.5">+mixin</text></g></g><g transform="translate(-166,-385) scale(1,1)"><path fill="none" stroke="#000000" d="M 1323 687 L 1250 687" stroke-miterlimit="10"/></g><g transform="translate(-166,-385) scale(1,1)"><path fill="#FFFFFF" stroke="none" d="M 1270.3253497152482 678.580964487968 L 1250 687 L 1270.3253497152482 695.419035512032"/></g><g transform="translate(-166,-385) scale(1,1)"><path fill="none" stroke="#000000" d="M 1270.3253497152482 678.580964487968 L 1250 687 L 1270.3253497152482 695.419035512032 L 1270.3253497152482 678.580964487968" stroke-miterlimit="10"/></g><g transform="translate(-166,-385) scale(1,1)"><path fill="none" stroke="#000000" d="M 1382 581 L 1447 666" stroke-miterlimit="10"/></g><g transform="translate(-166,-385) scale(1,1)"><path fill="#FFFFFF" stroke="none" d="M 1427.9656373239625 654.9685432731179 L 1447 666 L 1441.3410909341542 644.7402552182655"/></g><g transform="translate(-166,-385) scale(1,1)"><path fill="none" stroke="#000000" d="M 1427.9656373239625 654.9685432731179 L 1447 666 L 1441.3410909341542 644.7402552182655 L 1427.9656373239625 654.9685432731179" stroke-miterlimit="10"/></g><g transform="translate(-166,-385) scale(1,1)"><path fill="none" stroke="#000000" d="M 1535 581 L 1477 666" stroke-miterlimit="10"/></g><g transform="translate(-166,-385) scale(1,1)"><path fill="#FFFFFF" stroke="none" d="M 1481.501840223432 644.4655291543374 L 1477 666 L 1495.4104521140391 653.9561113855752"/></g><g transform="translate(-166,-385) scale(1,1)"><path fill="none" stroke="#000000" d="M 1481.501840223432 644.4655291543374 L 1477 666 L 1495.4104521140391 653.9561113855752 L 1481.501840223432 644.4655291543374" stroke-miterlimit="10"/></g><g transform="translate(-166,-385) scale(1,1)"><path fill="none" stroke="#000000" d="M 1344 1183 L 1416 1160 L 1479 1174" stroke-miterlimit="10"/></g><g transform="translate(-166,-385) scale(1,1)"><path fill="#FFFFFF" stroke="none" d="M 1465.1666905787124 1172.4814867952693 C 1465.1666905787124 1168.6154931952694 1468.3006969787125 1165.4814867952693 1472.1666905787124 1165.4814867952693 C 1476.0326841787123 1165.4814867952693 1479.1666905787124 1168.6154931952694 1479.1666905787124 1172.4814867952693 C 1479.1666905787124 1176.3474803952693 1476.0326841787123 1179.4814867952693 1472.1666905787124 1179.4814867952693 C 1468.3006969787125 1179.4814867952693 1465.1666905787124 1176.3474803952693 1465.1666905787124 1172.4814867952693 Z"/></g><g transform="translate(-166,-385) scale(1,1)"><path fill="none" stroke="#000000" d="M 1465.1666905787124 1172.4814867952693 C 1465.1666905787124 1168.6154931952694 1468.3006969787125 1165.4814867952693 1472.1666905787124 1165.4814867952693 C 1476.0326841787123 1165.4814867952693 1479.1666905787124 1168.6154931952694 1479.1666905787124 1172.4814867952693 C 1479.1666905787124 1176.3474803952693 1476.0326841787123 1179.4814867952693 1472.1666905787124 1179.4814867952693 C 1468.3006969787125 1179.4814867952693 1465.1666905787124 1176.3474803952693 1465.1666905787124 1172.4814867952693 Z" stroke-miterlimit="10"/></g><g transform="translate(-166,-385) scale(1,1)"><path fill="none" stroke="#000000" d="M 1465.3333811574246 1170.962973590539 L 1479 1174" stroke-miterlimit="10"/></g><g transform="translate(-166,-385) scale(1,1)"><path fill="none" stroke="#000000" d="M 1470.6481773739818 1179.314796216557 L 1473.685203783443 1165.6481773739818" stroke-miterlimit="10"/></g><g transform="translate(-166,-385) scale(1,1)"><rect fill="#C0C0C0" stroke="none" x="1223" y="1191" width="126.76806640625" height="40" opacity="0.2"/></g><g transform="translate(-166,-385) scale(1,1)"><rect fill="#ffffff" stroke="none" x="1216" y="1184" width="126.76806640625" height="40"/></g><g transform="translate(-166,-385) scale(1,1)"><path fill="none" stroke="#000000" d="M 1216 1184 L 1342.76806640625 1184 L 1342.76806640625 1224 L 1216 1224 L 1216 1184 Z Z" stroke-miterlimit="10"/></g><g transform="translate(-166,-385) scale(1,1)"><g><path fill="none" stroke="none"/><text fill="#000000" stroke="none" font-family="Arial" font-size="13px" font-style="normal" font-weight="normal" text-decoration="none" x="1241.80908203125" y="1201.5">«case class»</text></g></g><g transform="translate(-166,-385) scale(1,1)"><g><path fill="none" stroke="none"/><text fill="#000000" stroke="none" font-family="Arial" font-size="13px" font-style="normal" font-weight="bold" text-decoration="none" x="1225.917724609375" y="1216.5">BasicPolicyBuilder</text></g></g><g transform="translate(-166,-385) scale(1,1)"><path fill="none" stroke="#000000" d="M 1215 1204 L 1116 1203" stroke-miterlimit="10"/></g><g transform="translate(-166,-385) scale(1,1)"><path fill="#FFFFFF" stroke="none" d="M 1136.409349317464 1194.786690043732 L 1116 1203 L 1136.239276468048 1211.6239021359197"/></g><g transform="translate(-166,-385) scale(1,1)"><path fill="none" stroke="#000000" d="M 1136.409349317464 1194.786690043732 L 1116 1203 L 1136.239276468048 1211.6239021359197 L 1136.409349317464 1194.786690043732" stroke-miterlimit="10"/></g><g transform="translate(-166,-385) scale(1,1)"><path fill="none" stroke="#000000" d="M 559 1123 L 482 1101" stroke-miterlimit="10"/></g><g transform="translate(-166,-385) scale(1,1)"><path fill="#FFFFFF" stroke="none" d="M 503.8561974270593 1098.4886987378245 L 482 1101 L 499.23042356371235 1114.6789072595388"/></g><g transform="translate(-166,-385) scale(1,1)"><path fill="none" stroke="#000000" d="M 503.8561974270593 1098.4886987378245 L 482 1101 L 499.23042356371235 1114.6789072595388 L 503.8561974270593 1098.4886987378245" stroke-miterlimit="10"/></g><g transform="translate(-166,-385) scale(1,1)"><path fill="none" stroke="#000000" d="M 786 857 L 701 946" stroke-miterlimit="10"/></g><g transform="translate(-166,-385) scale(1,1)"><path fill="#FFFFFF" stroke="none" d="M 708.94968577997 925.4865289139126 L 701 946 L 721.1264912339656 937.1160622126724"/></g><g transform="translate(-166,-385) scale(1,1)"><path fill="none" stroke="#000000" d="M 708.94968577997 925.4865289139126 L 701 946 L 721.1264912339656 937.1160622126724 L 708.94968577997 925.4865289139126" stroke-miterlimit="10"/></g><g transform="translate(-166,-385) scale(1,1)"><path fill="none" stroke="#000000" d="M 1057 842 L 744 946" stroke-miterlimit="10"/></g><g transform="translate(-166,-385) scale(1,1)"><path fill="#FFFFFF" stroke="none" d="M 760.6337995355956 931.6015030989474 L 744 946 L 765.943147246145 947.5805976508896"/></g><g transform="translate(-166,-385) scale(1,1)"><path fill="none" stroke="#000000" d="M 760.6337995355956 931.6015030989474 L 744 946 L 765.943147246145 947.5805976508896 L 760.6337995355956 931.6015030989474" stroke-miterlimit="10"/></g><g transform="translate(-166,-385) scale(1,1)"><path fill="none" stroke="#000000" d="M 1375 852 L 755 955" stroke-miterlimit="10"/></g><g transform="translate(-166,-385) scale(1,1)"><path fill="#FFFFFF" stroke="none" d="M 773.6708105641818 943.3638136455093 L 755 955 L 776.4302830385932 959.9742304817717"/></g><g transform="translate(-166,-385) scale(1,1)"><path fill="none" stroke="#000000" d="M 773.6708105641818 943.3638136455093 L 755 955 L 776.4302830385932 959.9742304817717 L 773.6708105641818 943.3638136455093" stroke-miterlimit="10"/></g></g></svg>