<svg version="1.1" xmlns="http://www.w3.org/2000/svg" xmlns:xlink="http://www.w3.org/1999/xlink" width="556" height="260"><defs/><g><g transform="translate(-920,-545) scale(1,1)"><rect fill="#C0C0C0" stroke="none" x="937" y="562" width="214.4000000000001" height="15" opacity="0.2"/></g><g transform="translate(-920,-545) scale(1,1)"><rect fill="#C0C0C0" stroke="none" x="937" y="576" width="536" height="226" opacity="0.2"/></g><g transform="translate(-920,-545) scale(1,1)"><rect fill="#ffffff" stroke="none" x="930" y="570" width="536" height="225"/></g><g transform="translate(-920,-545) scale(1,1)"><path fill="none" stroke="#000000" d="M 930 570 L 1466 570 L 1466 795 L 930 795 L 930 570 Z Z" stroke-miterlimit="10"/></g><g transform="translate(-920,-545) scale(1,1)"><rect fill="#ffffff" stroke="none" x="930" y="555" width="214.4000000000001" height="15"/></g><g transform="translate(-920,-545) scale(1,1)"><path fill="none" stroke="#000000" d="M 930 555 L 1144.4 555 L 1144.4 570 L 930 570 L 930 555 Z Z" stroke-miterlimit="10"/></g><g transform="translate(-920,-545) scale(1,1)"><rect fill="#ffffff" stroke="none" x="930" y="569" width="536" height="226"/></g><g transform="translate(-920,-545) scale(1,1)"><path fill="none" stroke="#000000" d="M 930 569 L 1466 569 L 1466 795 L 930 795 L 930 569 Z Z" stroke-miterlimit="10"/></g><g transform="translate(-920,-545) scale(1,1)"><g><path fill="none" stroke="none"/><text fill="#000000" stroke="none" font-family="Arial" font-size="13px" font-style="normal" font-weight="bold" text-decoration="none" x="1165.484130859375" y="589.5">Generators</text></g></g><g transform="translate(-920,-545) scale(1,1)"><rect fill="#C0C0C0" stroke="none" x="945" y="708" width="513" height="70" opacity="0.2"/></g><g transform="translate(-920,-545) scale(1,1)"><rect fill="#C0C0C0" stroke="none" x="1401.28369140625" y="690" width="65.71630859375" height="22" opacity="0.2"/></g><g transform="translate(-920,-545) scale(1,1)"><rect fill="#ffffff" stroke="none" x="938" y="701" width="513" height="70"/></g><g transform="translate(-920,-545) scale(1,1)"><path fill="none" stroke="#000000" d="M 938 701 L 1451 701 L 1451 771 L 938 771 L 938 701 Z Z" stroke-miterlimit="10"/></g><g transform="translate(-920,-545) scale(1,1)"><path fill="none" stroke="#000000" d="M 938 739 L 1451 739" stroke-miterlimit="10"/></g><g transform="translate(-920,-545) scale(1,1)"><path fill="none" stroke="#000000" d="M 938 762 L 1451 762" stroke-miterlimit="10"/></g><g transform="translate(-920,-545) scale(1,1)"><g><path fill="none" stroke="none"/><text fill="#000000" stroke="none" font-family="Arial" font-size="13px" font-style="normal" font-weight="normal" text-decoration="none" x="1169.925048828125" y="718.5">«object»</text></g></g><g transform="translate(-920,-545) scale(1,1)"><g><path fill="none" stroke="none"/><text fill="#000000" stroke="none" font-family="Arial" font-size="13px" font-style="normal" font-weight="bold" text-decoration="none" x="1134.524169921875" y="733.5">PolicyAutoGenerator</text></g></g><g transform="translate(-920,-545) scale(1,1)"><g><path fill="none" stroke="none"/><text fill="#000000" stroke="none" font-family="Arial" font-size="13px" font-style="normal" font-weight="normal" text-decoration="none" x="943" y="756.5">+implicit val stringPolicyAutoGenerator: StringPolicy =&gt; PolicyAutoGenerator[String]</text></g></g><g transform="translate(-920,-545) scale(1,1)"><rect fill="#ffffff" stroke="none" x="1394.28369140625" y="683" width="65.71630859375" height="22"/></g><g transform="translate(-920,-545) scale(1,1)"><path fill="none" stroke="#000000" d="M 1394.28369140625 683 L 1460 683 L 1460 705 L 1394.28369140625 705 L 1394.28369140625 683 Z Z" stroke-miterlimit="10" stroke-dasharray="3"/></g><g transform="translate(-920,-545) scale(1,1)"><g><path fill="none" stroke="none"/><text fill="#000000" stroke="none" font-family="Arial" font-size="13px" font-style="normal" font-weight="normal" text-decoration="none" x="1399.28369140625" y="700.5">T = String</text></g></g><g transform="translate(-920,-545) scale(1,1)"><rect fill="#C0C0C0" stroke="none" x="993" y="594" width="155.62451171875" height="70" opacity="0.2"/></g><g transform="translate(-920,-545) scale(1,1)"><rect fill="#ffffff" stroke="none" x="986" y="587" width="155.62451171875" height="70"/></g><g transform="translate(-920,-545) scale(1,1)"><path fill="none" stroke="#000000" d="M 986 587 L 1141.62451171875 587 L 1141.62451171875 657 L 986 657 L 986 587 Z Z" stroke-miterlimit="10"/></g><g transform="translate(-920,-545) scale(1,1)"><path fill="none" stroke="#000000" d="M 986 625 L 1141.62451171875 625" stroke-miterlimit="10"/></g><g transform="translate(-920,-545) scale(1,1)"><path fill="none" stroke="#000000" d="M 986 635 L 1141.62451171875 635" stroke-miterlimit="10"/></g><g transform="translate(-920,-545) scale(1,1)"><g><path fill="none" stroke="none"/><text fill="#000000" stroke="none" font-family="Arial" font-size="13px" font-style="normal" font-weight="normal" text-decoration="none" x="1045.746826171875" y="604.5">«trait»</text></g></g><g transform="translate(-920,-545) scale(1,1)"><g><path fill="none" stroke="none"/><text fill="#000000" stroke="none" font-family="Arial" font-size="13px" font-style="normal" font-weight="bold" text-decoration="none" x="996.254150390625" y="619.5">PolicyAutoGenerator[T]</text></g></g><g transform="translate(-920,-545) scale(1,1)"><g><path fill="none" stroke="none"/><text fill="#000000" stroke="none" font-family="Arial" font-size="13px" font-style="normal" font-weight="normal" text-decoration="none" x="991" y="652.5">+generate(): T</text></g></g><g transform="translate(-920,-545) scale(1,1)"><path fill="none" stroke="#000000" d="M 1141 682 L 1110 658" stroke-miterlimit="10" stroke-dasharray="3"/></g><g transform="translate(-920,-545) scale(1,1)"><path fill="none" stroke="#000000" d="M 1120.6128218683496 660.8927516296218 L 1110 658 L 1115.4589140170408 667.549882604229" stroke-miterlimit="10"/></g><g transform="translate(-920,-545) scale(1,1)"><g><path fill="none" stroke="none"/><text fill="#000000" stroke="none" font-family="Arial" font-size="13px" font-style="normal" font-weight="normal" text-decoration="none" x="1100.5" y="687.5">+use</text></g></g></g></svg>