<svg version="1.1" xmlns="http://www.w3.org/2000/svg" xmlns:xlink="http://www.w3.org/1999/xlink" width="572" height="268"><defs/><g><g transform="translate(-2566,-280) scale(1,1)"><rect fill="#C0C0C0" stroke="none" x="2583" y="297" width="220.80000000000018" height="15" opacity="0.2"/></g><g transform="translate(-2566,-280) scale(1,1)"><rect fill="#C0C0C0" stroke="none" x="2583" y="311" width="552" height="234" opacity="0.2"/></g><g transform="translate(-2566,-280) scale(1,1)"><rect fill="#ffffff" stroke="none" x="2576" y="305" width="552" height="233"/></g><g transform="translate(-2566,-280) scale(1,1)"><path fill="none" stroke="#000000" d="M 2576 305 L 3128 305 L 3128 538 L 2576 538 L 2576 305 Z Z" stroke-miterlimit="10"/></g><g transform="translate(-2566,-280) scale(1,1)"><rect fill="#ffffff" stroke="none" x="2576" y="290" width="220.80000000000018" height="15"/></g><g transform="translate(-2566,-280) scale(1,1)"><path fill="none" stroke="#000000" d="M 2576 290 L 2796.8 290 L 2796.8 305 L 2576 305 L 2576 290 Z Z" stroke-miterlimit="10"/></g><g transform="translate(-2566,-280) scale(1,1)"><rect fill="#ffffff" stroke="none" x="2576" y="304" width="552" height="234"/></g><g transform="translate(-2566,-280) scale(1,1)"><path fill="none" stroke="#000000" d="M 2576 304 L 3128 304 L 3128 538 L 2576 538 L 2576 304 Z Z" stroke-miterlimit="10"/></g><g transform="translate(-2566,-280) scale(1,1)"><g><path fill="none" stroke="none"/><text fill="#000000" stroke="none" font-family="Arial" font-size="13px" font-style="normal" font-weight="bold" text-decoration="none" x="2824.54638671875" y="324.5">Checkers</text></g></g><g transform="translate(-2566,-280) scale(1,1)"><rect fill="#C0C0C0" stroke="none" x="2783" y="451" width="318" height="70" opacity="0.2"/></g><g transform="translate(-2566,-280) scale(1,1)"><rect fill="#C0C0C0" stroke="none" x="3044.28369140625" y="433" width="65.71630859375" height="22" opacity="0.2"/></g><g transform="translate(-2566,-280) scale(1,1)"><rect fill="#ffffff" stroke="none" x="2776" y="444" width="318" height="70"/></g><g transform="translate(-2566,-280) scale(1,1)"><path fill="none" stroke="#000000" d="M 2776 444 L 3094 444 L 3094 514 L 2776 514 L 2776 444 Z Z" stroke-miterlimit="10"/></g><g transform="translate(-2566,-280) scale(1,1)"><path fill="none" stroke="#000000" d="M 2776 482 L 3094 482" stroke-miterlimit="10"/></g><g transform="translate(-2566,-280) scale(1,1)"><path fill="none" stroke="#000000" d="M 2776 492 L 3094 492" stroke-miterlimit="10"/></g><g transform="translate(-2566,-280) scale(1,1)"><g><path fill="none" stroke="none"/><text fill="#000000" stroke="none" font-family="Arial" font-size="13px" font-style="normal" font-weight="normal" text-decoration="none" x="2910.425048828125" y="461.5">«object»</text></g></g><g transform="translate(-2566,-280) scale(1,1)"><g><path fill="none" stroke="none"/><text fill="#000000" stroke="none" font-family="Arial" font-size="13px" font-style="normal" font-weight="bold" text-decoration="none" x="2876.477783203125" y="476.5">StringPolicyChecker</text></g></g><g transform="translate(-2566,-280) scale(1,1)"><g><path fill="none" stroke="none"/><text fill="#000000" stroke="none" font-family="Arial" font-size="13px" font-style="normal" font-weight="normal" text-decoration="none" x="2781" y="509.5">+apply(policy: StringPolicy): PolicyChecker[String]</text></g></g><g transform="translate(-2566,-280) scale(1,1)"><rect fill="#ffffff" stroke="none" x="3037.28369140625" y="426" width="65.71630859375" height="22"/></g><g transform="translate(-2566,-280) scale(1,1)"><path fill="none" stroke="#000000" d="M 3037.28369140625 426 L 3103 426 L 3103 448 L 3037.28369140625 448 L 3037.28369140625 426 Z Z" stroke-miterlimit="10" stroke-dasharray="3"/></g><g transform="translate(-2566,-280) scale(1,1)"><g><path fill="none" stroke="none"/><text fill="#000000" stroke="none" font-family="Arial" font-size="13px" font-style="normal" font-weight="normal" text-decoration="none" x="3042.28369140625" y="443.5">T = String</text></g></g><g transform="translate(-2566,-280) scale(1,1)"><rect fill="#C0C0C0" stroke="none" x="2599" y="337" width="160.38525390625" height="70" opacity="0.2"/></g><g transform="translate(-2566,-280) scale(1,1)"><rect fill="#ffffff" stroke="none" x="2592" y="330" width="160.38525390625" height="70"/></g><g transform="translate(-2566,-280) scale(1,1)"><path fill="none" stroke="#000000" d="M 2592 330 L 2752.38525390625 330 L 2752.38525390625 400 L 2592 400 L 2592 330 Z Z" stroke-miterlimit="10"/></g><g transform="translate(-2566,-280) scale(1,1)"><path fill="none" stroke="#000000" d="M 2592 368 L 2752.38525390625 368" stroke-miterlimit="10"/></g><g transform="translate(-2566,-280) scale(1,1)"><path fill="none" stroke="#000000" d="M 2592 378 L 2752.38525390625 378" stroke-miterlimit="10"/></g><g transform="translate(-2566,-280) scale(1,1)"><g><path fill="none" stroke="none"/><text fill="#000000" stroke="none" font-family="Arial" font-size="13px" font-style="normal" font-weight="normal" text-decoration="none" x="2654.127197265625" y="347.5">«trait»</text></g></g><g transform="translate(-2566,-280) scale(1,1)"><g><path fill="none" stroke="none"/><text fill="#000000" stroke="none" font-family="Arial" font-size="13px" font-style="normal" font-weight="bold" text-decoration="none" x="2623.068115234375" y="362.5">PolicyChecker[T]</text></g></g><g transform="translate(-2566,-280) scale(1,1)"><g><path fill="none" stroke="none"/><text fill="#000000" stroke="none" font-family="Arial" font-size="13px" font-style="normal" font-weight="normal" text-decoration="none" x="2597" y="395.5">+check(value: T): Boolean</text></g></g><g transform="translate(-2566,-280) scale(1,1)"><path fill="none" stroke="#000000" d="M 2825 425 L 2753 397" stroke-miterlimit="10" stroke-dasharray="3"/></g><g transform="translate(-2566,-280) scale(1,1)"><path fill="none" stroke="#000000" d="M 2763.9973844145943 396.7601332919363 L 2753 397 L 2760.9459364707277 404.6067137190222" stroke-miterlimit="10"/></g><g transform="translate(-2566,-280) scale(1,1)"><g><path fill="none" stroke="none"/><text fill="#000000" stroke="none" font-family="Arial" font-size="13px" font-style="normal" font-weight="normal" text-decoration="none" x="2761.5" y="430.5">+create</text></g></g></g></svg>