<svg version="1.1" xmlns="http://www.w3.org/2000/svg" xmlns:xlink="http://www.w3.org/1999/xlink" width="596" height="300"><defs/><g><g transform="translate(-421,-375) scale(1,1)"><rect fill="#C0C0C0" stroke="none" x="438" y="392" width="230.39999999999998" height="15" opacity="0.2"/></g><g transform="translate(-421,-375) scale(1,1)"><rect fill="#C0C0C0" stroke="none" x="438" y="406" width="576" height="266" opacity="0.2"/></g><g transform="translate(-421,-375) scale(1,1)"><rect fill="#ffffff" stroke="none" x="431" y="400" width="576" height="265"/></g><g transform="translate(-421,-375) scale(1,1)"><path fill="none" stroke="#000000" d="M 431 400 L 1007 400 L 1007 665 L 431 665 L 431 400 Z Z" stroke-miterlimit="10"/></g><g transform="translate(-421,-375) scale(1,1)"><rect fill="#ffffff" stroke="none" x="431" y="385" width="230.39999999999998" height="15"/></g><g transform="translate(-421,-375) scale(1,1)"><path fill="none" stroke="#000000" d="M 431 385 L 661.4 385 L 661.4 400 L 431 400 L 431 385 Z Z" stroke-miterlimit="10"/></g><g transform="translate(-421,-375) scale(1,1)"><rect fill="#ffffff" stroke="none" x="431" y="399" width="576" height="266"/></g><g transform="translate(-421,-375) scale(1,1)"><path fill="none" stroke="#000000" d="M 431 399 L 1007 399 L 1007 665 L 431 665 L 431 399 Z Z" stroke-miterlimit="10"/></g><g transform="translate(-421,-375) scale(1,1)"><g><path fill="none" stroke="none"/><text fill="#000000" stroke="none" font-family="Arial" font-size="13px" font-style="normal" font-weight="bold" text-decoration="none" x="689.74365234375" y="419.5">Extractors</text></g></g><g transform="translate(-421,-375) scale(1,1)"><path fill="none" stroke="#000000" d="M 560 576 L 635 512" stroke-miterlimit="10"/></g><g transform="translate(-421,-375) scale(1,1)"><path fill="#FFFFFF" stroke="none" d="M 625.0037361011296 531.5978240645267 L 635 512 L 614.0738197180508 518.7893283031061"/></g><g transform="translate(-421,-375) scale(1,1)"><path fill="none" stroke="#000000" d="M 625.0037361011296 531.5978240645267 L 635 512 L 614.0738197180508 518.7893283031061 L 625.0037361011296 531.5978240645267" stroke-miterlimit="10"/></g><g transform="translate(-421,-375) scale(1,1)"><path fill="none" stroke="#000000" d="M 708 576 L 688 512" stroke-miterlimit="10"/></g><g transform="translate(-421,-375) scale(1,1)"><path fill="#FFFFFF" stroke="none" d="M 702.0983443774019 528.8889515902018 L 688 512 L 686.0267427162009 533.9113271093271"/></g><g transform="translate(-421,-375) scale(1,1)"><path fill="none" stroke="#000000" d="M 702.0983443774019 528.8889515902018 L 688 512 L 686.0267427162009 533.9113271093271 L 702.0983443774019 528.8889515902018" stroke-miterlimit="10"/></g><g transform="translate(-421,-375) scale(1,1)"><path fill="none" stroke="#000000" d="M 858 576 L 742 512" stroke-miterlimit="10"/></g><g transform="translate(-421,-375) scale(1,1)"><path fill="#FFFFFF" stroke="none" d="M 763.8634679357403 514.4471963188215 L 742 512 L 755.7293773256832 529.1902355495502"/></g><g transform="translate(-421,-375) scale(1,1)"><path fill="none" stroke="#000000" d="M 763.8634679357403 514.4471963188215 L 742 512 L 755.7293773256832 529.1902355495502 L 763.8634679357403 514.4471963188215" stroke-miterlimit="10"/></g><g transform="translate(-421,-375) scale(1,1)"><rect fill="#C0C0C0" stroke="none" x="510" y="448" width="349.69775390625" height="70" opacity="0.2"/></g><g transform="translate(-421,-375) scale(1,1)"><rect fill="#ffffff" stroke="none" x="503" y="441" width="349.69775390625" height="70"/></g><g transform="translate(-421,-375) scale(1,1)"><path fill="none" stroke="#000000" d="M 503 441 L 852.69775390625 441 L 852.69775390625 511 L 503 511 L 503 441 Z Z" stroke-miterlimit="10"/></g><g transform="translate(-421,-375) scale(1,1)"><path fill="none" stroke="#000000" d="M 503 479 L 852.69775390625 479" stroke-miterlimit="10"/></g><g transform="translate(-421,-375) scale(1,1)"><path fill="none" stroke="#000000" d="M 503 489 L 852.69775390625 489" stroke-miterlimit="10"/></g><g transform="translate(-421,-375) scale(1,1)"><g><path fill="none" stroke="none"/><text fill="#000000" stroke="none" font-family="Arial" font-size="13px" font-style="normal" font-weight="normal" text-decoration="none" x="659.783447265625" y="458.5">«trait»</text></g></g><g transform="translate(-421,-375) scale(1,1)"><g><path fill="none" stroke="none"/><text fill="#000000" stroke="none" font-family="Arial" font-size="13px" font-style="normal" font-weight="bold" text-decoration="none" x="596.198974609375" y="473.5">CredentialPolicyGenerate[T]</text></g></g><g transform="translate(-421,-375) scale(1,1)"><g><path fill="none" stroke="none"/><text fill="#000000" stroke="none" font-family="Arial" font-size="13px" font-style="normal" font-weight="normal" text-decoration="none" x="508" y="506.5">+unapply(credentialPolicy: CredentialPolicy): Option[String]</text></g></g><g transform="translate(-421,-375) scale(1,1)"><rect fill="#C0C0C0" stroke="none" x="454" y="602" width="149.6689453125" height="38" opacity="0.2"/></g><g transform="translate(-421,-375) scale(1,1)"><rect fill="#C0C0C0" stroke="none" x="505.7880859375" y="584" width="106.880859375" height="22" opacity="0.2"/></g><g transform="translate(-421,-375) scale(1,1)"><rect fill="#ffffff" stroke="none" x="447" y="595" width="149.6689453125" height="38"/></g><g transform="translate(-421,-375) scale(1,1)"><path fill="none" stroke="#000000" d="M 447 595 L 596.6689453125 595 L 596.6689453125 633 L 447 633 L 447 595 Z Z" stroke-miterlimit="10"/></g><g transform="translate(-421,-375) scale(1,1)"><g><path fill="none" stroke="none"/><text fill="#000000" stroke="none" font-family="Arial" font-size="13px" font-style="normal" font-weight="normal" text-decoration="none" x="497.259521484375" y="612.5">«object»</text></g></g><g transform="translate(-421,-375) scale(1,1)"><g><path fill="none" stroke="none"/><text fill="#000000" stroke="none" font-family="Arial" font-size="13px" font-style="normal" font-weight="bold" text-decoration="none" x="474.509521484375" y="627.5">UserIDGenerate</text></g></g><g transform="translate(-421,-375) scale(1,1)"><rect fill="#ffffff" stroke="none" x="498.7880859375" y="577" width="106.880859375" height="22"/></g><g transform="translate(-421,-375) scale(1,1)"><path fill="none" stroke="#000000" d="M 498.7880859375 577 L 605.6689453125 577 L 605.6689453125 599 L 498.7880859375 599 L 498.7880859375 577 Z Z" stroke-miterlimit="10" stroke-dasharray="3"/></g><g transform="translate(-421,-375) scale(1,1)"><g><path fill="none" stroke="none"/><text fill="#000000" stroke="none" font-family="Arial" font-size="13px" font-style="normal" font-weight="normal" text-decoration="none" x="503.7880859375" y="594.5">T = UserIDPolicy</text></g></g><g transform="translate(-421,-375) scale(1,1)"><rect fill="#C0C0C0" stroke="none" x="646" y="602" width="149.6689453125" height="46" opacity="0.2"/></g><g transform="translate(-421,-375) scale(1,1)"><rect fill="#C0C0C0" stroke="none" x="681.1572265625" y="584" width="123.51171875" height="22" opacity="0.2"/></g><g transform="translate(-421,-375) scale(1,1)"><rect fill="#ffffff" stroke="none" x="639" y="595" width="149.6689453125" height="46"/></g><g transform="translate(-421,-375) scale(1,1)"><path fill="none" stroke="#000000" d="M 639 595 L 788.6689453125 595 L 788.6689453125 641 L 639 641 L 639 595 Z Z" stroke-miterlimit="10"/></g><g transform="translate(-421,-375) scale(1,1)"><g><path fill="none" stroke="none"/><text fill="#000000" stroke="none" font-family="Arial" font-size="13px" font-style="normal" font-weight="normal" text-decoration="none" x="689.259521484375" y="612.5">«object»</text></g></g><g transform="translate(-421,-375) scale(1,1)"><g><path fill="none" stroke="none"/><text fill="#000000" stroke="none" font-family="Arial" font-size="13px" font-style="normal" font-weight="bold" text-decoration="none" x="658.194091796875" y="627.5">PasswordGenerate</text></g></g><g transform="translate(-421,-375) scale(1,1)"><rect fill="#ffffff" stroke="none" x="674.1572265625" y="577" width="123.51171875" height="22"/></g><g transform="translate(-421,-375) scale(1,1)"><path fill="none" stroke="#000000" d="M 674.1572265625 577 L 797.6689453125 577 L 797.6689453125 599 L 674.1572265625 599 L 674.1572265625 577 Z Z" stroke-miterlimit="10" stroke-dasharray="3"/></g><g transform="translate(-421,-375) scale(1,1)"><g><path fill="none" stroke="none"/><text fill="#000000" stroke="none" font-family="Arial" font-size="13px" font-style="normal" font-weight="normal" text-decoration="none" x="679.1572265625" y="594.5">T = PasswordPolicy</text></g></g><g transform="translate(-421,-375) scale(1,1)"><rect fill="#C0C0C0" stroke="none" x="846" y="602" width="149.6689453125" height="46" opacity="0.2"/></g><g transform="translate(-421,-375) scale(1,1)"><rect fill="#C0C0C0" stroke="none" x="911.51171875" y="584" width="93.1572265625" height="22" opacity="0.2"/></g><g transform="translate(-421,-375) scale(1,1)"><rect fill="#ffffff" stroke="none" x="839" y="595" width="149.6689453125" height="46"/></g><g transform="translate(-421,-375) scale(1,1)"><path fill="none" stroke="#000000" d="M 839 595 L 988.6689453125 595 L 988.6689453125 641 L 839 641 L 839 595 Z Z" stroke-miterlimit="10"/></g><g transform="translate(-421,-375) scale(1,1)"><g><path fill="none" stroke="none"/><text fill="#000000" stroke="none" font-family="Arial" font-size="13px" font-style="normal" font-weight="normal" text-decoration="none" x="889.259521484375" y="612.5">«object»</text></g></g><g transform="translate(-421,-375) scale(1,1)"><g><path fill="none" stroke="none"/><text fill="#000000" stroke="none" font-family="Arial" font-size="13px" font-style="normal" font-weight="bold" text-decoration="none" x="873.371337890625" y="627.5">OTPGenerate</text></g></g><g transform="translate(-421,-375) scale(1,1)"><rect fill="#ffffff" stroke="none" x="904.51171875" y="577" width="93.1572265625" height="22"/></g><g transform="translate(-421,-375) scale(1,1)"><path fill="none" stroke="#000000" d="M 904.51171875 577 L 997.6689453125 577 L 997.6689453125 599 L 904.51171875 599 L 904.51171875 577 Z Z" stroke-miterlimit="10" stroke-dasharray="3"/></g><g transform="translate(-421,-375) scale(1,1)"><g><path fill="none" stroke="none"/><text fill="#000000" stroke="none" font-family="Arial" font-size="13px" font-style="normal" font-weight="normal" text-decoration="none" x="909.51171875" y="594.5">T = OTPPolicy</text></g></g></g></svg>