<svg version="1.1" xmlns="http://www.w3.org/2000/svg" xmlns:xlink="http://www.w3.org/1999/xlink" width="700" height="604"><defs/><g><g transform="translate(-817,-643) scale(1,1)"><rect fill="#C0C0C0" stroke="none" x="834" y="660" width="272" height="15" opacity="0.2"/></g><g transform="translate(-817,-643) scale(1,1)"><rect fill="#C0C0C0" stroke="none" x="834" y="674" width="680" height="570" opacity="0.2"/></g><g transform="translate(-817,-643) scale(1,1)"><rect fill="#ffffff" stroke="none" x="827" y="668" width="680" height="569"/></g><g transform="translate(-817,-643) scale(1,1)"><path fill="none" stroke="#000000" d="M 827 668 L 1507 668 L 1507 1237 L 827 1237 L 827 668 Z Z" stroke-miterlimit="10"/></g><g transform="translate(-817,-643) scale(1,1)"><rect fill="#ffffff" stroke="none" x="827" y="653" width="272" height="15"/></g><g transform="translate(-817,-643) scale(1,1)"><path fill="none" stroke="#000000" d="M 827 653 L 1099 653 L 1099 668 L 827 668 L 827 653 Z Z" stroke-miterlimit="10"/></g><g transform="translate(-817,-643) scale(1,1)"><rect fill="#ffffff" stroke="none" x="827" y="667" width="680" height="570"/></g><g transform="translate(-817,-643) scale(1,1)"><path fill="none" stroke="#000000" d="M 827 667 L 1507 667 L 1507 1237 L 827 1237 L 827 667 Z Z" stroke-miterlimit="10"/></g><g transform="translate(-817,-643) scale(1,1)"><g><path fill="none" stroke="none"/><text fill="#000000" stroke="none" font-family="Arial" font-size="13px" font-style="normal" font-weight="bold" text-decoration="none" x="1141.339599609375" y="687.5">Alphabet</text></g></g><g transform="translate(-817,-643) scale(1,1)"><rect fill="#C0C0C0" stroke="none" x="1106" y="1108" width="102.9072265625" height="40" opacity="0.2"/></g><g transform="translate(-817,-643) scale(1,1)"><rect fill="#ffffff" stroke="none" x="1099" y="1101" width="102.9072265625" height="40"/></g><g transform="translate(-817,-643) scale(1,1)"><path fill="none" stroke="#000000" d="M 1099 1101 L 1201.9072265625 1101 L 1201.9072265625 1141 L 1099 1141 L 1099 1101 Z Z" stroke-miterlimit="10"/></g><g transform="translate(-817,-643) scale(1,1)"><g><path fill="none" stroke="none"/><text fill="#000000" stroke="none" font-family="Arial" font-size="13px" font-style="normal" font-weight="normal" text-decoration="none" x="1132.38818359375" y="1118.5">«trait»</text></g></g><g transform="translate(-817,-643) scale(1,1)"><g><path fill="none" stroke="none"/><text fill="#000000" stroke="none" font-family="Arial" font-size="13px" font-style="normal" font-weight="bold" text-decoration="none" x="1107.45458984375" y="1133.5">PolicyAlphabet</text></g></g><g transform="translate(-817,-643) scale(1,1)"><rect fill="#C0C0C0" stroke="none" x="911" y="703" width="525" height="130" opacity="0.2"/></g><g transform="translate(-817,-643) scale(1,1)"><rect fill="#ffffff" stroke="none" x="904" y="696" width="525" height="130"/></g><g transform="translate(-817,-643) scale(1,1)"><path fill="none" stroke="#000000" d="M 904 696 L 1429 696 L 1429 826 L 904 826 L 904 696 Z Z" stroke-miterlimit="10"/></g><g transform="translate(-817,-643) scale(1,1)"><path fill="none" stroke="#000000" d="M 904 734 L 1429 734" stroke-miterlimit="10"/></g><g transform="translate(-817,-643) scale(1,1)"><path fill="none" stroke="#000000" d="M 904 744 L 1429 744" stroke-miterlimit="10"/></g><g transform="translate(-817,-643) scale(1,1)"><g><path fill="none" stroke="none"/><text fill="#000000" stroke="none" font-family="Arial" font-size="13px" font-style="normal" font-weight="normal" text-decoration="none" x="1148.4345703125" y="713.5">«trait»</text></g></g><g transform="translate(-817,-643) scale(1,1)"><g><path fill="none" stroke="none"/><text fill="#000000" stroke="none" font-family="Arial" font-size="13px" font-style="normal" font-weight="bold" text-decoration="none" x="1114.471435546875" y="728.5">AlphabetCommon</text></g></g><g transform="translate(-817,-643) scale(1,1)"><g><path fill="none" stroke="none"/><text fill="#000000" stroke="none" font-family="Arial" font-size="13px" font-style="normal" font-weight="normal" text-decoration="none" x="909" y="761.5">+lowers(): SymbolicAlphabet</text></g></g><g transform="translate(-817,-643) scale(1,1)"><g><path fill="none" stroke="none"/><text fill="#000000" stroke="none" font-family="Arial" font-size="13px" font-style="normal" font-weight="normal" text-decoration="none" x="909" y="776.5">+uppers(): SymbolicAlphabet</text></g></g><g transform="translate(-817,-643) scale(1,1)"><g><path fill="none" stroke="none"/><text fill="#000000" stroke="none" font-family="Arial" font-size="13px" font-style="normal" font-weight="normal" text-decoration="none" x="909" y="791.5">+digits(): SymbolicAlphabet</text></g></g><g transform="translate(-817,-643) scale(1,1)"><g><path fill="none" stroke="none"/><text fill="#000000" stroke="none" font-family="Arial" font-size="13px" font-style="normal" font-weight="normal" text-decoration="none" x="909" y="806.5">+symbols(): SymbolicAlphabet</text></g></g><g transform="translate(-817,-643) scale(1,1)"><g><path fill="none" stroke="none"/><text fill="#000000" stroke="none" font-family="Arial" font-size="13px" font-style="normal" font-weight="normal" text-decoration="none" x="909" y="821.5">+alphanumericsymbols(): SymbolicAlphabet = lowers and uppers and digits and symbols</text></g></g><g transform="translate(-817,-643) scale(1,1)"><path fill="none" stroke="#000000" d="M 1066 884 L 1112 827" stroke-miterlimit="10"/></g><g transform="translate(-817,-643) scale(1,1)"><path fill="#FFFFFF" stroke="none" d="M 1105.7869635651034 848.1044587293455 L 1112 827 L 1092.6836139243337 837.5298256859173"/></g><g transform="translate(-817,-643) scale(1,1)"><path fill="none" stroke="#000000" d="M 1105.7869635651034 848.1044587293455 L 1112 827 L 1092.6836139243337 837.5298256859173 L 1105.7869635651034 848.1044587293455" stroke-miterlimit="10"/></g><g transform="translate(-817,-643) scale(1,1)"><path fill="none" stroke="#000000" d="M 1128 1100 L 1087 1061" stroke-miterlimit="10"/></g><g transform="translate(-817,-643) scale(1,1)"><path fill="#FFFFFF" stroke="none" d="M 1107.52941116416 1068.9084307705682 L 1087 1061 L 1095.924380821531 1081.1085908743573"/></g><g transform="translate(-817,-643) scale(1,1)"><path fill="none" stroke="#000000" d="M 1107.52941116416 1068.9084307705682 L 1087 1061 L 1095.924380821531 1081.1085908743573 L 1107.52941116416 1068.9084307705682" stroke-miterlimit="10"/></g><g transform="translate(-817,-643) scale(1,1)"><path fill="none" stroke="#000000" d="M 1275 892 L 1221 827" stroke-miterlimit="10"/></g><g transform="translate(-817,-643) scale(1,1)"><path fill="#FFFFFF" stroke="none" d="M 1240.464139832602 837.2541338287012 L 1221 827 L 1227.512457700127 848.0139928310651"/></g><g transform="translate(-817,-643) scale(1,1)"><path fill="none" stroke="#000000" d="M 1240.464139832602 837.2541338287012 L 1221 827 L 1227.512457700127 848.0139928310651 L 1240.464139832602 837.2541338287012" stroke-miterlimit="10"/></g><g transform="translate(-817,-643) scale(1,1)"><path fill="none" stroke="#000000" d="M 1173 1100 L 1257 1024" stroke-miterlimit="10"/></g><g transform="translate(-817,-643) scale(1,1)"><path fill="#FFFFFF" stroke="none" d="M 1247.5764690629317 1043.8795639961775 L 1257 1024 L 1236.2795828629487 1031.393531880407"/></g><g transform="translate(-817,-643) scale(1,1)"><path fill="none" stroke="#000000" d="M 1247.5764690629317 1043.8795639961775 L 1257 1024 L 1236.2795828629487 1031.393531880407 L 1247.5764690629317 1043.8795639961775" stroke-miterlimit="10"/></g><g transform="translate(-817,-643) scale(1,1)"><rect fill="#C0C0C0" stroke="none" x="1194" y="900" width="286.80517578125" height="130" opacity="0.2"/></g><g transform="translate(-817,-643) scale(1,1)"><rect fill="#ffffff" stroke="none" x="1187" y="893" width="286.80517578125" height="130"/></g><g transform="translate(-817,-643) scale(1,1)"><path fill="none" stroke="#000000" d="M 1187 893 L 1473.80517578125 893 L 1473.80517578125 1023 L 1187 1023 L 1187 893 Z Z" stroke-miterlimit="10"/></g><g transform="translate(-817,-643) scale(1,1)"><path fill="none" stroke="#000000" d="M 1187 931 L 1473.80517578125 931" stroke-miterlimit="10"/></g><g transform="translate(-817,-643) scale(1,1)"><path fill="none" stroke="#000000" d="M 1187 941 L 1473.80517578125 941" stroke-miterlimit="10"/></g><g transform="translate(-817,-643) scale(1,1)"><g><path fill="none" stroke="none"/><text fill="#000000" stroke="none" font-family="Arial" font-size="13px" font-style="normal" font-weight="normal" text-decoration="none" x="1312.337158203125" y="910.5">«trait»</text></g></g><g transform="translate(-817,-643) scale(1,1)"><g><path fill="none" stroke="none"/><text fill="#000000" stroke="none" font-family="Arial" font-size="13px" font-style="normal" font-weight="bold" text-decoration="none" x="1280.173583984375" y="925.5">RandomAlphabet</text></g></g><g transform="translate(-817,-643) scale(1,1)"><g><path fill="none" stroke="none"/><text fill="#000000" stroke="none" font-family="Arial" font-size="13px" font-style="normal" font-weight="normal" text-decoration="none" x="1192" y="958.5">+randomLowers(): LazyList[Char]</text></g></g><g transform="translate(-817,-643) scale(1,1)"><g><path fill="none" stroke="none"/><text fill="#000000" stroke="none" font-family="Arial" font-size="13px" font-style="normal" font-weight="normal" text-decoration="none" x="1192" y="973.5">+randomUppers(): LazyList[Char]</text></g></g><g transform="translate(-817,-643) scale(1,1)"><g><path fill="none" stroke="none"/><text fill="#000000" stroke="none" font-family="Arial" font-size="13px" font-style="normal" font-weight="normal" text-decoration="none" x="1192" y="988.5">+randomDigits(): LazyList[Char]</text></g></g><g transform="translate(-817,-643) scale(1,1)"><g><path fill="none" stroke="none"/><text fill="#000000" stroke="none" font-family="Arial" font-size="13px" font-style="normal" font-weight="normal" text-decoration="none" x="1192" y="1003.5">+randomSymbols(): LazyList[Char]</text></g></g><g transform="translate(-817,-643) scale(1,1)"><g><path fill="none" stroke="none"/><text fill="#000000" stroke="none" font-family="Arial" font-size="13px" font-style="normal" font-weight="normal" text-decoration="none" x="1192" y="1018.5">+randomAlphanumericsymbols(): LazyList[Char]</text></g></g><g transform="translate(-817,-643) scale(1,1)"><rect fill="#C0C0C0" stroke="none" x="858" y="892" width="287.51611328125" height="175" opacity="0.2"/></g><g transform="translate(-817,-643) scale(1,1)"><rect fill="#ffffff" stroke="none" x="851" y="885" width="287.51611328125" height="175"/></g><g transform="translate(-817,-643) scale(1,1)"><path fill="none" stroke="#000000" d="M 851 885 L 1138.51611328125 885 L 1138.51611328125 1060 L 851 1060 L 851 885 Z Z" stroke-miterlimit="10"/></g><g transform="translate(-817,-643) scale(1,1)"><path fill="none" stroke="#000000" d="M 851 923 L 1138.51611328125 923" stroke-miterlimit="10"/></g><g transform="translate(-817,-643) scale(1,1)"><path fill="none" stroke="#000000" d="M 851 933 L 1138.51611328125 933" stroke-miterlimit="10"/></g><g transform="translate(-817,-643) scale(1,1)"><g><path fill="none" stroke="none"/><text fill="#000000" stroke="none" font-family="Arial" font-size="13px" font-style="normal" font-weight="normal" text-decoration="none" x="976.692626953125" y="902.5">«trait»</text></g></g><g transform="translate(-817,-643) scale(1,1)"><g><path fill="none" stroke="none"/><text fill="#000000" stroke="none" font-family="Arial" font-size="13px" font-style="normal" font-weight="bold" text-decoration="none" x="950.30859375" y="917.5">RegexAlphabet</text></g></g><g transform="translate(-817,-643) scale(1,1)"><g><path fill="none" stroke="none"/><text fill="#000000" stroke="none" font-family="Arial" font-size="13px" font-style="normal" font-weight="normal" text-decoration="none" x="856" y="950.5">+minimalLength(): Regex</text></g></g><g transform="translate(-817,-643) scale(1,1)"><g><path fill="none" stroke="none"/><text fill="#000000" stroke="none" font-family="Arial" font-size="13px" font-style="normal" font-weight="normal" text-decoration="none" x="856" y="965.5">+minimumLength(number: Int): Regex</text></g></g><g transform="translate(-817,-643) scale(1,1)"><g><path fill="none" stroke="none"/><text fill="#000000" stroke="none" font-family="Arial" font-size="13px" font-style="normal" font-weight="normal" text-decoration="none" x="856" y="980.5">+rangeLength(min: Int, max: Int): Regex</text></g></g><g transform="translate(-817,-643) scale(1,1)"><g><path fill="none" stroke="none"/><text fill="#000000" stroke="none" font-family="Arial" font-size="13px" font-style="normal" font-weight="normal" text-decoration="none" x="856" y="995.5">+minimumLowerCharacters(number: Int): Regex</text></g></g><g transform="translate(-817,-643) scale(1,1)"><g><path fill="none" stroke="none"/><text fill="#000000" stroke="none" font-family="Arial" font-size="13px" font-style="normal" font-weight="normal" text-decoration="none" x="856" y="1010.5">+minimumUpperCharacters(number: Int): Regex</text></g></g><g transform="translate(-817,-643) scale(1,1)"><g><path fill="none" stroke="none"/><text fill="#000000" stroke="none" font-family="Arial" font-size="13px" font-style="normal" font-weight="normal" text-decoration="none" x="856" y="1025.5">+minimumSymbols(number: Int): Regex</text></g></g><g transform="translate(-817,-643) scale(1,1)"><g><path fill="none" stroke="none"/><text fill="#000000" stroke="none" font-family="Arial" font-size="13px" font-style="normal" font-weight="normal" text-decoration="none" x="856" y="1040.5">+minimumNumbers(number: Int): Regex</text></g></g><g transform="translate(-817,-643) scale(1,1)"><g><path fill="none" stroke="none"/><text fill="#000000" stroke="none" font-family="Arial" font-size="13px" font-style="normal" font-weight="normal" text-decoration="none" x="856" y="1055.5">+onlyNumbers(): Regex</text></g></g><g transform="translate(-817,-643) scale(1,1)"><path fill="none" stroke="#000000" d="M 1090 1180 L 1128 1142" stroke-miterlimit="10"/></g><g transform="translate(-817,-643) scale(1,1)"><path fill="#FFFFFF" stroke="none" d="M 1119.580964487968 1162.3253497152482 L 1128 1142 L 1107.6746502847518 1150.419035512032"/></g><g transform="translate(-817,-643) scale(1,1)"><path fill="none" stroke="#000000" d="M 1119.580964487968 1162.3253497152482 L 1128 1142 L 1107.6746502847518 1150.419035512032 L 1119.580964487968 1162.3253497152482" stroke-miterlimit="10"/></g><g transform="translate(-817,-643) scale(1,1)"><rect fill="#C0C0C0" stroke="none" x="1002" y="1188" width="146.96630859375" height="40" opacity="0.2"/></g><g transform="translate(-817,-643) scale(1,1)"><rect fill="#ffffff" stroke="none" x="995" y="1181" width="146.96630859375" height="40"/></g><g transform="translate(-817,-643) scale(1,1)"><path fill="none" stroke="#000000" d="M 995 1181 L 1141.96630859375 1181 L 1141.96630859375 1221 L 995 1221 L 995 1181 Z Z" stroke-miterlimit="10"/></g><g transform="translate(-817,-643) scale(1,1)"><g><path fill="none" stroke="none"/><text fill="#000000" stroke="none" font-family="Arial" font-size="13px" font-style="normal" font-weight="normal" text-decoration="none" x="1030.908203125" y="1198.5">«case class»</text></g></g><g transform="translate(-817,-643) scale(1,1)"><g><path fill="none" stroke="none"/><text fill="#000000" stroke="none" font-family="Arial" font-size="13px" font-style="normal" font-weight="bold" text-decoration="none" x="1004.88916015625" y="1213.5">PolicyDefaultAlphabet</text></g></g><g transform="translate(-817,-643) scale(1,1)"><path fill="none" stroke="#000000" d="M 1219 1180 L 1174 1142" stroke-miterlimit="10"/></g><g transform="translate(-817,-643) scale(1,1)"><path fill="#FFFFFF" stroke="none" d="M 1194.9609754494613 1148.681130758119 L 1174 1142 L 1184.0973750155388 1161.5459207456588"/></g><g transform="translate(-817,-643) scale(1,1)"><path fill="none" stroke="#000000" d="M 1194.9609754494613 1148.681130758119 L 1174 1142 L 1184.0973750155388 1161.5459207456588 L 1194.9609754494613 1148.681130758119" stroke-miterlimit="10"/></g><g transform="translate(-817,-643) scale(1,1)"><rect fill="#C0C0C0" stroke="none" x="1186" y="1188" width="129.630859375" height="40" opacity="0.2"/></g><g transform="translate(-817,-643) scale(1,1)"><rect fill="#ffffff" stroke="none" x="1179" y="1181" width="129.630859375" height="40"/></g><g transform="translate(-817,-643) scale(1,1)"><path fill="none" stroke="#000000" d="M 1179 1181 L 1308.630859375 1181 L 1308.630859375 1221 L 1179 1221 L 1179 1181 Z Z" stroke-miterlimit="10"/></g><g transform="translate(-817,-643) scale(1,1)"><g><path fill="none" stroke="none"/><text fill="#000000" stroke="none" font-family="Arial" font-size="13px" font-style="normal" font-weight="normal" text-decoration="none" x="1206.240478515625" y="1198.5">«case class»</text></g></g><g transform="translate(-817,-643) scale(1,1)"><g><path fill="none" stroke="none"/><text fill="#000000" stroke="none" font-family="Arial" font-size="13px" font-style="normal" font-weight="bold" text-decoration="none" x="1187.45458984375" y="1213.5">PolicyOTPAlphabet</text></g></g></g></svg>