<svg version="1.1" xmlns="http://www.w3.org/2000/svg" xmlns:xlink="http://www.w3.org/1999/xlink" width="1076" height="496"><defs/><g><g transform="translate(-1713,-571) scale(1,1)"><rect fill="#C0C0C0" stroke="none" x="1730" y="588" width="422.4000000000001" height="15" opacity="0.2"/></g><g transform="translate(-1713,-571) scale(1,1)"><rect fill="#C0C0C0" stroke="none" x="1730" y="602" width="1056" height="362" opacity="0.2"/></g><g transform="translate(-1713,-571) scale(1,1)"><rect fill="#ffffff" stroke="none" x="1723" y="596" width="1056" height="361"/></g><g transform="translate(-1713,-571) scale(1,1)"><path fill="none" stroke="#000000" d="M 1723 596 L 2779 596 L 2779 957 L 1723 957 L 1723 596 Z Z" stroke-miterlimit="10"/></g><g transform="translate(-1713,-571) scale(1,1)"><rect fill="#ffffff" stroke="none" x="1723" y="581" width="422.4000000000001" height="15"/></g><g transform="translate(-1713,-571) scale(1,1)"><path fill="none" stroke="#000000" d="M 1723 581 L 2145.4 581 L 2145.4 596 L 1723 596 L 1723 581 Z Z" stroke-miterlimit="10"/></g><g transform="translate(-1713,-571) scale(1,1)"><rect fill="#ffffff" stroke="none" x="1723" y="595" width="1056" height="362"/></g><g transform="translate(-1713,-571) scale(1,1)"><path fill="none" stroke="#000000" d="M 1723 595 L 2779 595 L 2779 957 L 1723 957 L 1723 595 Z Z" stroke-miterlimit="10"/></g><g transform="translate(-1713,-571) scale(1,1)"><g><path fill="none" stroke="none"/><text fill="#000000" stroke="none" font-family="Arial" font-size="13px" font-style="normal" font-weight="bold" text-decoration="none" x="2222.81640625" y="615.5">Changers</text></g></g><g transform="translate(-1713,-571) scale(1,1)"><path fill="none" stroke="#000000" d="M 2330 697 L 2017 689" stroke-miterlimit="10" stroke-dasharray="3"/></g><g transform="translate(-1713,-571) scale(1,1)"><path fill="none" stroke="#000000" d="M 2027.2669133909499 685.0515206189302 L 2017 689 L 2027.0518006263253 693.467807534866" stroke-miterlimit="10"/></g><g transform="translate(-1713,-571) scale(1,1)"><g><path fill="none" stroke="none"/><text fill="#000000" stroke="none" font-family="Arial" font-size="13px" font-style="normal" font-weight="normal" text-decoration="none" x="2150.5" y="713.5">+create</text></g></g><g transform="translate(-1713,-571) scale(1,1)"><rect fill="#C0C0C0" stroke="none" x="2338" y="644" width="419.02685546875" height="130" opacity="0.2"/></g><g transform="translate(-1713,-571) scale(1,1)"><rect fill="#ffffff" stroke="none" x="2331" y="637" width="419.02685546875" height="130"/></g><g transform="translate(-1713,-571) scale(1,1)"><path fill="none" stroke="#000000" d="M 2331 637 L 2750.02685546875 637 L 2750.02685546875 767 L 2331 767 L 2331 637 Z Z" stroke-miterlimit="10"/></g><g transform="translate(-1713,-571) scale(1,1)"><path fill="none" stroke="#000000" d="M 2331 675 L 2750.02685546875 675" stroke-miterlimit="10"/></g><g transform="translate(-1713,-571) scale(1,1)"><path fill="none" stroke="#000000" d="M 2331 685 L 2750.02685546875 685" stroke-miterlimit="10"/></g><g transform="translate(-1713,-571) scale(1,1)"><g><path fill="none" stroke="none"/><text fill="#000000" stroke="none" font-family="Arial" font-size="13px" font-style="normal" font-weight="normal" text-decoration="none" x="2515.9384765625" y="654.5">«object»</text></g></g><g transform="translate(-1713,-571) scale(1,1)"><g><path fill="none" stroke="none"/><text fill="#000000" stroke="none" font-family="Arial" font-size="13px" font-style="normal" font-weight="bold" text-decoration="none" x="2498.2412109375" y="669.5">PolicyChanger</text></g></g><g transform="translate(-1713,-571) scale(1,1)"><g><path fill="none" stroke="none"/><text fill="#000000" stroke="none" font-family="Arial" font-size="13px" font-style="normal" font-weight="normal" text-decoration="none" x="2336" y="702.5">+apply(policy: Policy): PolicyChanger[Policy]</text></g></g><g transform="translate(-1713,-571) scale(1,1)"><g><path fill="none" stroke="none"/><text fill="#000000" stroke="none" font-family="Arial" font-size="13px" font-style="normal" font-weight="normal" text-decoration="none" x="2336" y="717.5">+userID(userIDPolicy: UserIDPolicy): UserIDPolicyChanger</text></g></g><g transform="translate(-1713,-571) scale(1,1)"><g><path fill="none" stroke="none"/><text fill="#000000" stroke="none" font-family="Arial" font-size="13px" font-style="normal" font-weight="normal" text-decoration="none" x="2336" y="732.5">+password(passwordPolicy: PasswordPolicy): PasswordPolicyChanger</text></g></g><g transform="translate(-1713,-571) scale(1,1)"><g><path fill="none" stroke="none"/><text fill="#000000" stroke="none" font-family="Arial" font-size="13px" font-style="normal" font-weight="normal" text-decoration="none" x="2336" y="747.5">+otp(otpPolicy: OTPPolicy): OTPPolicyChanger</text></g></g><g transform="translate(-1713,-571) scale(1,1)"><g><path fill="none" stroke="none"/><text fill="#000000" stroke="none" font-family="Arial" font-size="13px" font-style="normal" font-weight="normal" text-decoration="none" x="2336" y="762.5">+salt(saltPolicy: SaltPolicy): SaltPolicyChanger</text></g></g><g transform="translate(-1713,-571) scale(1,1)"><rect fill="#C0C0C0" stroke="none" x="2090" y="862" width="181.43896484375" height="37" opacity="0.2"/></g><g transform="translate(-1713,-571) scale(1,1)"><rect fill="#C0C0C0" stroke="none" x="2156.92724609375" y="844" width="123.51171875" height="22" opacity="0.2"/></g><g transform="translate(-1713,-571) scale(1,1)"><rect fill="#ffffff" stroke="none" x="2083" y="855" width="181.43896484375" height="37"/></g><g transform="translate(-1713,-571) scale(1,1)"><path fill="none" stroke="#000000" d="M 2083 855 L 2264.43896484375 855 L 2264.43896484375 892 L 2083 892 L 2083 855 Z Z" stroke-miterlimit="10"/></g><g transform="translate(-1713,-571) scale(1,1)"><g><path fill="none" stroke="none"/><text fill="#000000" stroke="none" font-family="Arial" font-size="13px" font-style="normal" font-weight="normal" text-decoration="none" x="2155.654052734375" y="872.5">«trait»</text></g></g><g transform="translate(-1713,-571) scale(1,1)"><g><path fill="none" stroke="none"/><text fill="#000000" stroke="none" font-family="Arial" font-size="13px" font-style="normal" font-weight="bold" text-decoration="none" x="2102.908203125" y="887.5">PasswordPolicyChanger</text></g></g><g transform="translate(-1713,-571) scale(1,1)"><rect fill="#ffffff" stroke="none" x="2149.92724609375" y="837" width="123.51171875" height="22"/></g><g transform="translate(-1713,-571) scale(1,1)"><path fill="none" stroke="#000000" d="M 2149.92724609375 837 L 2273.43896484375 837 L 2273.43896484375 859 L 2149.92724609375 859 L 2149.92724609375 837 Z Z" stroke-miterlimit="10" stroke-dasharray="3"/></g><g transform="translate(-1713,-571) scale(1,1)"><g><path fill="none" stroke="none"/><text fill="#000000" stroke="none" font-family="Arial" font-size="13px" font-style="normal" font-weight="normal" text-decoration="none" x="2154.92724609375" y="854.5">T = PasswordPolicy</text></g></g><g transform="translate(-1713,-571) scale(1,1)"><rect fill="#C0C0C0" stroke="none" x="1746" y="862" width="151.10986328125" height="37" opacity="0.2"/></g><g transform="translate(-1713,-571) scale(1,1)"><rect fill="#C0C0C0" stroke="none" x="1812.95263671875" y="844" width="93.1572265625" height="22" opacity="0.2"/></g><g transform="translate(-1713,-571) scale(1,1)"><rect fill="#ffffff" stroke="none" x="1739" y="855" width="151.10986328125" height="37"/></g><g transform="translate(-1713,-571) scale(1,1)"><path fill="none" stroke="#000000" d="M 1739 855 L 1890.10986328125 855 L 1890.10986328125 892 L 1739 892 L 1739 855 Z Z" stroke-miterlimit="10"/></g><g transform="translate(-1713,-571) scale(1,1)"><g><path fill="none" stroke="none"/><text fill="#000000" stroke="none" font-family="Arial" font-size="13px" font-style="normal" font-weight="normal" text-decoration="none" x="1798.29541015625" y="872.5">«trai»</text></g></g><g transform="translate(-1713,-571) scale(1,1)"><g><path fill="none" stroke="none"/><text fill="#000000" stroke="none" font-family="Arial" font-size="13px" font-style="normal" font-weight="bold" text-decoration="none" x="1758.9208984375" y="887.5">OTPPolicyChanger</text></g></g><g transform="translate(-1713,-571) scale(1,1)"><rect fill="#ffffff" stroke="none" x="1805.95263671875" y="837" width="93.1572265625" height="22"/></g><g transform="translate(-1713,-571) scale(1,1)"><path fill="none" stroke="#000000" d="M 1805.95263671875 837 L 1899.10986328125 837 L 1899.10986328125 859 L 1805.95263671875 859 L 1805.95263671875 837 Z Z" stroke-miterlimit="10" stroke-dasharray="3"/></g><g transform="translate(-1713,-571) scale(1,1)"><g><path fill="none" stroke="none"/><text fill="#000000" stroke="none" font-family="Arial" font-size="13px" font-style="normal" font-weight="normal" text-decoration="none" x="1810.95263671875" y="854.5">T = OTPPolicy</text></g></g><g transform="translate(-1713,-571) scale(1,1)"><rect fill="#C0C0C0" stroke="none" x="1906" y="660" width="116.62451171875" height="70" opacity="0.2"/></g><g transform="translate(-1713,-571) scale(1,1)"><rect fill="#ffffff" stroke="none" x="1899" y="653" width="116.62451171875" height="70"/></g><g transform="translate(-1713,-571) scale(1,1)"><path fill="none" stroke="#000000" d="M 1899 653 L 2015.62451171875 653 L 2015.62451171875 723 L 1899 723 L 1899 653 Z Z" stroke-miterlimit="10"/></g><g transform="translate(-1713,-571) scale(1,1)"><path fill="none" stroke="#000000" d="M 1899 691 L 2015.62451171875 691" stroke-miterlimit="10"/></g><g transform="translate(-1713,-571) scale(1,1)"><path fill="none" stroke="#000000" d="M 1899 701 L 2015.62451171875 701" stroke-miterlimit="10"/></g><g transform="translate(-1713,-571) scale(1,1)"><g><path fill="none" stroke="none"/><text fill="#000000" stroke="none" font-family="Arial" font-size="13px" font-style="normal" font-weight="normal" text-decoration="none" x="1939.246826171875" y="670.5">«trait»</text></g></g><g transform="translate(-1713,-571) scale(1,1)"><g><path fill="none" stroke="none"/><text fill="#000000" stroke="none" font-family="Arial" font-size="13px" font-style="normal" font-weight="bold" text-decoration="none" x="1907.457763671875" y="685.5">PolicyChanger[T]</text></g></g><g transform="translate(-1713,-571) scale(1,1)"><g><path fill="none" stroke="none"/><text fill="#000000" stroke="none" font-family="Arial" font-size="13px" font-style="normal" font-weight="normal" text-decoration="none" x="1904" y="718.5">+rebuild(): T</text></g></g><g transform="translate(-1713,-571) scale(1,1)"><path fill="none" stroke="#000000" d="M 1986 836 L 1964 724" stroke-miterlimit="10"/></g><g transform="translate(-1713,-571) scale(1,1)"><path fill="#FFFFFF" stroke="none" d="M 1976.1787843765069 742.3214958753522 L 1964 724 L 1959.656447044294 745.5669549941798"/></g><g transform="translate(-1713,-571) scale(1,1)"><path fill="none" stroke="#000000" d="M 1976.1787843765069 742.3214958753522 L 1964 724 L 1959.656447044294 745.5669549941798 L 1976.1787843765069 742.3214958753522" stroke-miterlimit="10"/></g><g transform="translate(-1713,-571) scale(1,1)"><g><path fill="none" stroke="none"/><text fill="#000000" stroke="none" font-family="Arial" font-size="13px" font-style="normal" font-weight="normal" text-decoration="none" x="1927.536376953125" y="787.5">+mixin</text></g></g><g transform="translate(-1713,-571) scale(1,1)"><path fill="none" stroke="#000000" d="M 2143 836 L 2002 724" stroke-miterlimit="10"/></g><g transform="translate(-1713,-571) scale(1,1)"><path fill="#FFFFFF" stroke="none" d="M 2023.1518760564193 730.04963960033 L 2002 724 L 2012.6788938091834 743.2343761794394"/></g><g transform="translate(-1713,-571) scale(1,1)"><path fill="none" stroke="#000000" d="M 2023.1518760564193 730.04963960033 L 2002 724 L 2012.6788938091834 743.2343761794394 L 2023.1518760564193 730.04963960033" stroke-miterlimit="10"/></g><g transform="translate(-1713,-571) scale(1,1)"><g><path fill="none" stroke="none"/><text fill="#000000" stroke="none" font-family="Arial" font-size="13px" font-style="normal" font-weight="normal" text-decoration="none" x="2042.536376953125" y="797.5">+mixin</text></g></g><g transform="translate(-1713,-571) scale(1,1)"><path fill="none" stroke="#000000" d="M 1841 836 L 1929 724" stroke-miterlimit="10"/></g><g transform="translate(-1713,-571) scale(1,1)"><path fill="#FFFFFF" stroke="none" d="M 1923.0626029136745 745.1836568098922 L 1929 724 L 1909.8225188770587 734.7807336382655"/></g><g transform="translate(-1713,-571) scale(1,1)"><path fill="none" stroke="#000000" d="M 1923.0626029136745 745.1836568098922 L 1929 724 L 1909.8225188770587 734.7807336382655 L 1923.0626029136745 745.1836568098922" stroke-miterlimit="10"/></g><g transform="translate(-1713,-571) scale(1,1)"><g><path fill="none" stroke="none"/><text fill="#000000" stroke="none" font-family="Arial" font-size="13px" font-style="normal" font-weight="normal" text-decoration="none" x="1844.536376953125" y="775.5">+mixin</text></g></g><g transform="translate(-1713,-571) scale(1,1)"><path fill="none" stroke="#000000" d="M 2305 836 L 2017 713" stroke-miterlimit="10"/></g><g transform="translate(-1713,-571) scale(1,1)"><path fill="#FFFFFF" stroke="none" d="M 2038.998684734252 713.2405617654257 L 2017 713 L 2032.385316297148 728.7255220084013"/></g><g transform="translate(-1713,-571) scale(1,1)"><path fill="none" stroke="#000000" d="M 2038.998684734252 713.2405617654257 L 2017 713 L 2032.385316297148 728.7255220084013 L 2038.998684734252 713.2405617654257" stroke-miterlimit="10"/></g><g transform="translate(-1713,-571) scale(1,1)"><g><path fill="none" stroke="none"/><text fill="#000000" stroke="none" font-family="Arial" font-size="13px" font-style="normal" font-weight="normal" text-decoration="none" x="2135.536376953125" y="793.5">+mixin</text></g></g><g transform="translate(-1713,-571) scale(1,1)"><rect fill="#C0C0C0" stroke="none" x="1914" y="862" width="161.9326171875" height="37" opacity="0.2"/></g><g transform="translate(-1713,-571) scale(1,1)"><rect fill="#C0C0C0" stroke="none" x="1978.0517578125" y="844" width="106.880859375" height="22" opacity="0.2"/></g><g transform="translate(-1713,-571) scale(1,1)"><rect fill="#ffffff" stroke="none" x="1907" y="855" width="161.9326171875" height="37"/></g><g transform="translate(-1713,-571) scale(1,1)"><path fill="none" stroke="#000000" d="M 1907 855 L 2068.9326171875 855 L 2068.9326171875 892 L 1907 892 L 1907 855 Z Z" stroke-miterlimit="10"/></g><g transform="translate(-1713,-571) scale(1,1)"><g><path fill="none" stroke="none"/><text fill="#000000" stroke="none" font-family="Arial" font-size="13px" font-style="normal" font-weight="normal" text-decoration="none" x="1969.90087890625" y="872.5">«trait»</text></g></g><g transform="translate(-1713,-571) scale(1,1)"><g><path fill="none" stroke="none"/><text fill="#000000" stroke="none" font-family="Arial" font-size="13px" font-style="normal" font-weight="bold" text-decoration="none" x="1925.470458984375" y="887.5">UserIDPolicyChanger</text></g></g><g transform="translate(-1713,-571) scale(1,1)"><rect fill="#ffffff" stroke="none" x="1971.0517578125" y="837" width="106.880859375" height="22"/></g><g transform="translate(-1713,-571) scale(1,1)"><path fill="none" stroke="#000000" d="M 1971.0517578125 837 L 2077.9326171875 837 L 2077.9326171875 859 L 1971.0517578125 859 L 1971.0517578125 837 Z Z" stroke-miterlimit="10" stroke-dasharray="3"/></g><g transform="translate(-1713,-571) scale(1,1)"><g><path fill="none" stroke="none"/><text fill="#000000" stroke="none" font-family="Arial" font-size="13px" font-style="normal" font-weight="normal" text-decoration="none" x="1976.0517578125" y="854.5">T = UserIDPolicy</text></g></g><g transform="translate(-1713,-571) scale(1,1)"><rect fill="#C0C0C0" stroke="none" x="2298" y="862" width="151.10986328125" height="37" opacity="0.2"/></g><g transform="translate(-1713,-571) scale(1,1)"><rect fill="#C0C0C0" stroke="none" x="2369.275390625" y="844" width="88.83447265625" height="22" opacity="0.2"/></g><g transform="translate(-1713,-571) scale(1,1)"><rect fill="#ffffff" stroke="none" x="2291" y="855" width="151.10986328125" height="37"/></g><g transform="translate(-1713,-571) scale(1,1)"><path fill="none" stroke="#000000" d="M 2291 855 L 2442.10986328125 855 L 2442.10986328125 892 L 2291 892 L 2291 855 Z Z" stroke-miterlimit="10"/></g><g transform="translate(-1713,-571) scale(1,1)"><g><path fill="none" stroke="none"/><text fill="#000000" stroke="none" font-family="Arial" font-size="13px" font-style="normal" font-weight="normal" text-decoration="none" x="2348.489501953125" y="872.5">«trait»</text></g></g><g transform="translate(-1713,-571) scale(1,1)"><g><path fill="none" stroke="none"/><text fill="#000000" stroke="none" font-family="Arial" font-size="13px" font-style="normal" font-weight="bold" text-decoration="none" x="2313.082275390625" y="887.5">SaltPolicyChanger</text></g></g><g transform="translate(-1713,-571) scale(1,1)"><rect fill="#ffffff" stroke="none" x="2362.275390625" y="837" width="88.83447265625" height="22"/></g><g transform="translate(-1713,-571) scale(1,1)"><path fill="none" stroke="#000000" d="M 2362.275390625 837 L 2451.10986328125 837 L 2451.10986328125 859 L 2362.275390625 859 L 2362.275390625 837 Z Z" stroke-miterlimit="10" stroke-dasharray="3"/></g><g transform="translate(-1713,-571) scale(1,1)"><g><path fill="none" stroke="none"/><text fill="#000000" stroke="none" font-family="Arial" font-size="13px" font-style="normal" font-weight="normal" text-decoration="none" x="2367.275390625" y="854.5">T = SaltPolicy</text></g></g><g transform="translate(-1713,-571) scale(1,1)"><path fill="none" stroke="#000000" d="M 1994 893 L 1999 999" stroke-miterlimit="10"/></g><g transform="translate(-1713,-571) scale(1,1)"><path fill="#FFFFFF" stroke="none" d="M 1989.6326369362937 979.0939077357531 L 1999 999 L 2006.452006882791 978.3005412288428"/></g><g transform="translate(-1713,-571) scale(1,1)"><path fill="none" stroke="#000000" d="M 1989.6326369362937 979.0939077357531 L 1999 999 L 2006.452006882791 978.3005412288428 L 1989.6326369362937 979.0939077357531" stroke-miterlimit="10"/></g><g transform="translate(-1713,-571) scale(1,1)"><path fill="none" stroke="#000000" d="M 2376 893 L 2394 991" stroke-miterlimit="10"/></g><g transform="translate(-1713,-571) scale(1,1)"><path fill="#FFFFFF" stroke="none" d="M 2382.0476761524696 972.5299714498393 L 2394 991 L 2398.608713193001 969.4881483199457"/></g><g transform="translate(-1713,-571) scale(1,1)"><path fill="none" stroke="#000000" d="M 2382.0476761524696 972.5299714498393 L 2394 991 L 2398.608713193001 969.4881483199457 L 2382.0476761524696 972.5299714498393" stroke-miterlimit="10"/></g><g transform="translate(-1713,-571) scale(1,1)"><path fill="none" stroke="#000000" d="M 2182 893 L 2199 999" stroke-miterlimit="10"/></g><g transform="translate(-1713,-571) scale(1,1)"><path fill="#FFFFFF" stroke="none" d="M 2187.4685960910215 980.2642928105716 L 2199 999 L 2204.0942117033305 977.59792049539"/></g><g transform="translate(-1713,-571) scale(1,1)"><path fill="none" stroke="#000000" d="M 2187.4685960910215 980.2642928105716 L 2199 999 L 2204.0942117033305 977.59792049539 L 2187.4685960910215 980.2642928105716" stroke-miterlimit="10"/></g><g transform="translate(-1713,-571) scale(1,1)"><path fill="none" stroke="#000000" d="M 1817 893 L 1809 999" stroke-miterlimit="10"/></g><g transform="translate(-1713,-571) scale(1,1)"><path fill="#FFFFFF" stroke="none" d="M 1802.1344783090453 978.0986935357851 L 1809 999 L 1818.9247985924471 979.365887519438"/></g><g transform="translate(-1713,-571) scale(1,1)"><path fill="none" stroke="#000000" d="M 1802.1344783090453 978.0986935357851 L 1809 999 L 1818.9247985924471 979.365887519438 L 1802.1344783090453 978.0986935357851" stroke-miterlimit="10"/></g><g transform="translate(-1713,-571) scale(1,1)"><rect fill="#C0C0C0" stroke="none" x="1735" y="1025" width="149.6689453125" height="39" opacity="0.2"/></g><g transform="translate(-1713,-571) scale(1,1)"><rect fill="#C0C0C0" stroke="none" x="1800.51171875" y="1007" width="93.1572265625" height="22" opacity="0.2"/></g><g transform="translate(-1713,-571) scale(1,1)"><rect fill="#ffffff" stroke="none" x="1728" y="1018" width="149.6689453125" height="39"/></g><g transform="translate(-1713,-571) scale(1,1)"><path fill="none" stroke="#000000" d="M 1728 1018 L 1877.6689453125 1018 L 1877.6689453125 1057 L 1728 1057 L 1728 1018 Z Z" stroke-miterlimit="10"/></g><g transform="translate(-1713,-571) scale(1,1)"><g><path fill="none" stroke="none"/><text fill="#000000" stroke="none" font-family="Arial" font-size="13px" font-style="normal" font-weight="normal" text-decoration="none" x="1765.259521484375" y="1035.5">«case class»</text></g></g><g transform="translate(-1713,-571) scale(1,1)"><g><path fill="none" stroke="none"/><text fill="#000000" stroke="none" font-family="Arial" font-size="13px" font-style="normal" font-weight="bold" text-decoration="none" x="1751.90087890625" y="1050.5">OTPPolicyBuilder</text></g></g><g transform="translate(-1713,-571) scale(1,1)"><rect fill="#ffffff" stroke="none" x="1793.51171875" y="1000" width="93.1572265625" height="22"/></g><g transform="translate(-1713,-571) scale(1,1)"><path fill="none" stroke="#000000" d="M 1793.51171875 1000 L 1886.6689453125 1000 L 1886.6689453125 1022 L 1793.51171875 1022 L 1793.51171875 1000 Z Z" stroke-miterlimit="10" stroke-dasharray="3"/></g><g transform="translate(-1713,-571) scale(1,1)"><g><path fill="none" stroke="none"/><text fill="#000000" stroke="none" font-family="Arial" font-size="13px" font-style="normal" font-weight="normal" text-decoration="none" x="1798.51171875" y="1017.5">T = OTPPolicy</text></g></g><g transform="translate(-1713,-571) scale(1,1)"><rect fill="#C0C0C0" stroke="none" x="1927" y="1025" width="153.9853515625" height="39" opacity="0.2"/></g><g transform="translate(-1713,-571) scale(1,1)"><rect fill="#C0C0C0" stroke="none" x="1983.1044921875" y="1007" width="106.880859375" height="22" opacity="0.2"/></g><g transform="translate(-1713,-571) scale(1,1)"><rect fill="#ffffff" stroke="none" x="1920" y="1018" width="153.9853515625" height="39"/></g><g transform="translate(-1713,-571) scale(1,1)"><path fill="none" stroke="#000000" d="M 1920 1018 L 2073.9853515625 1018 L 2073.9853515625 1057 L 1920 1057 L 1920 1018 Z Z" stroke-miterlimit="10"/></g><g transform="translate(-1713,-571) scale(1,1)"><g><path fill="none" stroke="none"/><text fill="#000000" stroke="none" font-family="Arial" font-size="13px" font-style="normal" font-weight="normal" text-decoration="none" x="1959.417724609375" y="1035.5">«case class»</text></g></g><g transform="translate(-1713,-571) scale(1,1)"><g><path fill="none" stroke="none"/><text fill="#000000" stroke="none" font-family="Arial" font-size="13px" font-style="normal" font-weight="bold" text-decoration="none" x="1939.197265625" y="1050.5">UserIDPolicyBuilder</text></g></g><g transform="translate(-1713,-571) scale(1,1)"><rect fill="#ffffff" stroke="none" x="1976.1044921875" y="1000" width="106.880859375" height="22"/></g><g transform="translate(-1713,-571) scale(1,1)"><path fill="none" stroke="#000000" d="M 1976.1044921875 1000 L 2082.9853515625 1000 L 2082.9853515625 1022 L 1976.1044921875 1022 L 1976.1044921875 1000 Z Z" stroke-miterlimit="10" stroke-dasharray="3"/></g><g transform="translate(-1713,-571) scale(1,1)"><g><path fill="none" stroke="none"/><text fill="#000000" stroke="none" font-family="Arial" font-size="13px" font-style="normal" font-weight="normal" text-decoration="none" x="1981.1044921875" y="1017.5">T = UserIDPolicy</text></g></g><g transform="translate(-1713,-571) scale(1,1)"><rect fill="#C0C0C0" stroke="none" x="2119" y="1025" width="173.49169921875" height="39" opacity="0.2"/></g><g transform="translate(-1713,-571) scale(1,1)"><rect fill="#C0C0C0" stroke="none" x="2177.97998046875" y="1007" width="123.51171875" height="22" opacity="0.2"/></g><g transform="translate(-1713,-571) scale(1,1)"><rect fill="#ffffff" stroke="none" x="2112" y="1018" width="173.49169921875" height="39"/></g><g transform="translate(-1713,-571) scale(1,1)"><path fill="none" stroke="#000000" d="M 2112 1018 L 2285.49169921875 1018 L 2285.49169921875 1057 L 2112 1057 L 2112 1018 Z Z" stroke-miterlimit="10"/></g><g transform="translate(-1713,-571) scale(1,1)"><g><path fill="none" stroke="none"/><text fill="#000000" stroke="none" font-family="Arial" font-size="13px" font-style="normal" font-weight="normal" text-decoration="none" x="2161.1708984375" y="1035.5">«case class»</text></g></g><g transform="translate(-1713,-571) scale(1,1)"><g><path fill="none" stroke="none"/><text fill="#000000" stroke="none" font-family="Arial" font-size="13px" font-style="normal" font-weight="bold" text-decoration="none" x="2132.635009765625" y="1050.5">PasswordPolicyBuilder</text></g></g><g transform="translate(-1713,-571) scale(1,1)"><rect fill="#ffffff" stroke="none" x="2170.97998046875" y="1000" width="123.51171875" height="22"/></g><g transform="translate(-1713,-571) scale(1,1)"><path fill="none" stroke="#000000" d="M 2170.97998046875 1000 L 2294.49169921875 1000 L 2294.49169921875 1022 L 2170.97998046875 1022 L 2170.97998046875 1000 Z Z" stroke-miterlimit="10" stroke-dasharray="3"/></g><g transform="translate(-1713,-571) scale(1,1)"><g><path fill="none" stroke="none"/><text fill="#000000" stroke="none" font-family="Arial" font-size="13px" font-style="normal" font-weight="normal" text-decoration="none" x="2175.97998046875" y="1017.5">T = PasswordPolicy</text></g></g><g transform="translate(-1713,-571) scale(1,1)"><rect fill="#C0C0C0" stroke="none" x="2327" y="1017" width="149.6689453125" height="39" opacity="0.2"/></g><g transform="translate(-1713,-571) scale(1,1)"><rect fill="#C0C0C0" stroke="none" x="2396.83447265625" y="999" width="88.83447265625" height="22" opacity="0.2"/></g><g transform="translate(-1713,-571) scale(1,1)"><rect fill="#ffffff" stroke="none" x="2320" y="1010" width="149.6689453125" height="39"/></g><g transform="translate(-1713,-571) scale(1,1)"><path fill="none" stroke="#000000" d="M 2320 1010 L 2469.6689453125 1010 L 2469.6689453125 1049 L 2320 1049 L 2320 1010 Z Z" stroke-miterlimit="10"/></g><g transform="translate(-1713,-571) scale(1,1)"><g><path fill="none" stroke="none"/><text fill="#000000" stroke="none" font-family="Arial" font-size="13px" font-style="normal" font-weight="normal" text-decoration="none" x="2357.259521484375" y="1027.5">«case class»</text></g></g><g transform="translate(-1713,-571) scale(1,1)"><g><path fill="none" stroke="none"/><text fill="#000000" stroke="none" font-family="Arial" font-size="13px" font-style="normal" font-weight="bold" text-decoration="none" x="2346.062255859375" y="1042.5">SaltPolicyBuilder</text></g></g><g transform="translate(-1713,-571) scale(1,1)"><rect fill="#ffffff" stroke="none" x="2389.83447265625" y="992" width="88.83447265625" height="22"/></g><g transform="translate(-1713,-571) scale(1,1)"><path fill="none" stroke="#000000" d="M 2389.83447265625 992 L 2478.6689453125 992 L 2478.6689453125 1014 L 2389.83447265625 1014 L 2389.83447265625 992 Z Z" stroke-miterlimit="10" stroke-dasharray="3"/></g><g transform="translate(-1713,-571) scale(1,1)"><g><path fill="none" stroke="none"/><text fill="#000000" stroke="none" font-family="Arial" font-size="13px" font-style="normal" font-weight="normal" text-decoration="none" x="2394.83447265625" y="1009.5">T = SaltPolicy</text></g></g></g></svg>