<svg version="1.1" xmlns="http://www.w3.org/2000/svg" xmlns:xlink="http://www.w3.org/1999/xlink" width="1644" height="945"><defs/><g><g transform="translate(-94,-241) scale(1,1)"><rect fill="#C0C0C0" stroke="none" x="437" y="258" width="519.2" height="15" opacity="0.2"/></g><g transform="translate(-94,-241) scale(1,1)"><rect fill="#C0C0C0" stroke="none" x="437" y="272" width="1298" height="911" opacity="0.2"/></g><g transform="translate(-94,-241) scale(1,1)"><rect fill="#ffffff" stroke="none" x="430" y="266" width="1298" height="910"/></g><g transform="translate(-94,-241) scale(1,1)"><path fill="none" stroke="#000000" d="M 430 266 L 1728 266 L 1728 1176 L 430 1176 L 430 266 Z Z" stroke-miterlimit="10"/></g><g transform="translate(-94,-241) scale(1,1)"><rect fill="#ffffff" stroke="none" x="430" y="251" width="519.2" height="15"/></g><g transform="translate(-94,-241) scale(1,1)"><path fill="none" stroke="#000000" d="M 430 251 L 949.2 251 L 949.2 266 L 430 266 L 430 251 Z Z" stroke-miterlimit="10"/></g><g transform="translate(-94,-241) scale(1,1)"><rect fill="#ffffff" stroke="none" x="430" y="265" width="1298" height="911"/></g><g transform="translate(-94,-241) scale(1,1)"><path fill="none" stroke="#000000" d="M 430 265 L 1728 265 L 1728 1176 L 430 1176 L 430 265 Z Z" stroke-miterlimit="10"/></g><g transform="translate(-94,-241) scale(1,1)"><g><path fill="none" stroke="none"/><text fill="#000000" stroke="none" font-family="Arial" font-size="13px" font-style="normal" font-weight="bold" text-decoration="none" x="1055.516845703125" y="285.5">Builders</text></g></g><g transform="translate(-94,-241) scale(1,1)"><path fill="none" stroke="#000000" d="M 1439 1083 L 1336 1104 L 1264 1081" stroke-miterlimit="10" stroke-dasharray="3"/></g><g transform="translate(-94,-241) scale(1,1)"><path fill="none" stroke="#000000" d="M 1274.9616747450589 1080.0825651066493 L 1264 1081 L 1272.3997989797779 1088.102350111007" stroke-miterlimit="10"/></g><g transform="translate(-94,-241) scale(1,1)"><g><path fill="none" stroke="none"/><text fill="#000000" stroke="none" font-family="Arial" font-size="13px" font-style="normal" font-weight="normal" text-decoration="none" x="1327.5" y="1135.5">+create</text></g></g><g transform="translate(-94,-241) scale(1,1)"><rect fill="#C0C0C0" stroke="none" x="1447" y="1023" width="249" height="85" opacity="0.2"/></g><g transform="translate(-94,-241) scale(1,1)"><rect fill="#ffffff" stroke="none" x="1440" y="1016" width="249" height="85"/></g><g transform="translate(-94,-241) scale(1,1)"><path fill="none" stroke="#000000" d="M 1440 1016 L 1689 1016 L 1689 1101 L 1440 1101 L 1440 1016 Z Z" stroke-miterlimit="10"/></g><g transform="translate(-94,-241) scale(1,1)"><path fill="none" stroke="#000000" d="M 1440 1054 L 1689 1054" stroke-miterlimit="10"/></g><g transform="translate(-94,-241) scale(1,1)"><path fill="none" stroke="#000000" d="M 1440 1064 L 1689 1064" stroke-miterlimit="10"/></g><g transform="translate(-94,-241) scale(1,1)"><g><path fill="none" stroke="none"/><text fill="#000000" stroke="none" font-family="Arial" font-size="13px" font-style="normal" font-weight="normal" text-decoration="none" x="1539.925048828125" y="1033.5">«object»</text></g></g><g transform="translate(-94,-241) scale(1,1)"><g><path fill="none" stroke="none"/><text fill="#000000" stroke="none" font-family="Arial" font-size="13px" font-style="normal" font-weight="bold" text-decoration="none" x="1526.92822265625" y="1048.5">PolicyBuilder</text></g></g><g transform="translate(-94,-241) scale(1,1)"><g><path fill="none" stroke="none"/><text fill="#000000" stroke="none" font-family="Arial" font-size="13px" font-style="normal" font-weight="normal" text-decoration="none" x="1445" y="1081.5">+apply(): PolicyBuilder</text></g></g><g transform="translate(-94,-241) scale(1,1)"><g><path fill="none" stroke="none"/><text fill="#000000" stroke="none" font-family="Arial" font-size="13px" font-style="normal" font-weight="normal" text-decoration="none" x="1445" y="1096.5">+apply(policyName: String): PolicyBuilder</text></g></g><g transform="translate(-94,-241) scale(1,1)"><rect fill="#C0C0C0" stroke="none" x="487" y="1009" width="545.22314453125" height="145" opacity="0.2"/></g><g transform="translate(-94,-241) scale(1,1)"><rect fill="#C0C0C0" stroke="none" x="974.78955078125" y="991" width="66.43359375" height="22" opacity="0.2"/></g><g transform="translate(-94,-241) scale(1,1)"><rect fill="#ffffff" stroke="none" x="480" y="1002" width="545.22314453125" height="145"/></g><g transform="translate(-94,-241) scale(1,1)"><path fill="none" stroke="#000000" d="M 480 1002 L 1025.22314453125 1002 L 1025.22314453125 1147 L 480 1147 L 480 1002 Z Z" stroke-miterlimit="10"/></g><g transform="translate(-94,-241) scale(1,1)"><path fill="none" stroke="#000000" d="M 480 1040 L 1025.22314453125 1040" stroke-miterlimit="10"/></g><g transform="translate(-94,-241) scale(1,1)"><path fill="none" stroke="#000000" d="M 480 1050 L 1025.22314453125 1050" stroke-miterlimit="10"/></g><g transform="translate(-94,-241) scale(1,1)"><g><path fill="none" stroke="none"/><text fill="#000000" stroke="none" font-family="Arial" font-size="13px" font-style="normal" font-weight="normal" text-decoration="none" x="734.546142578125" y="1019.5">«trait»</text></g></g><g transform="translate(-94,-241) scale(1,1)"><g><path fill="none" stroke="none"/><text fill="#000000" stroke="none" font-family="Arial" font-size="13px" font-style="normal" font-weight="bold" text-decoration="none" x="715.039794921875" y="1034.5">PolicyBuilder</text></g></g><g transform="translate(-94,-241) scale(1,1)"><g><path fill="none" stroke="none"/><text fill="#000000" stroke="none" font-family="Arial" font-size="13px" font-style="normal" font-weight="normal" text-decoration="none" x="485" y="1067.5">+of(credentialPolicy: (UserIDPolicy, PasswordPolicy)):  this.type</text></g></g><g transform="translate(-94,-241) scale(1,1)"><g><path fill="none" stroke="none"/><text fill="#000000" stroke="none" font-family="Arial" font-size="13px" font-style="normal" font-weight="normal" text-decoration="none" x="485" y="1082.5">+of(credentialPolicy: CredentialPolicy): this.type</text></g></g><g transform="translate(-94,-241) scale(1,1)"><g><path fill="none" stroke="none"/><text fill="#000000" stroke="none" font-family="Arial" font-size="13px" font-style="normal" font-weight="normal" text-decoration="none" x="485" y="1097.5">+and(credentialPolicy: CredentialPolicy): this.type</text></g></g><g transform="translate(-94,-241) scale(1,1)"><g><path fill="none" stroke="none"/><text fill="#000000" stroke="none" font-family="Arial" font-size="13px" font-style="normal" font-weight="normal" text-decoration="none" x="485" y="1112.5">+transmitWith(protocol: Protocol): this.type</text></g></g><g transform="translate(-94,-241) scale(1,1)"><g><path fill="none" stroke="none"/><text fill="#000000" stroke="none" font-family="Arial" font-size="13px" font-style="normal" font-weight="normal" text-decoration="none" x="485" y="1127.5">+storeWith(cryptographicAlgorithm: CryptographicAlgorithm): this.type</text></g></g><g transform="translate(-94,-241) scale(1,1)"><g><path fill="none" stroke="none"/><text fill="#000000" stroke="none" font-family="Arial" font-size="13px" font-style="normal" font-weight="normal" text-decoration="none" x="485" y="1142.5">+storeWith(cryptographicAlgorithmSalted: (CryptographicAlgorithm, SaltPolicy)):  this.type</text></g></g><g transform="translate(-94,-241) scale(1,1)"><rect fill="#ffffff" stroke="none" x="967.78955078125" y="984" width="66.43359375" height="22"/></g><g transform="translate(-94,-241) scale(1,1)"><path fill="none" stroke="#000000" d="M 967.78955078125 984 L 1034.22314453125 984 L 1034.22314453125 1006 L 967.78955078125 1006 L 967.78955078125 984 Z Z" stroke-miterlimit="10" stroke-dasharray="3"/></g><g transform="translate(-94,-241) scale(1,1)"><g><path fill="none" stroke="none"/><text fill="#000000" stroke="none" font-family="Arial" font-size="13px" font-style="normal" font-weight="normal" text-decoration="none" x="972.78955078125" y="1001.5">T = Policy</text></g></g><g transform="translate(-94,-241) scale(1,1)"><rect fill="#C0C0C0" stroke="none" x="111" y="831" width="305" height="85" opacity="0.2"/></g><g transform="translate(-94,-241) scale(1,1)"><rect fill="#ffffff" stroke="none" x="104" y="824" width="305" height="85"/></g><g transform="translate(-94,-241) scale(1,1)"><path fill="none" stroke="#000000" d="M 104 824 L 409 824 L 409 909 L 104 909 L 104 824 Z Z" stroke-miterlimit="10"/></g><g transform="translate(-94,-241) scale(1,1)"><path fill="none" stroke="#000000" d="M 104 862 L 409 862" stroke-miterlimit="10"/></g><g transform="translate(-94,-241) scale(1,1)"><path fill="none" stroke="#000000" d="M 104 872 L 409 872" stroke-miterlimit="10"/></g><g transform="translate(-94,-241) scale(1,1)"><g><path fill="none" stroke="none"/><text fill="#000000" stroke="none" font-family="Arial" font-size="13px" font-style="normal" font-weight="normal" text-decoration="none" x="238.4345703125" y="841.5">«trait»</text></g></g><g transform="translate(-94,-241) scale(1,1)"><g><path fill="none" stroke="none"/><text fill="#000000" stroke="none" font-family="Arial" font-size="13px" font-style="normal" font-weight="bold" text-decoration="none" x="224.523681640625" y="856.5">Builder[+S]</text></g></g><g transform="translate(-94,-241) scale(1,1)"><g><path fill="none" stroke="none"/><text fill="#000000" stroke="none" font-family="Arial" font-size="13px" font-style="normal" font-weight="normal" text-decoration="none" x="109" y="889.5">+build(): S</text></g></g><g transform="translate(-94,-241) scale(1,1)"><g><path fill="none" stroke="none"/><text fill="#000000" stroke="none" font-family="Arial" font-size="13px" font-style="normal" font-weight="normal" text-decoration="none" x="109" y="904.5">#builderMethod[T](f: T =&gt; Unit)(value: T): this.type</text></g></g><g transform="translate(-94,-241) scale(1,1)"><rect fill="#C0C0C0" stroke="none" x="461" y="330" width="499.20000000000005" height="15" opacity="0.2"/></g><g transform="translate(-94,-241) scale(1,1)"><rect fill="#C0C0C0" stroke="none" x="461" y="344" width="1248" height="562" opacity="0.2"/></g><g transform="translate(-94,-241) scale(1,1)"><rect fill="#ffffff" stroke="none" x="454" y="338" width="1248" height="561"/></g><g transform="translate(-94,-241) scale(1,1)"><path fill="none" stroke="#000000" d="M 454 338 L 1702 338 L 1702 899 L 454 899 L 454 338 Z Z" stroke-miterlimit="10"/></g><g transform="translate(-94,-241) scale(1,1)"><rect fill="#ffffff" stroke="none" x="454" y="323" width="499.20000000000005" height="15"/></g><g transform="translate(-94,-241) scale(1,1)"><path fill="none" stroke="#000000" d="M 454 323 L 953.2 323 L 953.2 338 L 454 338 L 454 323 Z Z" stroke-miterlimit="10"/></g><g transform="translate(-94,-241) scale(1,1)"><rect fill="#ffffff" stroke="none" x="454" y="337" width="1248" height="562"/></g><g transform="translate(-94,-241) scale(1,1)"><path fill="none" stroke="#000000" d="M 454 337 L 1702 337 L 1702 899 L 454 899 L 454 337 Z Z" stroke-miterlimit="10"/></g><g transform="translate(-94,-241) scale(1,1)"><g><path fill="none" stroke="none"/><text fill="#000000" stroke="none" font-family="Arial" font-size="13px" font-style="normal" font-weight="bold" text-decoration="none" x="1045.4873046875" y="357.5">stringpolicy</text></g></g><g transform="translate(-94,-241) scale(1,1)"><rect fill="#C0C0C0" stroke="none" x="661" y="404" width="149.6689453125" height="39" opacity="0.2"/></g><g transform="translate(-94,-241) scale(1,1)"><rect fill="#C0C0C0" stroke="none" x="726.51171875" y="386" width="93.1572265625" height="22" opacity="0.2"/></g><g transform="translate(-94,-241) scale(1,1)"><rect fill="#ffffff" stroke="none" x="654" y="397" width="149.6689453125" height="39"/></g><g transform="translate(-94,-241) scale(1,1)"><path fill="none" stroke="#000000" d="M 654 397 L 803.6689453125 397 L 803.6689453125 436 L 654 436 L 654 397 Z Z" stroke-miterlimit="10"/></g><g transform="translate(-94,-241) scale(1,1)"><g><path fill="none" stroke="none"/><text fill="#000000" stroke="none" font-family="Arial" font-size="13px" font-style="normal" font-weight="normal" text-decoration="none" x="691.259521484375" y="414.5">«case class»</text></g></g><g transform="translate(-94,-241) scale(1,1)"><g><path fill="none" stroke="none"/><text fill="#000000" stroke="none" font-family="Arial" font-size="13px" font-style="normal" font-weight="bold" text-decoration="none" x="677.90087890625" y="429.5">OTPPolicyBuilder</text></g></g><g transform="translate(-94,-241) scale(1,1)"><rect fill="#ffffff" stroke="none" x="719.51171875" y="379" width="93.1572265625" height="22"/></g><g transform="translate(-94,-241) scale(1,1)"><path fill="none" stroke="#000000" d="M 719.51171875 379 L 812.6689453125 379 L 812.6689453125 401 L 719.51171875 401 L 719.51171875 379 Z Z" stroke-miterlimit="10" stroke-dasharray="3"/></g><g transform="translate(-94,-241) scale(1,1)"><g><path fill="none" stroke="none"/><text fill="#000000" stroke="none" font-family="Arial" font-size="13px" font-style="normal" font-weight="normal" text-decoration="none" x="724.51171875" y="396.5">T = OTPPolicy</text></g></g><g transform="translate(-94,-241) scale(1,1)"><rect fill="#C0C0C0" stroke="none" x="637" y="514" width="198.96630859375" height="40" opacity="0.2"/></g><g transform="translate(-94,-241) scale(1,1)"><rect fill="#ffffff" stroke="none" x="630" y="507" width="198.96630859375" height="40"/></g><g transform="translate(-94,-241) scale(1,1)"><path fill="none" stroke="#000000" d="M 630 507 L 828.96630859375 507 L 828.96630859375 547 L 630 547 L 630 507 Z Z" stroke-miterlimit="10"/></g><g transform="translate(-94,-241) scale(1,1)"><g><path fill="none" stroke="none"/><text fill="#000000" stroke="none" font-family="Arial" font-size="13px" font-style="normal" font-weight="normal" text-decoration="none" x="682.516845703125" y="524.5">«abstract class»</text></g></g><g transform="translate(-94,-241) scale(1,1)"><g><path fill="none" stroke="none"/><text fill="#000000" stroke="none" font-family="Arial" font-size="13px" font-style="italic" font-weight="bold" text-decoration="none" x="643.50732421875" y="539.5">AbstractStringPolicyBuilder[T]</text></g></g><g transform="translate(-94,-241) scale(1,1)"><rect fill="#C0C0C0" stroke="none" x="973" y="514" width="333.3017578125" height="40" opacity="0.2"/></g><g transform="translate(-94,-241) scale(1,1)"><rect fill="#ffffff" stroke="none" x="966" y="507" width="333.3017578125" height="40"/></g><g transform="translate(-94,-241) scale(1,1)"><path fill="none" stroke="#000000" d="M 966 507 L 1299.3017578125 507 L 1299.3017578125 547 L 966 547 L 966 507 Z Z" stroke-miterlimit="10"/></g><g transform="translate(-94,-241) scale(1,1)"><g><path fill="none" stroke="none"/><text fill="#000000" stroke="none" font-family="Arial" font-size="13px" font-style="normal" font-weight="normal" text-decoration="none" x="1085.6845703125" y="524.5">«abstract class»</text></g></g><g transform="translate(-94,-241) scale(1,1)"><g><path fill="none" stroke="none"/><text fill="#000000" stroke="none" font-family="Arial" font-size="13px" font-style="italic" font-weight="bold" text-decoration="none" x="984.163330078125" y="539.5">AbstractStringPolicyBuilderWithSettableAlphabet[T]</text></g></g><g transform="translate(-94,-241) scale(1,1)"><rect fill="#C0C0C0" stroke="none" x="495" y="743" width="146.22998046875" height="40" opacity="0.2"/></g><g transform="translate(-94,-241) scale(1,1)"><rect fill="#ffffff" stroke="none" x="488" y="736" width="146.22998046875" height="40"/></g><g transform="translate(-94,-241) scale(1,1)"><path fill="none" stroke="#000000" d="M 488 736 L 634.22998046875 736 L 634.22998046875 776 L 488 776 L 488 736 Z Z" stroke-miterlimit="10"/></g><g transform="translate(-94,-241) scale(1,1)"><g><path fill="none" stroke="none"/><text fill="#000000" stroke="none" font-family="Arial" font-size="13px" font-style="normal" font-weight="normal" text-decoration="none" x="543.049560546875" y="753.5">«trait»</text></g></g><g transform="translate(-94,-241) scale(1,1)"><g><path fill="none" stroke="none"/><text fill="#000000" stroke="none" font-family="Arial" font-size="13px" font-style="normal" font-weight="bold" text-decoration="none" x="498.98095703125" y="768.5">StringPolicyBuilder[T]</text></g></g><g transform="translate(-94,-241) scale(1,1)"><rect fill="#C0C0C0" stroke="none" x="741" y="738" width="264" height="85" opacity="0.2"/></g><g transform="translate(-94,-241) scale(1,1)"><rect fill="#ffffff" stroke="none" x="734" y="731" width="264" height="85"/></g><g transform="translate(-94,-241) scale(1,1)"><path fill="none" stroke="#000000" d="M 734 731 L 998 731 L 998 816 L 734 816 L 734 731 Z Z" stroke-miterlimit="10"/></g><g transform="translate(-94,-241) scale(1,1)"><path fill="none" stroke="#000000" d="M 734 769 L 998 769" stroke-miterlimit="10"/></g><g transform="translate(-94,-241) scale(1,1)"><path fill="none" stroke="#000000" d="M 734 779 L 998 779" stroke-miterlimit="10"/></g><g transform="translate(-94,-241) scale(1,1)"><g><path fill="none" stroke="none"/><text fill="#000000" stroke="none" font-family="Arial" font-size="13px" font-style="normal" font-weight="normal" text-decoration="none" x="847.9345703125" y="748.5">«trait»</text></g></g><g transform="translate(-94,-241) scale(1,1)"><g><path fill="none" stroke="none"/><text fill="#000000" stroke="none" font-family="Arial" font-size="13px" font-style="normal" font-weight="bold" text-decoration="none" x="789.418701171875" y="763.5">RestrictStringPolicyBuilder</text></g></g><g transform="translate(-94,-241) scale(1,1)"><g><path fill="none" stroke="none"/><text fill="#000000" stroke="none" font-family="Arial" font-size="13px" font-style="normal" font-weight="normal" text-decoration="none" x="739" y="796.5">+maximumLength(number: Int): this.type</text></g></g><g transform="translate(-94,-241) scale(1,1)"><g><path fill="none" stroke="none"/><text fill="#000000" stroke="none" font-family="Arial" font-size="13px" font-style="normal" font-weight="normal" text-decoration="none" x="739" y="811.5">+minimumLength(number: Int): this.type</text></g></g><g transform="translate(-94,-241) scale(1,1)"><rect fill="#C0C0C0" stroke="none" x="1109" y="396" width="153.9853515625" height="39" opacity="0.2"/></g><g transform="translate(-94,-241) scale(1,1)"><rect fill="#C0C0C0" stroke="none" x="1165.1044921875" y="378" width="106.880859375" height="22" opacity="0.2"/></g><g transform="translate(-94,-241) scale(1,1)"><rect fill="#ffffff" stroke="none" x="1102" y="389" width="153.9853515625" height="39"/></g><g transform="translate(-94,-241) scale(1,1)"><path fill="none" stroke="#000000" d="M 1102 389 L 1255.9853515625 389 L 1255.9853515625 428 L 1102 428 L 1102 389 Z Z" stroke-miterlimit="10"/></g><g transform="translate(-94,-241) scale(1,1)"><g><path fill="none" stroke="none"/><text fill="#000000" stroke="none" font-family="Arial" font-size="13px" font-style="normal" font-weight="normal" text-decoration="none" x="1141.417724609375" y="406.5">«case class»</text></g></g><g transform="translate(-94,-241) scale(1,1)"><g><path fill="none" stroke="none"/><text fill="#000000" stroke="none" font-family="Arial" font-size="13px" font-style="normal" font-weight="bold" text-decoration="none" x="1121.197265625" y="421.5">UserIDPolicyBuilder</text></g></g><g transform="translate(-94,-241) scale(1,1)"><rect fill="#ffffff" stroke="none" x="1158.1044921875" y="371" width="106.880859375" height="22"/></g><g transform="translate(-94,-241) scale(1,1)"><path fill="none" stroke="#000000" d="M 1158.1044921875 371 L 1264.9853515625 371 L 1264.9853515625 393 L 1158.1044921875 393 L 1158.1044921875 371 Z Z" stroke-miterlimit="10" stroke-dasharray="3"/></g><g transform="translate(-94,-241) scale(1,1)"><g><path fill="none" stroke="none"/><text fill="#000000" stroke="none" font-family="Arial" font-size="13px" font-style="normal" font-weight="normal" text-decoration="none" x="1163.1044921875" y="388.5">T = UserIDPolicy</text></g></g><g transform="translate(-94,-241) scale(1,1)"><rect fill="#C0C0C0" stroke="none" x="1381" y="514" width="278.4326171875" height="40" opacity="0.2"/></g><g transform="translate(-94,-241) scale(1,1)"><rect fill="#ffffff" stroke="none" x="1374" y="507" width="278.4326171875" height="40"/></g><g transform="translate(-94,-241) scale(1,1)"><path fill="none" stroke="#000000" d="M 1374 507 L 1652.4326171875 507 L 1652.4326171875 547 L 1374 547 L 1374 507 Z Z" stroke-miterlimit="10"/></g><g transform="translate(-94,-241) scale(1,1)"><g><path fill="none" stroke="none"/><text fill="#000000" stroke="none" font-family="Arial" font-size="13px" font-style="normal" font-weight="normal" text-decoration="none" x="1466.25" y="524.5">«abstract class»</text></g></g><g transform="translate(-94,-241) scale(1,1)"><g><path fill="none" stroke="none"/><text fill="#000000" stroke="none" font-family="Arial" font-size="13px" font-style="italic" font-weight="bold" text-decoration="none" x="1390.40185546875" y="539.5">AbstractMoreRestrictStringPolicyBuilder[T]</text></g></g><g transform="translate(-94,-241) scale(1,1)"><rect fill="#C0C0C0" stroke="none" x="1325" y="388" width="173.49169921875" height="39" opacity="0.2"/></g><g transform="translate(-94,-241) scale(1,1)"><rect fill="#C0C0C0" stroke="none" x="1383.97998046875" y="370" width="123.51171875" height="22" opacity="0.2"/></g><g transform="translate(-94,-241) scale(1,1)"><rect fill="#ffffff" stroke="none" x="1318" y="381" width="173.49169921875" height="39"/></g><g transform="translate(-94,-241) scale(1,1)"><path fill="none" stroke="#000000" d="M 1318 381 L 1491.49169921875 381 L 1491.49169921875 420 L 1318 420 L 1318 381 Z Z" stroke-miterlimit="10"/></g><g transform="translate(-94,-241) scale(1,1)"><g><path fill="none" stroke="none"/><text fill="#000000" stroke="none" font-family="Arial" font-size="13px" font-style="normal" font-weight="normal" text-decoration="none" x="1367.1708984375" y="398.5">«case class»</text></g></g><g transform="translate(-94,-241) scale(1,1)"><g><path fill="none" stroke="none"/><text fill="#000000" stroke="none" font-family="Arial" font-size="13px" font-style="normal" font-weight="bold" text-decoration="none" x="1338.635009765625" y="413.5">PasswordPolicyBuilder</text></g></g><g transform="translate(-94,-241) scale(1,1)"><rect fill="#ffffff" stroke="none" x="1376.97998046875" y="363" width="123.51171875" height="22"/></g><g transform="translate(-94,-241) scale(1,1)"><path fill="none" stroke="#000000" d="M 1376.97998046875 363 L 1500.49169921875 363 L 1500.49169921875 385 L 1376.97998046875 385 L 1376.97998046875 363 Z Z" stroke-miterlimit="10" stroke-dasharray="3"/></g><g transform="translate(-94,-241) scale(1,1)"><g><path fill="none" stroke="none"/><text fill="#000000" stroke="none" font-family="Arial" font-size="13px" font-style="normal" font-weight="normal" text-decoration="none" x="1381.97998046875" y="380.5">T = PasswordPolicy</text></g></g><g transform="translate(-94,-241) scale(1,1)"><rect fill="#C0C0C0" stroke="none" x="1533" y="388" width="149.6689453125" height="39" opacity="0.2"/></g><g transform="translate(-94,-241) scale(1,1)"><rect fill="#C0C0C0" stroke="none" x="1602.83447265625" y="370" width="88.83447265625" height="22" opacity="0.2"/></g><g transform="translate(-94,-241) scale(1,1)"><rect fill="#ffffff" stroke="none" x="1526" y="381" width="149.6689453125" height="39"/></g><g transform="translate(-94,-241) scale(1,1)"><path fill="none" stroke="#000000" d="M 1526 381 L 1675.6689453125 381 L 1675.6689453125 420 L 1526 420 L 1526 381 Z Z" stroke-miterlimit="10"/></g><g transform="translate(-94,-241) scale(1,1)"><g><path fill="none" stroke="none"/><text fill="#000000" stroke="none" font-family="Arial" font-size="13px" font-style="normal" font-weight="normal" text-decoration="none" x="1563.259521484375" y="398.5">«case class»</text></g></g><g transform="translate(-94,-241) scale(1,1)"><g><path fill="none" stroke="none"/><text fill="#000000" stroke="none" font-family="Arial" font-size="13px" font-style="normal" font-weight="bold" text-decoration="none" x="1552.062255859375" y="413.5">SaltPolicyBuilder</text></g></g><g transform="translate(-94,-241) scale(1,1)"><rect fill="#ffffff" stroke="none" x="1595.83447265625" y="363" width="88.83447265625" height="22"/></g><g transform="translate(-94,-241) scale(1,1)"><path fill="none" stroke="#000000" d="M 1595.83447265625 363 L 1684.6689453125 363 L 1684.6689453125 385 L 1595.83447265625 385 L 1595.83447265625 363 Z Z" stroke-miterlimit="10" stroke-dasharray="3"/></g><g transform="translate(-94,-241) scale(1,1)"><g><path fill="none" stroke="none"/><text fill="#000000" stroke="none" font-family="Arial" font-size="13px" font-style="normal" font-weight="normal" text-decoration="none" x="1600.83447265625" y="380.5">T = SaltPolicy</text></g></g><g transform="translate(-94,-241) scale(1,1)"><rect fill="#C0C0C0" stroke="none" x="1029" y="738" width="331.6767578125" height="70" opacity="0.2"/></g><g transform="translate(-94,-241) scale(1,1)"><rect fill="#ffffff" stroke="none" x="1022" y="731" width="331.6767578125" height="70"/></g><g transform="translate(-94,-241) scale(1,1)"><path fill="none" stroke="#000000" d="M 1022 731 L 1353.6767578125 731 L 1353.6767578125 801 L 1022 801 L 1022 731 Z Z" stroke-miterlimit="10"/></g><g transform="translate(-94,-241) scale(1,1)"><path fill="none" stroke="#000000" d="M 1022 769 L 1353.6767578125 769" stroke-miterlimit="10"/></g><g transform="translate(-94,-241) scale(1,1)"><path fill="none" stroke="#000000" d="M 1022 779 L 1353.6767578125 779" stroke-miterlimit="10"/></g><g transform="translate(-94,-241) scale(1,1)"><g><path fill="none" stroke="none"/><text fill="#000000" stroke="none" font-family="Arial" font-size="13px" font-style="normal" font-weight="normal" text-decoration="none" x="1169.77294921875" y="748.5">«trait»</text></g></g><g transform="translate(-94,-241) scale(1,1)"><g><path fill="none" stroke="none"/><text fill="#000000" stroke="none" font-family="Arial" font-size="13px" font-style="normal" font-weight="bold" text-decoration="none" x="1118.093505859375" y="763.5">SettableAlphabetBuilder</text></g></g><g transform="translate(-94,-241) scale(1,1)"><g><path fill="none" stroke="none"/><text fill="#000000" stroke="none" font-family="Arial" font-size="13px" font-style="normal" font-weight="normal" text-decoration="none" x="1027" y="796.5">+addAlphabet(alphabetPolicy: PolicyAlphabet): this.type</text></g></g><g transform="translate(-94,-241) scale(1,1)"><rect fill="#C0C0C0" stroke="none" x="1389" y="738" width="288" height="115" opacity="0.2"/></g><g transform="translate(-94,-241) scale(1,1)"><rect fill="#ffffff" stroke="none" x="1382" y="731" width="288" height="115"/></g><g transform="translate(-94,-241) scale(1,1)"><path fill="none" stroke="#000000" d="M 1382 731 L 1670 731 L 1670 846 L 1382 846 L 1382 731 Z Z" stroke-miterlimit="10"/></g><g transform="translate(-94,-241) scale(1,1)"><path fill="none" stroke="#000000" d="M 1382 769 L 1670 769" stroke-miterlimit="10"/></g><g transform="translate(-94,-241) scale(1,1)"><path fill="none" stroke="#000000" d="M 1382 779 L 1670 779" stroke-miterlimit="10"/></g><g transform="translate(-94,-241) scale(1,1)"><g><path fill="none" stroke="none"/><text fill="#000000" stroke="none" font-family="Arial" font-size="13px" font-style="normal" font-weight="normal" text-decoration="none" x="1507.9345703125" y="748.5">«trait»</text></g></g><g transform="translate(-94,-241) scale(1,1)"><g><path fill="none" stroke="none"/><text fill="#000000" stroke="none" font-family="Arial" font-size="13px" font-style="normal" font-weight="bold" text-decoration="none" x="1434.609619140625" y="763.5">MoreRestrictStringPolicyBuilder</text></g></g><g transform="translate(-94,-241) scale(1,1)"><g><path fill="none" stroke="none"/><text fill="#000000" stroke="none" font-family="Arial" font-size="13px" font-style="normal" font-weight="normal" text-decoration="none" x="1387" y="796.5">+minimumLowerChars(number: Int): this.type</text></g></g><g transform="translate(-94,-241) scale(1,1)"><g><path fill="none" stroke="none"/><text fill="#000000" stroke="none" font-family="Arial" font-size="13px" font-style="normal" font-weight="normal" text-decoration="none" x="1387" y="811.5">+minimumUpperChars(number: Int): this.type</text></g></g><g transform="translate(-94,-241) scale(1,1)"><g><path fill="none" stroke="none"/><text fill="#000000" stroke="none" font-family="Arial" font-size="13px" font-style="normal" font-weight="normal" text-decoration="none" x="1387" y="826.5">+minimumSymbols(number: Int): this.type</text></g></g><g transform="translate(-94,-241) scale(1,1)"><g><path fill="none" stroke="none"/><text fill="#000000" stroke="none" font-family="Arial" font-size="13px" font-style="normal" font-weight="normal" text-decoration="none" x="1387" y="841.5">+minimumNumbers(number: Int): this.type</text></g></g><g transform="translate(-94,-241) scale(1,1)"><path fill="none" stroke="#000000" d="M 732 437 L 730 506" stroke-miterlimit="10"/></g><g transform="translate(-94,-241) scale(1,1)"><path fill="#FFFFFF" stroke="none" d="M 722.1733921691163 485.4392556102278 L 730 506 L 739.0043943133455 485.92711074484316"/></g><g transform="translate(-94,-241) scale(1,1)"><path fill="none" stroke="#000000" d="M 722.1733921691163 485.4392556102278 L 730 506 L 739.0043943133455 485.92711074484316 L 722.1733921691163 485.4392556102278" stroke-miterlimit="10"/></g><g transform="translate(-94,-241) scale(1,1)"><path fill="none" stroke="#000000" d="M 714 548 L 576 735" stroke-miterlimit="10"/></g><g transform="translate(-94,-241) scale(1,1)"><path fill="#FFFFFF" stroke="none" d="M 581.2947577974496 713.646650382988 L 576 735 L 594.8430574585533 723.6448608280806"/></g><g transform="translate(-94,-241) scale(1,1)"><path fill="none" stroke="#000000" d="M 581.2947577974496 713.646650382988 L 576 735 L 594.8430574585533 723.6448608280806 L 581.2947577974496 713.646650382988" stroke-miterlimit="10"/></g><g transform="translate(-94,-241) scale(1,1)"><path fill="none" stroke="#000000" d="M 741 548 L 842 730" stroke-miterlimit="10"/></g><g transform="translate(-94,-241) scale(1,1)"><path fill="#FFFFFF" stroke="none" d="M 824.7759613760608 716.3130539023108 L 842 730 L 839.4988978890043 708.1426330901828"/></g><g transform="translate(-94,-241) scale(1,1)"><path fill="none" stroke="#000000" d="M 824.7759613760608 716.3130539023108 L 842 730 L 839.4988978890043 708.1426330901828 L 824.7759613760608 716.3130539023108" stroke-miterlimit="10"/></g><g transform="translate(-94,-241) scale(1,1)"><g><path fill="none" stroke="none"/><text fill="#000000" stroke="none" font-family="Arial" font-size="13px" font-style="normal" font-weight="normal" text-decoration="none" x="795.536376953125" y="634.5">+mixin</text></g></g><g transform="translate(-94,-241) scale(1,1)"><path fill="none" stroke="#000000" d="M 965 527 L 830 527" stroke-miterlimit="10"/></g><g transform="translate(-94,-241) scale(1,1)"><path fill="#FFFFFF" stroke="none" d="M 850.3253497152483 518.580964487968 L 830 527 L 850.3253497152483 535.419035512032"/></g><g transform="translate(-94,-241) scale(1,1)"><path fill="none" stroke="#000000" d="M 850.3253497152483 518.580964487968 L 830 527 L 850.3253497152483 535.419035512032 L 850.3253497152483 518.580964487968" stroke-miterlimit="10"/></g><g transform="translate(-94,-241) scale(1,1)"><path fill="none" stroke="#000000" d="M 1137 548 L 1179 730" stroke-miterlimit="10"/></g><g transform="translate(-94,-241) scale(1,1)"><path fill="#FFFFFF" stroke="none" d="M 1166.2262178103852 712.0882583601627 L 1179 730 L 1182.6330859687139 708.3020580159331"/></g><g transform="translate(-94,-241) scale(1,1)"><path fill="none" stroke="#000000" d="M 1166.2262178103852 712.0882583601627 L 1179 730 L 1182.6330859687139 708.3020580159331 L 1166.2262178103852 712.0882583601627" stroke-miterlimit="10"/></g><g transform="translate(-94,-241) scale(1,1)"><g><path fill="none" stroke="none"/><text fill="#000000" stroke="none" font-family="Arial" font-size="13px" font-style="normal" font-weight="normal" text-decoration="none" x="1159.536376953125" y="636.5">+mixin</text></g></g><g transform="translate(-94,-241) scale(1,1)"><path fill="none" stroke="#000000" d="M 503 777 L 375 823" stroke-miterlimit="10"/></g><g transform="translate(-94,-241) scale(1,1)"><path fill="#FFFFFF" stroke="none" d="M 391.28036563087903 808.2030511616451 L 375 823 L 396.9749798022621 824.0489340733199"/></g><g transform="translate(-94,-241) scale(1,1)"><path fill="none" stroke="#000000" d="M 391.28036563087903 808.2030511616451 L 375 823 L 396.9749798022621 824.0489340733199 L 391.28036563087903 808.2030511616451" stroke-miterlimit="10"/></g><g transform="translate(-94,-241) scale(1,1)"><path fill="none" stroke="#000000" d="M 1260 429 L 1459 506" stroke-miterlimit="10"/></g><g transform="translate(-94,-241) scale(1,1)"><path fill="#FFFFFF" stroke="none" d="M 1437.0060777835708 506.5170933548811 L 1459 506 L 1443.0823082381305 490.8135886736164"/></g><g transform="translate(-94,-241) scale(1,1)"><path fill="none" stroke="#000000" d="M 1437.0060777835708 506.5170933548811 L 1459 506 L 1443.0823082381305 490.8135886736164 L 1437.0060777835708 506.5170933548811" stroke-miterlimit="10"/></g><g transform="translate(-94,-241) scale(1,1)"><path fill="none" stroke="#000000" d="M 1514 548 L 1523 730" stroke-miterlimit="10"/></g><g transform="translate(-94,-241) scale(1,1)"><path fill="#FFFFFF" stroke="none" d="M 1513.5873663737054 710.1152739969306 L 1523 730 L 1530.4048875328294 709.2836383352156"/></g><g transform="translate(-94,-241) scale(1,1)"><path fill="none" stroke="#000000" d="M 1513.5873663737054 710.1152739969306 L 1523 730 L 1530.4048875328294 709.2836383352156 L 1513.5873663737054 710.1152739969306" stroke-miterlimit="10"/></g><g transform="translate(-94,-241) scale(1,1)"><g><path fill="none" stroke="none"/><text fill="#000000" stroke="none" font-family="Arial" font-size="13px" font-style="normal" font-weight="normal" text-decoration="none" x="1522.536376953125" y="642.5">+mixin</text></g></g><g transform="translate(-94,-241) scale(1,1)"><path fill="none" stroke="#000000" d="M 1373 527 L 1300 527" stroke-miterlimit="10"/></g><g transform="translate(-94,-241) scale(1,1)"><path fill="#FFFFFF" stroke="none" d="M 1320.3253497152482 518.580964487968 L 1300 527 L 1320.3253497152482 535.419035512032"/></g><g transform="translate(-94,-241) scale(1,1)"><path fill="none" stroke="#000000" d="M 1320.3253497152482 518.580964487968 L 1300 527 L 1320.3253497152482 535.419035512032 L 1320.3253497152482 518.580964487968" stroke-miterlimit="10"/></g><g transform="translate(-94,-241) scale(1,1)"><path fill="none" stroke="#000000" d="M 1432 421 L 1497 506" stroke-miterlimit="10"/></g><g transform="translate(-94,-241) scale(1,1)"><path fill="#FFFFFF" stroke="none" d="M 1477.9656373239625 494.96854327311786 L 1497 506 L 1491.3410909341542 484.7402552182655"/></g><g transform="translate(-94,-241) scale(1,1)"><path fill="none" stroke="#000000" d="M 1477.9656373239625 494.96854327311786 L 1497 506 L 1491.3410909341542 484.7402552182655 L 1477.9656373239625 494.96854327311786" stroke-miterlimit="10"/></g><g transform="translate(-94,-241) scale(1,1)"><path fill="none" stroke="#000000" d="M 1585 421 L 1527 506" stroke-miterlimit="10"/></g><g transform="translate(-94,-241) scale(1,1)"><path fill="#FFFFFF" stroke="none" d="M 1531.501840223432 484.4655291543375 L 1527 506 L 1545.4104521140391 493.95611138557524"/></g><g transform="translate(-94,-241) scale(1,1)"><path fill="none" stroke="#000000" d="M 1531.501840223432 484.4655291543375 L 1527 506 L 1545.4104521140391 493.95611138557524 L 1531.501840223432 484.4655291543375" stroke-miterlimit="10"/></g><g transform="translate(-94,-241) scale(1,1)"><path fill="none" stroke="#000000" d="M 1264 1043 L 1336 1024 L 1439 1039" stroke-miterlimit="10"/></g><g transform="translate(-94,-241) scale(1,1)"><path fill="#FFFFFF" stroke="none" d="M 1425.0730691994454 1037.9912236698221 C 1425.0730691994454 1034.1252300698222 1428.2070755994455 1030.9912236698221 1432.0730691994454 1030.9912236698221 C 1435.9390627994453 1030.9912236698221 1439.0730691994454 1034.1252300698222 1439.0730691994454 1037.9912236698221 C 1439.0730691994454 1041.857217269822 1435.9390627994453 1044.9912236698221 1432.0730691994454 1044.9912236698221 C 1428.2070755994455 1044.9912236698221 1425.0730691994454 1041.857217269822 1425.0730691994454 1037.9912236698221 Z"/></g><g transform="translate(-94,-241) scale(1,1)"><path fill="none" stroke="#000000" d="M 1425.0730691994454 1037.9912236698221 C 1425.0730691994454 1034.1252300698222 1428.2070755994455 1030.9912236698221 1432.0730691994454 1030.9912236698221 C 1435.9390627994453 1030.9912236698221 1439.0730691994454 1034.1252300698222 1439.0730691994454 1037.9912236698221 C 1439.0730691994454 1041.857217269822 1435.9390627994453 1044.9912236698221 1432.0730691994454 1044.9912236698221 C 1428.2070755994455 1044.9912236698221 1425.0730691994454 1041.857217269822 1425.0730691994454 1037.9912236698221 Z" stroke-miterlimit="10"/></g><g transform="translate(-94,-241) scale(1,1)"><path fill="none" stroke="#000000" d="M 1425.1461383988906 1036.9824473396443 L 1439 1039" stroke-miterlimit="10"/></g><g transform="translate(-94,-241) scale(1,1)"><path fill="none" stroke="#000000" d="M 1431.0642928692675 1044.9181544703767 L 1433.0818455296233 1031.0642928692675" stroke-miterlimit="10"/></g><g transform="translate(-94,-241) scale(1,1)"><rect fill="#C0C0C0" stroke="none" x="1143" y="1047" width="126.76806640625" height="40" opacity="0.2"/></g><g transform="translate(-94,-241) scale(1,1)"><rect fill="#ffffff" stroke="none" x="1136" y="1040" width="126.76806640625" height="40"/></g><g transform="translate(-94,-241) scale(1,1)"><path fill="none" stroke="#000000" d="M 1136 1040 L 1262.76806640625 1040 L 1262.76806640625 1080 L 1136 1080 L 1136 1040 Z Z" stroke-miterlimit="10"/></g><g transform="translate(-94,-241) scale(1,1)"><g><path fill="none" stroke="none"/><text fill="#000000" stroke="none" font-family="Arial" font-size="13px" font-style="normal" font-weight="normal" text-decoration="none" x="1161.80908203125" y="1057.5">«case class»</text></g></g><g transform="translate(-94,-241) scale(1,1)"><g><path fill="none" stroke="none"/><text fill="#000000" stroke="none" font-family="Arial" font-size="13px" font-style="normal" font-weight="bold" text-decoration="none" x="1145.917724609375" y="1072.5">BasicPolicyBuilder</text></g></g><g transform="translate(-94,-241) scale(1,1)"><path fill="none" stroke="#000000" d="M 1135 1061 L 1036 1062" stroke-miterlimit="10"/></g><g transform="translate(-94,-241) scale(1,1)"><path fill="#FFFFFF" stroke="none" d="M 1056.239276468048 1053.3760978640803 L 1036 1062 L 1056.409349317464 1070.213309956268"/></g><g transform="translate(-94,-241) scale(1,1)"><path fill="none" stroke="#000000" d="M 1056.239276468048 1053.3760978640803 L 1036 1062 L 1056.409349317464 1070.213309956268 L 1056.239276468048 1053.3760978640803" stroke-miterlimit="10"/></g><g transform="translate(-94,-241) scale(1,1)"><path fill="none" stroke="#000000" d="M 551 983 L 367 910" stroke-miterlimit="10"/></g><g transform="translate(-94,-241) scale(1,1)"><path fill="#FFFFFF" stroke="none" d="M 388.99752275045716 909.6698593585772 L 367 910 L 382.7880421924489 925.3211528198583"/></g><g transform="translate(-94,-241) scale(1,1)"><path fill="none" stroke="#000000" d="M 388.99752275045716 909.6698593585772 L 367 910 L 382.7880421924489 925.3211528198583 L 388.99752275045716 909.6698593585772" stroke-miterlimit="10"/></g></g></svg>